<?xml version="1.0" standalone="no"?>
<!DOCTYPE svg PUBLIC "-//W3C//DTD SVG 1.1//EN" "http://www.w3.org/Graphics/SVG/1.1/DTD/svg11.dtd" >
<svg>
<metadata>
Created by FontForge 20120731 at Wed Nov 15 10:24:29 2017
 By www-data
(c) 2015  Microsoft Corporation. All Rights Reserved. Portions (c) 2015 Beijing Founder  Electronics Co. Ltd. All Rights Reserved.
</metadata>
<defs>
<font id="MongolianBaiti" horiz-adv-x="1024" >
  <font-face 
    font-family="Mongolian Baiti"
    font-weight="400"
    font-stretch="normal"
    units-per-em="2048"
    panose-1="3 0 5 0 0 0 0 0 0 0"
    ascent="1638"
    descent="-410"
    x-height="916"
    cap-height="1356"
    bbox="-157 -446 2066 1773"
    underline-thickness="96"
    underline-position="-256"
    unicode-range="U+0020-FE48"
  />
<missing-glyph horiz-adv-x="1329" 
d="M606 86q-27 0 -48 6t-37 16q-20 23 -20 74q0 42 36 80q30 24 69 24h8q39 0 72 -38q27 -26 27 -66q0 -61 -35 -83q-32 -13 -72 -13zM606 450h-42q-4 36 -5.5 65.5t-1.5 59.5q0 150 79 260q51 51 99.5 98t99.5 92q34 29 34 99q-35 197 -227 207q-158 -14 -190 -118
q0 -12 34 -22q69 -6 78 -72q0 -81 -78 -87q-99 0 -99 117q20 192 262 220q280 -24 306 -306q0 -126 -72 -225q-17 -23 -53.5 -55t-88.5 -75q-14 -11 -25.5 -19.5t-18.5 -14.5q-92 -66 -92 -192q0 -8 0.5 -16t0.5 -16zM294 -7h745v1479h-745v-1479zM1107 -76h-885l1 1625h884
v-1625z" />
    <glyph glyph-name=".notdef" horiz-adv-x="1329" 
d="M606 86q-27 0 -48 6t-37 16q-20 23 -20 74q0 42 36 80q30 24 69 24h8q39 0 72 -38q27 -26 27 -66q0 -61 -35 -83q-32 -13 -72 -13zM606 450h-42q-4 36 -5.5 65.5t-1.5 59.5q0 150 79 260q51 51 99.5 98t99.5 92q34 29 34 99q-35 197 -227 207q-158 -14 -190 -118
q0 -12 34 -22q69 -6 78 -72q0 -81 -78 -87q-99 0 -99 117q20 192 262 220q280 -24 306 -306q0 -126 -72 -225q-17 -23 -53.5 -55t-88.5 -75q-14 -11 -25.5 -19.5t-18.5 -14.5q-92 -66 -92 -192q0 -8 0.5 -16t0.5 -16zM294 -7h745v1479h-745v-1479zM1107 -76h-885l1 1625h884
v-1625z" />
    <glyph glyph-name="glyph1" horiz-adv-x="883" 
 />
    <glyph glyph-name="glyph2" horiz-adv-x="894" 
 />
    <glyph glyph-name="space" unicode=" " horiz-adv-x="512" 
 />
    <glyph glyph-name="exclam" unicode="!" horiz-adv-x="682" 
d="M360 359h-38l-88 810q-6 52 -6 79q0 31 9 57t24.5 44t36 28t44.5 10q48 0 80 -38t32 -113q0 -12 -1 -28.5t-3 -38.5zM340 193q22 0 42.5 -9t35.5 -24t24 -35t9 -42q0 -23 -9 -43t-24 -35t-35 -24t-43 -9t-43 9t-35 24t-24 35t-9 43t9 43t24 35t35 23.5t43 8.5z" />
    <glyph glyph-name="quotedbl" unicode="&#x22;" horiz-adv-x="836" 
d="M576 803l-76 413q-1 13 -1.5 25t-0.5 25q0 63 28 92t74 29q43 0 71.5 -29t28.5 -78q0 -43 -4.5 -88.5t-14.5 -95.5l-57 -293h-48zM210 803l-55 296q-11 61 -16.5 102.5t-5.5 63.5q0 64 26.5 93t71.5 29t73.5 -29.5t28.5 -78.5q0 -20 -6.5 -64.5t-19.5 -116.5l-54 -295
h-43z" />
    <glyph glyph-name="numbersign" unicode="#" 
d="M115 -28l93 455h-171v82h187l69 343h-256v80h275l91 455h83l-91 -455h337l97 455h83l-95 -455h170v-80h-185l-70 -343h255v-82h-272l-93 -455h-81l91 455h-339l-95 -455h-83zM308 509h339l72 343h-341z" />
    <glyph glyph-name="dollar" unicode="$" 
d="M108 334h44q11 -138 85.5 -210.5t224.5 -86.5v584q-225 139 -300 246q-53 77 -53 185q0 61 23 116t68 98.5t111 72.5t151 39v92h64v-92q42 -2 76 -7t62 -12q28 -8 192 -69v-299h-39q-7 79 -27 136.5t-55.5 96t-87 59.5t-121.5 28v-508q252 -176 323 -260q35 -42 53.5 -93
t18.5 -114q0 -68 -26.5 -130t-77.5 -111.5t-124.5 -82t-166.5 -40.5v-128h-64v128q-48 2 -91 7.5t-84 14.5q-41 8 -85.5 22t-93.5 35v283zM462 845v465q-100 -12 -148.5 -63.5t-48.5 -129.5q0 -37 10 -70.5t33 -66t60.5 -66t93.5 -69.5zM526 37q116 21 176 88.5t60 160.5
q0 66 -40 125q-40 60 -196 167v-541z" />
    <glyph glyph-name="percent" unicode="%" horiz-adv-x="1706" 
d="M1392 1387l-988 -1443h-89l988 1443h89zM1346 673q63 0 116 -29t91.5 -78.5t60 -116t21.5 -141.5q0 -89 -23 -157t-62.5 -114t-91.5 -69.5t-109 -23.5q-60 0 -113 27t-92 75.5t-61.5 115.5t-22.5 146q0 89 25 157t65.5 114.5t92 70t103.5 23.5zM1347 620q-28 0 -51.5 -17
t-40.5 -55t-26.5 -99t-9.5 -148q0 -156 34 -228.5t94 -72.5q55 0 92.5 75t37.5 231q0 158 -34 236t-96 78zM361 1387q63 0 116 -29t91.5 -78.5t60 -116t21.5 -141.5q0 -89 -23 -157t-62.5 -114t-91.5 -69.5t-109 -23.5q-60 0 -113 27t-92 75.5t-61.5 115.5t-22.5 146
q0 89 25 157t65.5 114.5t92 70t103.5 23.5zM362 1334q-28 0 -51.5 -17t-40.5 -55t-26.5 -99t-9.5 -148q0 -156 34 -228.5t94 -72.5q55 0 92.5 75t37.5 231q0 158 -34 236t-96 78z" />
    <glyph glyph-name="ampersand" unicode="&#x26;" horiz-adv-x="1593" 
d="M1045 873h420v-37q-87 -8 -129 -39q-41 -32 -129 -190q-89 -159 -198 -297q45 -52 84 -88t75 -58t70.5 -31.5t70.5 -9.5q69 0 117 37.5t68 110.5l37 -27q-37 -141 -119 -208t-191 -67q-41 0 -82 10.5t-84.5 34t-89 60.5t-95.5 90q-125 -110 -224 -153q-99 -42 -212 -42
q-83 0 -149 24t-113 64.5t-72 95t-25 114.5q0 121 87 241q86 121 327 250q-24 53 -39.5 94.5t-25 76t-13 65t-3.5 62.5q0 75 27 136t74.5 104.5t111 67t136.5 23.5q58 0 107.5 -19t85.5 -52t56 -77.5t20 -95.5q0 -107 -73 -186q-36 -40 -99.5 -83.5t-156.5 -91.5
q64 -114 130 -217t135 -197q176 211 176 354q0 19 -6 38.5t-17.5 35t-29 26.5t-40.5 14v37zM663 847q247 118 247 301q0 35 -12 65.5t-32.5 53t-49 35t-61.5 12.5q-44 0 -77 -17.5t-55 -44t-33 -58t-11 -59.5q0 -26 3.5 -51.5t13 -57.5t25.5 -75t42 -104zM818 222
q-66 91 -111.5 156t-71.5 107t-53.5 93t-58.5 113q-241 -139 -241 -332q0 -53 18 -101.5t51 -85.5t80 -59.5t106 -22.5q32 0 61 5t61 19t70 40t89 68z" />
    <glyph glyph-name="quotesingle" unicode="'" horiz-adv-x="369" 
d="M158 803l-54 296q-11 62 -17 103t-6 63q0 64 26 93t71 29t74.5 -29.5t29.5 -77.5q-1 -19 -6.5 -64t-19.5 -118l-54 -295h-44z" />
    <glyph glyph-name="parenleft" unicode="(" horiz-adv-x="682" 
d="M636 -401v-37q-152 77 -252 178q-144 145 -222 342q-78 196 -78 409q0 310 153 565q153 256 399 366v-42q-122 -67 -202 -186q-79 -118 -118 -299q-39 -182 -39 -378q0 -214 33 -389q26 -139 63 -221q37 -84 99 -161t164 -147z" />
    <glyph glyph-name="parenright" unicode=")" horiz-adv-x="682" 
d="M46 1380v42q153 -76 253 -177q143 -146 221 -343t78 -409q0 -310 -153 -565q-154 -257 -399 -366v37q123 69 202 187q81 119 118 298q19 91 29 185.5t10 193.5q0 213 -33 389q-26 139 -63 221q-38 83 -99.5 160t-163.5 147z" />
    <glyph glyph-name="asterisk" unicode="*" 
d="M494 1044q-5 71 -28 137q-34 96 -34 135q0 52 24.5 79t60.5 27q31 0 54 -26.5t23 -77.5q0 -20 -8 -53.5t-18.5 -72t-20 -77.5t-12.5 -71q28 17 52.5 38.5t46.5 46.5q34 40 58 63.5t42.5 35.5t34 15t33.5 3q33 0 55.5 -22.5t22.5 -53.5q0 -18 -5.5 -34t-25.5 -31
t-59.5 -29.5t-107.5 -29.5q-77 -17 -128 -39q54 -28 127 -41q62 -11 100.5 -25.5t59.5 -30.5t28.5 -34t7.5 -37q0 -30 -22.5 -52t-52.5 -22q-15 0 -31 4t-35 16t-43.5 34.5t-55.5 60.5q-20 25 -45.5 47.5t-56.5 44.5q1 -55 23 -124q36 -119 36 -161q0 -20 -6.5 -37.5
t-17.5 -30t-24.5 -20t-26.5 -7.5q-15 0 -30.5 5t-28.5 16t-21 29.5t-8 45.5q0 21 7.5 52.5t16.5 62.5t17.5 57t10.5 36q7 28 11 76q-29 -20 -55 -41.5t-48 -45.5q-32 -36 -55.5 -59.5t-42 -37t-34 -18.5t-32.5 -5t-32 6.5t-26 17t-17.5 23.5t-6.5 27q0 25 20 52.5t62 45.5
q14 6 44.5 13.5t78.5 18.5q61 12 121 38q-54 27 -129 42q-123 25 -152 47q-45 33 -45 80q0 13 6 26t16.5 23.5t24 16.5t28.5 6q17 0 34 -4.5t36 -16.5t41.5 -32.5t50.5 -52.5q57 -65 112 -98z" />
    <glyph glyph-name="plus" unicode="+" horiz-adv-x="1155" 
d="M535 141v499h-498v82h498v497h80v-497h500v-82h-500v-499h-80z" />
    <glyph glyph-name="comma" unicode="," horiz-adv-x="512" 
d="M110 -341v44q51 17 91 44.5t68 61.5t42.5 73t14.5 78q0 15 -7 28t-16 13q-3 0 -12 -4.5t-20.5 -10t-25.5 -10t-28 -4.5q-49 0 -78 29t-29 80q0 25 10 46.5t27.5 37.5t41 25.5t50.5 9.5q32 0 62.5 -15t54 -42.5t38 -66.5t14.5 -86q0 -51 -17.5 -100t-54 -91.5t-92.5 -78.5
t-134 -61z" />
    <glyph glyph-name="hyphen" unicode="-" horiz-adv-x="682" 
d="M83 535h517v-151h-517v151z" />
    <glyph glyph-name="hyphen" unicode="&#xad;" horiz-adv-x="682" 
d="M83 535h517v-151h-517v151z" />
    <glyph glyph-name="period" unicode="." horiz-adv-x="512" 
d="M256 194q23 0 43 -8.5t35 -23.5t24 -35.5t9 -43.5t-9 -43t-24 -35t-35 -24t-43 -9t-43 9t-35 24t-24 35t-9 43q0 24 9 44t24 35t35 23.5t43 8.5z" />
    <glyph glyph-name="slash" unicode="/" horiz-adv-x="569" 
d="M574 1422l-491 -1450h-80l491 1450h80z" />
    <glyph glyph-name="zero" unicode="0" 
d="M74 670q0 234 70 399q26 62 63 119t83.5 100.5t103 69.5t122.5 26q155 0 280 -159q155 -197 155 -534q0 -80 -7 -153t-23.5 -140t-43.5 -128.5t-68 -118.5q-26 -36 -61.5 -68t-75.5 -56t-83 -37.5t-83 -13.5q-86 0 -162.5 50t-135.5 140q-62 94 -98 222.5t-36 281.5z
M270 645q0 -120 13 -226t40 -188q29 -89 75 -140.5t111 -51.5q27 0 56 11.5t56 37t50 65.5t38 97q23 87 34.5 207t11.5 278q0 232 -48 387q-31 99 -76 147.5t-116 48.5q-81 0 -139 -84.5t-80 -237.5q-13 -90 -19.5 -177t-6.5 -174z" />
    <glyph glyph-name="one" unicode="1" 
d="M240 1223l330 161h33v-1145q0 -59 2 -92.5t7 -51.5t15 -26t25 -15q31 -16 122 -17v-37h-510v37q49 1 78.5 5t46.5 11t25 17t13 22q11 27 11 147v732q0 150 -10 190q-8 32 -26 47t-44 15q-38 0 -103 -31z" />
    <glyph glyph-name="two" unicode="2" 
d="M939 261l-95 -261h-800v37q177 162 301 292.5t196 233.5q144 204 144 373q0 64 -21.5 118.5t-58 93.5t-85.5 61t-103 22q-50 0 -95.5 -14.5t-84 -43.5t-68.5 -72t-49 -100h-37q13 93 46 164t83 120t115 74t143 25q82 0 153 -29t122.5 -78t81 -113.5t29.5 -135.5
q0 -103 -48 -206q-73 -161 -240 -343q-125 -137 -202.5 -218.5t-108.5 -109.5h354q67 0 113 3t78 14.5t55 33t45 59.5h37z" />
    <glyph glyph-name="three" unicode="3" 
d="M104 1098q58 137 146.5 211.5t220.5 74.5q70 0 128 -22.5t100 -60.5t65 -88t23 -104q0 -149 -186 -306q126 -49 189.5 -139.5t63.5 -214.5q0 -103 -38.5 -190t-108.5 -150t-169 -98t-219 -35q-70 0 -115.5 9.5t-72.5 25t-37.5 34.5t-10.5 38q0 29 23.5 51t56.5 22h22
t19.5 -4t31 -13t55.5 -28t58.5 -28.5t39 -14t30.5 -5t34 -0.5q51 0 97 21.5t80.5 58.5t55 85t20.5 101q0 33 -7.5 68t-20 67.5t-29 59.5t-35.5 44q-21 19 -52 38t-67 34t-75 24t-77 9h-32v30q78 10 158 57q81 48 116.5 113.5t35.5 144.5q0 51 -17.5 93.5t-48 73t-71.5 47
t-88 16.5q-156 0 -259 -166z" />
    <glyph glyph-name="four" unicode="4" 
d="M953 500v-142h-182v-358h-165v358h-574v128l629 898h110v-884h182zM606 500v673l-476 -673h476z" />
    <glyph glyph-name="five" unicode="5" 
d="M889 1356l-78 -170h-408l-89 -182q265 -39 420 -197q133 -136 133 -320q0 -105 -44 -198q-43 -91 -109 -155t-147 -103q-114 -55 -236 -55q-62 0 -106.5 11.5t-72.5 30.5t-41 43t-13 48q0 28 23 49.5t58 21.5q13 0 23.5 -1.5t22 -6.5t27 -14.5t39.5 -26.5q74 -52 152 -52
q58 0 111 23.5t93.5 65t65 97t24.5 118.5q0 123 -79 229q-80 107 -218 165q-108 44 -297 52l260 527h486z" />
    <glyph glyph-name="six" unicode="6" 
d="M918 1384v-37q-64 -8 -114.5 -19t-95 -30.5t-85.5 -49.5t-86 -74q-41 -41 -74 -85t-60.5 -95t-49.5 -109.5t-40 -127.5q144 99 289 99q69 0 131 -29.5t109.5 -83t75 -127t27.5 -160.5q0 -91 -32 -177t-89 -153.5t-136 -108.5t-174 -41q-68 0 -126 23t-105.5 63
t-83.5 93.5t-61 115.5t-37.5 128.5t-12.5 132.5q0 183 72.5 346t208.5 291q114 106 232.5 160.5t258.5 54.5h58zM296 684q-18 -135 -18 -218q0 -42 7 -90.5t21.5 -97t36 -93t51 -78.5t67 -54.5t82.5 -20.5q43 0 83.5 21t71.5 61.5t50 99.5t19 134q0 83 -17 159.5t-50 134.5
t-82 92.5t-112 34.5q-21 0 -40 -3t-42 -12.5t-53.5 -26t-74.5 -43.5z" />
    <glyph glyph-name="seven" unicode="7" 
d="M206 1356h727v-38l-452 -1346h-112l405 1221h-373q-59 0 -102 -8.5t-77 -28.5t-61.5 -52.5t-55.5 -79.5l-29 11z" />
    <glyph glyph-name="eight" unicode="8" 
d="M393 683q-162 133 -208 212t-46 166q0 65 27 123.5t75.5 103t117.5 70.5t153 26q81 0 148 -24.5t115 -65t74.5 -93.5t26.5 -109q0 -76 -54 -155q-54 -80 -225 -186q88 -69 146 -122t87 -92q76 -101 76 -215q0 -71 -28.5 -133.5t-80.5 -110t-125 -75t-161 -27.5
q-85 0 -156 27t-122.5 72.5t-80 106t-28.5 127.5q0 89 60 178q31 45 82.5 93.5t126.5 102.5zM550 790q120 108 152 170q32 64 32 142q0 106 -58.5 165t-161.5 59q-51 0 -93 -16t-72.5 -43t-47.5 -63t-17 -75q0 -52 26.5 -103.5t75.5 -99.5zM440 645q-72 -60 -113 -133
q-26 -45 -38 -94.5t-12 -103.5q0 -64 18.5 -116.5t51.5 -89.5t79 -57.5t101 -20.5q54 0 98 16.5t75 45t48 66.5t17 81q0 71 -38 129q-69 105 -287 277z" />
    <glyph glyph-name="nine" unicode="9" 
d="M108 -28v37q76 3 139.5 20t118.5 49.5t104 81t96 114.5q106 147 146 321q-158 -101 -284 -101q-71 0 -134.5 29t-110.5 82t-74.5 127.5t-27.5 165.5t30.5 178.5t86 155.5t133.5 110t173 42q96 0 175.5 -46.5t136.5 -124.5t88.5 -179t31.5 -210q0 -92 -19.5 -180.5
t-56.5 -170.5t-90.5 -155.5t-120.5 -136.5q-52 -47 -107.5 -85t-115.5 -66t-125.5 -43t-135.5 -15h-57zM728 669q18 130 18 208q0 43 -7.5 92.5t-22 99t-36.5 94.5t-51 80t-66 55.5t-81 20.5t-84 -20t-71 -59.5t-49.5 -99.5t-18.5 -139q0 -89 17 -165t49.5 -131.5
t78.5 -87.5t104 -32q22 0 50.5 6t58.5 16.5t59 26t52 35.5z" />
    <glyph glyph-name="colon" unicode=":" horiz-adv-x="569" 
d="M289 944q23 0 43 -9t35 -24t24 -35t9 -43t-9 -43t-24 -35t-35 -24t-43 -9t-43 9t-35 24t-24 35t-9 43t9 43t24 35t35 24t43 9zM287 195q23 0 43.5 -9t35.5 -24.5t24 -36t9 -42.5q0 -23 -9 -43t-24 -35t-35.5 -24t-43.5 -9t-43 9t-35 24t-24 35t-9 43t9 43.5t24 35.5
t35 24t43 9z" />
    <glyph glyph-name="semicolon" unicode=";" horiz-adv-x="569" 
d="M282 945q23 0 43 -8.5t35 -23.5t24 -35t9 -43t-9 -43t-24 -35t-35 -24t-43 -9t-43 9t-35 24t-24 35t-9 43t9 43t24 35t35 23.5t43 8.5zM142 -341v44q51 17 91 44.5t68 61.5t42.5 73t14.5 78q0 15 -7 28t-16 13q-3 0 -12 -4.5t-20.5 -10t-25.5 -10t-28 -4.5q-49 0 -78 29
t-29 80q0 25 10 46.5t27.5 37.5t41 25.5t50.5 9.5q32 0 62.5 -15t54 -42.5t38 -66.5t14.5 -86q0 -51 -17.5 -100t-54 -91.5t-92.5 -78.5t-134 -61z" />
    <glyph glyph-name="semicolon" unicode="&#xfe14;" horiz-adv-x="569" 
d="M282 945q23 0 43 -8.5t35 -23.5t24 -35t9 -43t-9 -43t-24 -35t-35 -24t-43 -9t-43 9t-35 24t-24 35t-9 43t9 43t24 35t35 23.5t43 8.5zM142 -341v44q51 17 91 44.5t68 61.5t42.5 73t14.5 78q0 15 -7 28t-16 13q-3 0 -12 -4.5t-20.5 -10t-25.5 -10t-28 -4.5q-49 0 -78 29
t-29 80q0 25 10 46.5t27.5 37.5t41 25.5t50.5 9.5q32 0 62.5 -15t54 -42.5t38 -66.5t14.5 -86q0 -51 -17.5 -100t-54 -91.5t-92.5 -78.5t-134 -61z" />
    <glyph glyph-name="less" unicode="&#x3c;" horiz-adv-x="1155" 
d="M37 706l1076 466v-87l-926 -402l926 -406v-90l-1076 470v49z" />
    <glyph glyph-name="equal" unicode="=" horiz-adv-x="1155" 
d="M37 883h1079v-82h-1079v82zM37 557h1079v-82h-1079v82z" />
    <glyph glyph-name="greater" unicode="&#x3e;" horiz-adv-x="1155" 
d="M1113 653l-1076 -466v86l927 402l-927 406v91l1076 -470v-49z" />
    <glyph glyph-name="question" unicode="?" horiz-adv-x="909" 
d="M454 320h-41q8 128 31 208q12 42 38 99t64 131q29 57 49 100t29 73q18 61 18 123q0 63 -18.5 114.5t-50 87.5t-74 55.5t-90.5 19.5q-44 0 -78.5 -11.5t-58.5 -30t-37 -41.5t-13 -47q0 -17 9.5 -41.5t20.5 -49.5t20.5 -47.5t9.5 -34.5q0 -36 -23 -60.5t-56 -24.5
q-21 0 -41 10.5t-35.5 31t-25 49.5t-9.5 66q0 55 25 107t71.5 92t113.5 64t150 24q88 0 157.5 -25t118 -67.5t74 -100t25.5 -122.5q0 -74 -33 -150q-17 -38 -47 -83.5t-76 -97.5q-144 -162 -178 -233q-31 -67 -39 -188zM440 196q48 0 80 -32t32 -80q0 -23 -9 -43t-24 -35
t-35.5 -24t-43.5 -9t-43 9t-35 24t-24 35t-9 43q0 24 9 44.5t24 35.5t35 23.5t43 8.5z" />
    <glyph glyph-name="at" unicode="@" horiz-adv-x="1886" 
d="M1408 958l-117 -399q-33 -112 -52.5 -183t-26.5 -101q-14 -62 -14 -96q0 -32 21.5 -54t53.5 -22q36 0 81.5 18t93 55.5t93.5 96.5t83 140q73 162 73 342q0 170 -83 316t-233 222q-75 38 -158 58t-174 20q-231 0 -429 -123q-198 -121 -314 -352q-115 -229 -115 -478
q0 -230 101 -418q100 -187 286 -284q184 -97 396 -97q263 0 475 141q214 142 329 412h58q-90 -275 -327 -444q-238 -170 -540 -170q-237 0 -442 113t-317 319q-113 206 -113 454q0 265 124 492q125 230 347 357q112 64 230.5 96.5t244.5 32.5q206 0 373 -86
q168 -86 254 -250q87 -164 87 -349q0 -184 -82 -363q-81 -179 -207 -261q-125 -82 -263 -82q-76 0 -114.5 35.5t-38.5 101.5q0 55 18 147q-150 -180 -237 -232q-89 -53 -157 -53q-35 0 -68 16.5t-58 47t-40 73.5t-15 96q0 146 94 325q95 180 251 293q116 83 206 83
q67 0 111.5 -34.5t60.5 -103.5l33 110zM1057 917q-46 0 -94 -31.5t-93 -85.5t-85.5 -125t-72.5 -150q-59 -145 -59 -232q0 -32 9.5 -58t25.5 -44.5t37 -29t43 -10.5q58 0 121.5 43.5t134.5 135.5q70 91 102 184q56 160 56 259q0 33 -10 59.5t-27 45.5t-39.5 29t-48.5 10z
" />
    <glyph glyph-name="A" unicode="A" horiz-adv-x="1479" 
d="M937 454h-525l-92 -214q-34 -78 -34 -118q0 -16 5.5 -29.5t22.5 -25t48 -19t81 -11.5v-37h-427v37q84 15 110 39t53.5 72.5t59.5 122.5l477 1116h35l472 -1128q29 -70 53.5 -112.5t50.5 -66t56.5 -32.5t72.5 -11v-37h-535v37q40 2 67 9t42.5 18t22 25t6.5 31
q1 22 -9.5 56.5t-30.5 82.5zM909 528l-230 548l-236 -548h466z" />
    <glyph glyph-name="B" unicode="B" horiz-adv-x="1366" 
d="M946 692q83 -18 141.5 -49t95.5 -73t54 -92.5t17 -106.5q0 -50 -16.5 -99.5t-47.5 -93t-75.5 -79t-100.5 -57.5q-111 -42 -340 -42h-640v37h51q84 0 122 54q23 35 23 149v876q0 125 -29 159q-39 44 -116 44h-51v37h586q164 0 263 -24q75 -18 132.5 -51t96.5 -77t59 -97.5
t20 -112.5q0 -102 -62 -182.5t-183 -119.5zM422 746q76 -14 189 -14q147 0 219 31q37 16 65.5 41t47.5 56t29 67t10 75q0 58 -24.5 110.5t-72.5 91.5t-119 62t-164 23q-102 0 -180 -22v-521zM422 98q115 -27 229 -27q91 0 160.5 22t116.5 60.5t70.5 90t23.5 110.5
q0 65 -25.5 121.5t-78 98t-132 65.5t-187.5 24q-63 0 -106.5 -2t-70.5 -7v-556z" />
    <glyph glyph-name="C" unicode="C" horiz-adv-x="1366" 
d="M1233 1387l31 -461h-31q-31 103 -75.5 177t-101.5 121t-126 69t-150 22q-136 0 -241 -66.5t-167 -204.5q-34 -76 -52 -172.5t-18 -216.5q0 -183 59 -319q30 -69 75.5 -121t103.5 -87t126.5 -53t142.5 -18q84 0 145 17t111 52t96.5 88t102.5 124l31 -20q-51 -90 -110 -156
t-128 -109t-149.5 -63.5t-173.5 -20.5q-338 0 -522 250q-138 186 -138 438q0 121 33 234.5t102 209.5q48 68 109.5 121.5t133 90t150.5 55.5t162 19q147 0 290 -72q44 -23 60 -22q32 0 53.5 26.5t30.5 67.5h35z" />
    <glyph glyph-name="D" unicode="D" horiz-adv-x="1479" 
d="M35 0v37h51q85 0 122 55q22 32 22 148v876q0 128 -28 159q-39 44 -116 44h-51v37h552q304 0 462 -69q159 -69 255 -230q97 -160 97 -372q0 -150 -48.5 -276t-144 -216.5t-238 -141.5t-329.5 -51h-606zM422 98q125 -28 213 -28q115 0 213.5 42.5t170.5 121t113 190.5
t41 251q0 140 -40.5 252t-113 190.5t-173 120.5t-219.5 42q-45 0 -96 -7.5t-109 -21.5v-1153z" />
    <glyph glyph-name="E" unicode="E" horiz-adv-x="1251" 
d="M428 1282v-536h298q65 0 105.5 11.5t63.5 36t32 61.5t12 88h37v-472h-37q-7 50 -14 81.5t-14 45.5q-9 18 -23 31.5t-36 23.5t-53 15t-73 5h-298v-447q0 -89 8 -110q4 -9 10 -17t17.5 -13.5t30 -8.5t46.5 -3h230q59 0 98.5 3.5t69 12t52 24t47.5 39.5q31 30 63 77t64 110
h40l-117 -340h-1045v37h48q19 0 40 4t39.5 13t33.5 22.5t21 31.5q12 31 12 131v881q0 128 -26 159q-36 40 -120 40h-48v37h1045v-297h-24q-11 54 -22 89t-25 58t-32 36.5t-43 24.5q-41 15 -141 15h-372z" />
    <glyph glyph-name="F" unicode="F" horiz-adv-x="1139" 
d="M419 1282v-533h247q43 0 73.5 8t51.5 29t33 57t19 92h37v-459h-37q-1 51 -10 87t-29 59t-53.5 33.5t-84.5 10.5h-247v-426q0 -48 2 -78t7.5 -49t16.5 -30.5t29 -21.5q43 -24 92 -24h49v-37h-582v37h48q85 0 122 49q24 31 24 154v876q0 48 -2 78t-7.5 49.5t-16 30.5
t-28.5 21q-44 24 -92 24h-48v37h1009v-298h-22q-20 73 -44.5 117t-60 68t-83.5 31.5t-114 7.5h-299z" />
    <glyph glyph-name="G" unicode="G" horiz-adv-x="1479" 
d="M1257 1387l35 -428h-35q-52 159 -137 241q-122 117 -311 117q-259 0 -394 -205q-113 -173 -113 -412q0 -194 75 -354q33 -71 79 -128t103 -97t123.5 -62t140.5 -22q75 0 144.5 19t135.5 56v392q0 52 -4 83.5t-11.5 50.5t-20 29t-28.5 18q-32 17 -114 17v38h525v-38h-25
q-34 0 -58 -7.5t-39.5 -28.5t-22.5 -60t-7 -102v-415q-60 -32 -116 -54.5t-113.5 -37t-118 -21.5t-128.5 -7q-393 0 -597 252q-153 189 -153 436q0 69 14 138.5t40 135.5t64 126.5t85 111.5q100 112 228.5 165t286.5 53q47 0 82 -3.5t68 -11t69.5 -20t86.5 -30.5
q55 -21 75 -21q19 0 32.5 17.5t16.5 68.5h37z" />
    <glyph glyph-name="H" unicode="H" horiz-adv-x="1479" 
d="M421 727h630v388q0 48 -2 78t-7.5 49.5t-16.5 31t-29 21.5q-44 24 -91 24h-48v37h581l-1 -37h-48q-19 0 -40 -4t-40 -13t-33.5 -22.5t-21.5 -32.5q-11 -33 -11 -132v-875q0 -48 2 -78t7.5 -49.5t16 -30.5t28.5 -21q43 -24 92 -24h48v-37h-580v37h48q82 0 121 49
q25 31 25 154v413h-630v-413q0 -48 2 -78t7.5 -49t16.5 -30.5t29 -21.5q43 -24 91 -24h49v-37h-581v37h48q85 0 122 49q24 31 24 154v875q0 48 -2 78t-7.5 49.5t-16 31t-28.5 21.5q-44 24 -92 24h-48v37h581v-37h-49q-20 0 -40.5 -4t-39 -13t-33 -22.5t-21.5 -32.5
q-12 -32 -12 -132v-388z" />
    <glyph glyph-name="I" unicode="I" horiz-adv-x="682" 
d="M632 37v-37h-581v37h48q85 0 122 49q24 31 24 154v876q0 48 -2 78t-7.5 49.5t-16 30.5t-28.5 21q-44 24 -92 24h-48v37h581v-37h-49q-84 0 -121 -49q-25 -31 -25 -154v-876q0 -48 2 -78t7.5 -49t16.5 -30.5t29 -21.5q43 -24 91 -24h49z" />
    <glyph glyph-name="J" unicode="J" horiz-adv-x="797" 
d="M204 1319v37h581v-37h-49q-84 0 -121 -49q-24 -32 -24 -154v-663q0 -155 -34 -248q-17 -47 -46 -89.5t-68.5 -75t-90 -52t-108.5 -19.5q-47 0 -84.5 13t-63.5 34t-40 48.5t-14 57.5q0 28 9 48t23.5 33t33 18.5t36.5 5.5q15 0 28.5 -3t28 -16.5t30 -40t35.5 -73.5
q22 -54 59 -54q13 0 26.5 7.5t24 25.5t17 46.5t6.5 70.5v926q0 48 -2 78t-7.5 49t-16.5 30.5t-29 21.5q-44 24 -91 24h-49z" />
    <glyph glyph-name="K" unicode="K" horiz-adv-x="1479" 
d="M612 752l500 -497q123 -123 210 -168q88 -44 174 -50v-37h-645v37q58 0 83.5 19.5t25.5 43.5q0 12 -1 21.5t-7.5 20.5t-21 28t-42.5 44l-468 463v-437q0 -48 2 -78t7.5 -49t16.5 -30.5t29 -21.5q43 -24 91 -24h46v-37h-578v37h48q85 0 122 49q24 31 24 154v876
q0 46 -1.5 76t-7.5 49.5t-16.5 31.5t-28.5 22q-44 24 -92 24h-48v37h578v-37h-46q-19 0 -39.5 -4t-39 -12.5t-33.5 -22t-22 -32.5q-12 -32 -12 -132v-415q39 32 89 78t102.5 97t104 102t93.5 94.5t70.5 75.5t36.5 43q27 40 27 70q0 23 -20.5 40.5t-71.5 17.5h-31v37h498v-37
q-44 -2 -80 -12q-18 -6 -40 -16t-48.5 -27t-58 -41.5t-69.5 -59.5z" />
    <glyph glyph-name="L" unicode="L" horiz-adv-x="1251" 
d="M1174 375l33 -7l-116 -368h-1050v37h51q85 0 123 56q21 31 21 148v875q0 128 -28 159q-39 44 -116 44h-51v37h614v-37q-55 0 -91.5 -5t-60 -15t-37 -23.5t-22.5 -29.5q-16 -31 -16 -153v-852q0 -35 2.5 -60t8.5 -41.5t16 -27t26 -16.5q24 -10 156 -10h99q155 0 219 23
q32 11 60 30t54.5 50.5t52 76.5t52.5 109z" />
    <glyph glyph-name="M" unicode="M" horiz-adv-x="1821" 
d="M838 0l-524 1141v-906q0 -125 27 -156q37 -42 117 -42h48v-37h-472v37h48q86 0 122 52q22 31 22 146v886q0 88 -20 130q-7 15 -19 27.5t-32.5 21.5t-49.5 14t-71 5v37h384l492 -1061l484 1061h384v-37h-47q-87 0 -123 -52q-22 -31 -22 -146v-886q0 -125 28 -156
q37 -42 117 -42h47v-37h-576v37h48q86 0 122 52q22 31 22 146v906l-523 -1141h-33z" />
    <glyph glyph-name="N" unicode="N" horiz-adv-x="1479" 
d="M-27 1356h368l829 -1017v782q0 125 -28 156q-38 42 -117 42h-47v37h472v-37h-48q-86 0 -122 -52q-22 -31 -22 -146v-1143h-36l-894 1092v-835q0 -125 27 -156q37 -42 117 -42h48v-37h-472v37h47q87 0 123 52q22 31 22 146v943q-30 35 -50 56t-38 34.5t-39 22t-52 19.5
q-29 9 -88 9v37z" />
    <glyph glyph-name="O" unicode="O" horiz-adv-x="1479" 
d="M749 1387q263 0 457 -201q194 -200 194 -500q0 -309 -195 -513t-472 -204q-281 0 -471 199t-190 515q0 323 220 527q191 177 457 177zM730 1314q-103 0 -183 -44t-134.5 -125.5t-83 -197.5t-28.5 -260q0 -143 28 -262t82.5 -204.5t134.5 -133t185 -47.5q94 0 174.5 36
t139.5 111.5t92.5 192.5t33.5 279q0 155 -27.5 276.5t-83 205.5t-138 128.5t-192.5 44.5z" />
    <glyph glyph-name="P" unicode="P" horiz-adv-x="1139" 
d="M420 635v-395q0 -128 28 -159q38 -44 115 -44h52v-37h-581v37h51q42 0 73.5 14t49.5 42q20 32 20 147v876q0 127 -27 159q-39 44 -116 44h-51v37h497q181 0 287 -38q52 -19 97 -51t79 -75.5t53.5 -96.5t19.5 -114q0 -83 -28 -151.5t-81.5 -118t-131.5 -77t-178 -27.5
t-228 28zM420 692q54 -10 94.5 -15t69.5 -5q52 0 98.5 21.5t81 60t55 91.5t20.5 116q0 74 -22 132.5t-61 99t-91.5 61.5t-113.5 21q-26 0 -58.5 -4.5t-72.5 -14.5v-564z" />
    <glyph glyph-name="Q" unicode="Q" horiz-adv-x="1479" 
d="M902 -15q103 -178 220 -259q119 -83 270 -95v-32q-136 4 -295 56q-155 49 -298 140q-138 88 -242 190q-144 58 -228 123q-124 97 -190.5 238t-66.5 335q0 303 197 505q196 201 477 201q267 0 460 -202q97 -102 146 -227.5t49 -280.5q0 -250 -139 -437
q-138 -188 -360 -255zM734 1310q-103 0 -183.5 -42t-136 -122.5t-84.5 -197.5t-29 -267q0 -142 28 -260t82.5 -203.5t135.5 -133t187 -47.5q103 0 184 41.5t137.5 120.5t86.5 193.5t30 259.5q0 162 -31.5 285t-89.5 206t-138.5 125t-178.5 42z" />
    <glyph glyph-name="R" unicode="R" horiz-adv-x="1366" 
d="M1384 0h-362l-459 634q-26 -1 -46.5 -1.5t-36.5 -0.5q-13 0 -28 0.5t-31 1.5v-394q0 -128 28 -159q38 -44 114 -44h53v-37h-581v37h51q85 0 123 56q21 31 21 147v876q0 128 -28 159q-39 44 -116 44h-51v37h494q214 0 318 -32q51 -15 95.5 -45t78 -71t53 -92t19.5 -109
q0 -63 -20 -117.5t-61.5 -99.5t-104.5 -78t-148 -52l280 -389q97 -135 165 -178q70 -44 180 -56v-37zM421 697q19 0 33 -0.5t23 -0.5q97 0 170.5 22.5t122.5 62.5t73.5 94.5t24.5 118.5q0 63 -21 115.5t-59.5 90.5t-92 59t-117.5 21q-29 0 -68 -4.5t-89 -14.5v-564z" />
    <glyph glyph-name="S" unicode="S" horiz-adv-x="1139" 
d="M939 1387v-469h-37q-18 135 -65 215q-23 40 -57.5 72t-75 54.5t-86 35t-91.5 12.5q-51 0 -95 -17.5t-76.5 -46.5t-50.5 -66.5t-18 -77.5q0 -56 26 -97.5t71.5 -76.5t107 -68t133.5 -71q81 -43 154 -84t128.5 -90.5t88.5 -113t33 -152.5q0 -76 -31.5 -144.5t-88 -120
t-135 -82t-172.5 -30.5q-35 0 -60 1t-48 4.5t-47.5 11t-58.5 20.5q-24 9 -49 16.5t-46 12.5t-35.5 8t-18.5 3q-25 0 -39.5 -15t-21.5 -62h-37v465h37q13 -73 30.5 -127.5t39.5 -91.5q22 -36 57 -67t78.5 -53.5t94 -35t103.5 -12.5q63 0 113 18t85 48.5t53.5 71t18.5 84.5
q0 65 -27 109.5t-72.5 79.5t-106 67t-127.5 72q-76 45 -146.5 85.5t-124.5 89t-86.5 110.5t-32.5 148q0 72 30 137t83 114t125.5 77.5t158.5 28.5q106 0 229 -53q54 -25 79 -25q26 0 42.5 15.5t26.5 62.5h37z" />
    <glyph glyph-name="T" unicode="T" horiz-adv-x="1251" 
d="M1185 1356v-318h-23q-8 64 -26.5 108.5t-48.5 72t-73 40t-100 12.5h-191v-1036q0 -125 27 -156q37 -42 117 -42h47v-37h-575v37h48q86 0 122 52q22 31 22 146v1036h-163q-62 0 -108 -9t-78 -34t-52 -71t-30 -119h-38v318h1123z" />
    <glyph glyph-name="U" unicode="U" horiz-adv-x="1479" 
d="M977 1319v37h480v-37h-51q-80 0 -123 -67q-21 -32 -21 -144v-550q0 -203 -41 -317q-26 -73 -74 -124.5t-111 -84.5t-138.5 -48.5t-157.5 -15.5q-221 0 -337 77q-73 48 -112.5 101.5t-58 118t-21.5 143t-3 178.5v530q0 63 -8.5 103t-26.5 62t-45.5 30t-65.5 8h-51v37h586
v-37h-52q-48 0 -77 -13.5t-44 -39.5t-19.5 -64t-4.5 -86v-591q0 -50 3 -99t12 -94.5t24.5 -86t40.5 -74.5q39 -54 104.5 -85.5t167.5 -31.5q66 0 126.5 15.5t111 43t87.5 65t56 82.5q39 91 39 307v549q0 128 -28 159q-39 44 -116 44h-51z" />
    <glyph glyph-name="V" unicode="V" horiz-adv-x="1479" 
d="M1454 1356v-37q-43 -8 -73.5 -23t-53.5 -39t-40.5 -57.5t-35.5 -76.5l-473 -1154h-37l-508 1169q-40 92 -55 110q-25 31 -61 48.5t-99 22.5v37h554v-37q-48 -5 -77.5 -13t-45.5 -19.5t-21.5 -26t-5.5 -32.5q0 -51 46 -156l345 -795l320 785q47 117 47 161
q0 31 -32.5 58.5t-111.5 37.5v37h418z" />
    <glyph glyph-name="W" unicode="W" horiz-adv-x="1933" 
d="M1917 1356v-37q-27 0 -48 -4.5t-38.5 -15t-32.5 -27.5t-30 -43q-19 -34 -63 -167l-378 -1093h-40l-309 867l-307 -867h-36l-403 1126q-46 128 -57 149q-20 38 -54 56.5t-94 18.5v37h502v-37h-24q-54 0 -81.5 -24t-27.5 -58q0 -17 10.5 -57.5t33.5 -103.5l267 -761
l225 647l-72 205q-16 37 -32.5 65t-38 47.5t-50 29.5t-68.5 10v37h528v-37h-36q-57 0 -82.5 -23.5t-25.5 -65.5q0 -51 45 -178l260 -737l258 747q44 126 44 172q0 47 -42 66t-108 19v37h405z" />
    <glyph glyph-name="X" unicode="X" horiz-adv-x="1479" 
d="M836 751l291 -434q61 -91 105.5 -147.5t73.5 -80.5q58 -47 149 -52v-37h-582v37q69 2 101.5 21t32.5 56q0 13 0.5 20.5t-5 19.5t-19 33t-40.5 61l-230 348l-284 -364q-24 -30 -36.5 -48t-18.5 -30t-7 -20.5t-1 -19.5q0 -16 6 -29.5t21 -23.5t40 -16.5t63 -7.5v-37h-481
v37q63 5 111.5 30t94.5 61q57 45 128 135l320 404l-267 391q-110 159 -185 208q-77 50 -175 53v37h627v-37q-40 -2 -67 -9t-43 -17.5t-22.5 -23.5t-6.5 -27q0 -38 48 -108l208 -311l241 305q22 28 34.5 45t18.5 29t7 21t1 20q0 23 -15 41t-35 25q-11 4 -35 6.5t-60 3.5v37
h481v-37q-34 -2 -61 -8.5t-49.5 -16.5t-42.5 -24t-39 -31q-43 -38 -127 -144z" />
    <glyph glyph-name="Y" unicode="Y" horiz-adv-x="1479" 
d="M976 1356h473v-37h-26q-12 0 -32.5 -6t-43.5 -17t-47 -28t-44 -38q-21 -22 -45.5 -57t-55.5 -83l-327 -515v-340q0 -125 28 -156q37 -42 120 -42h44v-37h-576v37h48q86 0 122 52q22 31 22 146v321l-372 568q-33 51 -55.5 81.5t-34.5 43.5q-6 6 -20 17.5t-35 23.5
t-46.5 20.5t-53.5 8.5v37h580v-37h-30q-22 0 -44.5 -5t-40.5 -16t-29.5 -27.5t-11.5 -39.5q0 -36 61 -130l283 -437l266 418q60 94 60 140q-2 21 -9 39t-22 31t-41 20t-65 7v37z" />
    <glyph glyph-name="Z" unicode="Z" horiz-adv-x="1251" 
d="M1178 1356l-891 -1274h556q128 0 196 56q69 56 122 227l33 -6l-64 -359h-1104v37l870 1238h-434q-54 0 -91.5 -6t-64.5 -17.5t-44.5 -28.5t-30.5 -40q-25 -42 -46 -166h-38l28 339h1003z" />
    <glyph glyph-name="bracketleft" unicode="[" horiz-adv-x="682" 
d="M608 -406h-440v1793h440v-79h-290v-1636h290v-78z" />
    <glyph glyph-name="backslash" unicode="\" horiz-adv-x="569" 
d="M83 1422l490 -1450h-80l-490 1450h80z" />
    <glyph glyph-name="bracketright" unicode="]" horiz-adv-x="682" 
d="M75 1387h440v-1794h-440v79h290v1636h-290v79z" />
    <glyph glyph-name="asciicircum" unicode="^" horiz-adv-x="961" 
d="M498 1384l425 -717h-92l-350 586l-350 -586h-94l431 717h30z" />
    <glyph glyph-name="underscore" unicode="_" 
d="M1042 -442h-1059v84h1059v-84z" />
    <glyph glyph-name="grave" unicode="`" horiz-adv-x="682" 
d="M118 1390h223l106 -345h-35z" />
    <glyph glyph-name="a" unicode="a" horiz-adv-x="909" 
d="M583 132q-141 -110 -177 -126q-53 -25 -115 -25q-47 0 -87 17t-69 48t-45.5 74.5t-16.5 96.5q0 39 10.5 72t31.5 62.5t53.5 56.5t76.5 53q103 61 338 146v36q0 69 -11.5 115t-33 73.5t-53.5 39t-72 11.5q-32 0 -57.5 -9.5t-43.5 -25t-27.5 -36t-9.5 -41.5l2 -58
q0 -46 -23.5 -71t-61.5 -25q-37 0 -60.5 26t-23.5 71q0 42 22.5 83t65 74t105 53t142.5 20q106 0 180 -31t107 -107q18 -44 18 -176v-311q0 -66 1.5 -106t3.5 -55q5 -29 16.5 -39t26.5 -10q10 0 19 3t21 12t28 24.5t41 40.5v-56q-113 -150 -214 -150q-48 0 -78 34t-30 116z
M583 197v349q-76 -30 -124.5 -51t-70.5 -34q-79 -45 -113 -92.5t-34 -104.5q0 -36 11.5 -66.5t31 -53t45.5 -35t54 -12.5q76 0 200 100z" />
    <glyph glyph-name="b" unicode="b" 
d="M315 758q134 185 287 185q69 0 132.5 -31t112 -89.5t77.5 -141.5t29 -188q0 -245 -162 -393q-140 -128 -310 -128q-158 0 -331 116v949q0 154 -8 192q-7 36 -23 49t-40 13q-29 0 -70 -16l-14 35l275 112h45v-664zM315 694v-548q103 -101 217 -101q45 0 89 25.5t79.5 75
t57.5 122.5t22 168q0 87 -21.5 155t-57.5 114.5t-82.5 71t-95.5 24.5q-24 0 -47 -4t-47 -15.5t-52 -32.5t-62 -55z" />
    <glyph glyph-name="c" unicode="c" horiz-adv-x="909" 
d="M842 348q-19 -91 -57 -161t-89 -118t-112 -72.5t-126 -24.5q-77 0 -147 34t-123.5 97t-85.5 152.5t-32 201.5q0 108 35 197.5t94.5 153.5t139 99.5t168.5 35.5q67 0 123.5 -20t97.5 -52t64.5 -71t23.5 -77t-24 -61.5t-69 -23.5q-23 0 -42.5 5t-34 18t-23.5 36t-12 59
q-5 59 -39.5 89.5t-97.5 30.5q-59 0 -104 -26.5t-76 -72t-46.5 -106t-15.5 -128.5q0 -80 20.5 -154.5t59 -132.5t93.5 -93t125 -35q42 0 80 10.5t73 36.5t67.5 71.5t62.5 115.5z" />
    <glyph glyph-name="d" unicode="d" 
d="M711 103q-67 -70 -130.5 -100.5t-138.5 -30.5t-142.5 33.5t-119 93t-82 141.5t-30.5 180q0 197 124 360q125 164 319 164q120 0 200 -77v300q0 18 1.5 39.5t-3.5 40.5t-20 31.5t-49 12.5q-27 0 -69 -16l-13 35l273 112h45v-1059q0 -163 7 -197q8 -35 24.5 -49t38.5 -14
q26 0 72 17l11 -35l-272 -113h-46v131zM711 173v472q-5 57 -25.5 101t-50 74.5t-65 46t-71.5 15.5q-53 0 -98 -27.5t-78.5 -78t-52.5 -121t-19 -156.5q0 -101 24.5 -179t64.5 -131t91 -80t104 -27q91 0 176 91z" />
    <glyph glyph-name="e" unicode="e" horiz-adv-x="909" 
d="M218 571q0 -102 27 -183t73 -137.5t106.5 -86t127.5 -29.5q90 0 156.5 49.5t111.5 169.5l31 -20q-11 -67 -42 -132t-79.5 -116t-113 -82.5t-140.5 -31.5q-82 0 -154.5 33.5t-127 95t-86.5 149t-32 196.5q0 119 32.5 211.5t89.5 156.5t134.5 97t166.5 33q76 0 140.5 -26.5
t111.5 -75.5t73.5 -117.5t26.5 -153.5h-633zM218 629h424q-4 88 -21 124q-25 56 -74.5 88t-103.5 32q-41 0 -79 -16.5t-69 -48t-51.5 -76.5t-25.5 -103z" />
    <glyph glyph-name="f" unicode="f" horiz-adv-x="682" 
d="M422 844v-602q0 -128 28 -162q38 -44 99 -44h83v-36h-547v36h41q40 0 72.5 19.5t45.5 54.5q13 33 13 132v602h-178v72h178v60q0 136 44 232q22 47 56.5 86t78.5 67t95.5 43.5t107.5 15.5q39 0 83 -13t81.5 -35.5t62 -53.5t24.5 -67q0 -15 -7 -29.5t-18.5 -26.5
t-26.5 -19.5t-30 -7.5q-12 0 -23.5 3t-24.5 12.5t-28.5 26.5t-34.5 45t-35.5 46t-33 28.5t-33 14.5t-35.5 4q-46 0 -78 -24.5t-46 -76.5q-14 -53 -14 -265v-66h236v-72h-236z" />
    <glyph glyph-name="g" unicode="g" 
d="M309 334q-85 42 -129.5 114.5t-44.5 162.5q0 68 27 128.5t76 105.5t115.5 71.5t146.5 26.5q132 0 227 -64h194q22 0 33.5 -0.5t17 -2t6.5 -3.5t3 -5q6 -9 6 -32q0 -15 -0.5 -24.5t-6 -14.5t-19 -6.5t-40.5 -1.5h-119q56 -73 56 -184q0 -63 -25.5 -119.5t-72.5 -98.5
t-114 -67t-149 -25q-67 0 -139 20q-45 -38 -60 -66.5t-15 -48.5q0 -15 6 -26t28.5 -18.5t66.5 -12t120 -6.5q103 -3 169.5 -6t97.5 -8q46 -6 84 -24t64.5 -45t41 -62t14.5 -76q0 -113 -106 -212q-157 -146 -407 -146q-69 0 -140 15t-129 40.5t-95 60.5t-37 75q0 15 4.5 30.5
t14 33t25 38.5t37.5 49q7 9 102 108q-52 31 -73.5 55.5t-21.5 55.5q0 18 5 37.5t22 44.5t48.5 57t84.5 76zM483 895q-36 0 -68 -14.5t-55.5 -44t-37 -75t-13.5 -106.5q0 -68 13.5 -125t39.5 -98.5t63 -64.5t84 -23q38 0 70 14t55 43t36 73.5t13 105.5q0 67 -13.5 124.5
t-39 100t-62.5 66.5t-85 24zM299 0q-95 -103 -95 -176q0 -33 27.5 -60t74.5 -46t110.5 -29.5t134.5 -10.5q90 0 156.5 18t109.5 46.5t64 64t21 70.5q0 26 -11 44t-39.5 29.5t-78.5 18t-128 8.5q-113 3 -199 9t-147 14z" />
    <glyph glyph-name="h" unicode="h" 
d="M333 1422v-670q32 31 63.5 65t67.5 62t78.5 46t96.5 18q73 0 119 -31.5t72 -84t35.5 -119.5t9.5 -138v-363q0 -46 1.5 -77.5t14 -51t40 -29.5t80.5 -13v-36h-450v36h21q45 0 70 8t38 27.5t16 52.5t3 83v363q0 43 -1.5 87.5t-14.5 81t-43.5 60t-87.5 23.5q-25 0 -50 -5.5
t-52.5 -20t-58.5 -40t-68 -65.5v-484q0 -49 2 -76.5t7.5 -42.5t15 -22t24.5 -15q14 -8 39 -11.5t60 -3.5v-36h-454v36q38 0 64.5 4.5t43.5 21.5t24.5 51.5t7.5 93.5v829q0 155 -8 193q-7 36 -22.5 49t-41.5 13q-23 0 -68 -16l-14 35l274 112h46z" />
    <glyph glyph-name="i" unicode="i" horiz-adv-x="569" 
d="M297 1422q21 0 39.5 -8t32 -21.5t21.5 -32t8 -39.5t-8 -39.5t-21.5 -32.5t-32 -22t-39.5 -8t-39.5 8t-32.5 22t-22 32.5t-8 39.5t8 39.5t21.5 32t32.5 21.5t40 8zM380 943v-736q0 -44 3 -71.5t9 -44.5t15.5 -25.5t21.5 -15.5q26 -14 90 -14v-36h-445v36q34 0 55.5 3
t35 10t21 17.5t14.5 25.5q14 31 14 115v353q0 87 -3 137t-10.5 75t-22 31.5t-36.5 6.5q-28 0 -68 -15l-14 36l276 112h44z" />
    <glyph glyph-name="j" unicode="j" horiz-adv-x="569" 
d="M296 1423q21 0 40 -8t33 -22t22 -33t8 -40t-8 -39.5t-22 -32.5t-33 -22t-40 -8t-39.5 8t-32.5 22t-22 32.5t-8 39.5t8 40t22 33t32.5 22t39.5 8zM382 943v-922q0 -119 -26.5 -206t-74.5 -144t-114 -85t-145 -28q-47 0 -80.5 9.5t-55.5 24t-32.5 32.5t-10.5 35
q0 18 6.5 33.5t18 27t26 18t31.5 6.5q12 0 21.5 -0.5t21.5 -6t29.5 -18.5t45.5 -38q49 -44 82 -44q23 0 46.5 18t34.5 63q5 22 8 68.5t3 119.5v652q0 89 -3 139.5t-11 75.5t-22 31t-36 6q-28 0 -68 -15l-14 36l276 112h43z" />
    <glyph glyph-name="k" unicode="k" 
d="M335 1422v-909l233 210q32 29 51 47t28.5 29.5t12 18.5t2.5 15q0 20 -16.5 34.5t-54.5 16.5v32h398v-32q-42 -1 -74.5 -6.5t-62 -17.5t-58 -32.5t-61.5 -50.5l-235 -217l235 -297q97 -123 132 -156q22 -22 38.5 -35.5t34 -21.5t40 -11t58.5 -3v-36h-445v36
q38 1 51.5 11.5t13.5 29.5q0 24 -40 74l-281 356v-301q0 -46 3 -74t9 -44.5t15 -24.5t21 -14q21 -11 100 -13v-36h-466v36q47 0 76.5 6t46.5 23.5t23 50t6 85.5v834q0 80 -1.5 128.5t-5.5 65.5q-8 36 -23.5 49.5t-41.5 13.5q-20 0 -63 -17l-17 35l272 112h46z" />
    <glyph glyph-name="l" unicode="l" horiz-adv-x="569" 
d="M379 1422v-1215q0 -44 3 -71.5t9 -44t15.5 -25.5t23.5 -16q24 -14 97 -14v-36h-449v36q45 0 71.5 7t41 26t18.5 52t4 86v832q0 78 -1.5 125.5t-5.5 64.5q-8 36 -23 49t-39 13q-27 0 -66 -16l-17 35l273 112h45z" />
    <glyph glyph-name="m" unicode="m" horiz-adv-x="1593" 
d="M336 748q100 100 118 115q45 38 97 59t103 21q87 0 148.5 -49.5t82.5 -145.5q103 119 174 157t146 38q50 0 94 -17t76.5 -56.5t51.5 -105.5t19 -163v-394q0 -45 2.5 -77.5t15.5 -53.5t41 -30.5t79 -9.5v-36h-452v36h19q50 0 81 16t44 58q4 15 4 97v394q0 66 -10 108.5
t-29.5 68t-47.5 35.5t-65 10q-27 0 -52.5 -6t-53.5 -21t-60.5 -39.5t-71.5 -61.5l2 -488q0 -49 2 -76.5t7.5 -42t15.5 -21.5t25 -16q14 -8 39 -11.5t60 -3.5v-36h-463v36q54 0 84.5 7.5t44.5 27t17 52.5t3 84v394q0 64 -11.5 107t-32.5 69t-49.5 37.5t-62.5 11.5
q-33 0 -68 -12.5t-66.5 -31t-57.5 -41t-43 -43.5v-491q0 -47 3 -74.5t9 -44t15.5 -24.5t21.5 -15q25 -13 100 -13v-36h-453v36q46 0 73.5 7t42 25.5t19 52t4.5 86.5v350q0 89 -3 139.5t-11 76t-22 31.5t-36 6q-28 0 -67 -15l-15 36l276 112h43v-195z" />
    <glyph glyph-name="n" unicode="n" 
d="M331 749q161 194 307 194q51 0 94 -17t75 -57t50 -106t18 -165v-391q0 -59 6.5 -93t22.5 -51.5t43 -22t68 -4.5v-36h-453v36h19q45 0 70.5 8t38.5 27.5t16.5 52.5t3.5 83v375q0 125 -32.5 181.5t-109.5 56.5q-119 0 -237 -130v-483q0 -91 11 -115q7 -15 15.5 -26
t23 -17.5t38 -9.5t61.5 -3v-36h-453v36h20q36 0 59 8t36.5 28t18.5 52.5t5 82.5v340q0 163 -8 201q-7 36 -22.5 49t-41.5 13q-28 0 -67 -15l-15 36l276 112h43v-194z" />
    <glyph glyph-name="o" unicode="o" 
d="M512 943q97 0 178 -38t139.5 -102t91 -149t32.5 -179q0 -99 -33.5 -189.5t-93.5 -160.5t-143 -111.5t-182 -41.5q-97 0 -176.5 40t-136.5 106.5t-88 152.5t-31 178q0 93 32 182t90.5 158.5t140 111.5t180.5 42zM481 878q-44 0 -84.5 -18.5t-72 -60t-50.5 -107t-19 -159.5
q0 -97 20.5 -186t58 -156.5t91 -107.5t119.5 -40q48 0 88.5 18.5t70.5 60t47 109.5t17 167t-19 186t-55.5 152.5t-90 103.5t-121.5 38z" />
    <glyph glyph-name="p" unicode="p" 
d="M-2 825l282 114h38v-214q36 60 71.5 102t71.5 67.5t73.5 37t76.5 11.5q78 0 141.5 -36t108 -97.5t69 -143.5t24.5 -175q0 -104 -29.5 -198.5t-84 -165.5t-131.5 -113t-173 -42q-33 0 -61 3t-53.5 12t-50.5 24.5t-53 41.5v-279q0 -49 2.5 -77.5t8.5 -44t16 -23.5t24 -15
q28 -15 104 -15v-37h-480v37h25q40 0 74 11t49 46q11 25 11 124v866q0 53 -3.5 84.5t-12.5 48.5t-25 22.5t-40 5.5q-22 0 -61 -14zM318 666v-342q0 -112 9 -146q7 -29 24.5 -55.5t44.5 -46.5t61.5 -32t75.5 -12q58 0 103.5 27.5t76.5 76t47 115.5t16 146q0 86 -17.5 159.5
t-49.5 127t-77 84t-100 30.5q-25 0 -48 -8t-48 -24.5t-53.5 -41.5t-64.5 -58z" />
    <glyph glyph-name="q" unicode="q" 
d="M875 943v-1178q0 -45 3 -72t9 -42.5t15 -23t22 -14.5q26 -14 100 -14v-37h-462v37h19q34 0 58.5 4.5t40.5 21t23 50t7 90.5v394q-91 -107 -159 -148q-68 -39 -141 -39q-66 0 -127.5 31.5t-109 89.5t-76.5 140t-29 184q0 116 37.5 213t101.5 166.5t150 108t182 38.5
q115 0 191 -64q29 14 57 30t54 34h34zM710 222v430q0 48 -11.5 88.5t-36 70t-63 46t-91.5 16.5q-55 0 -104.5 -23.5t-86.5 -71t-59 -119.5t-22 -169q0 -93 22 -164t60 -118t88.5 -71t107.5 -24q60 0 105.5 25.5t90.5 83.5z" />
    <glyph glyph-name="r" unicode="r" horiz-adv-x="682" 
d="M332 943v-206q116 206 236 206q27 0 50 -9t40.5 -24.5t27 -35.5t9.5 -42q0 -39 -26 -66t-62 -27q-17 0 -38 11t-41.5 23.5t-37.5 23.5t-26 11q-13 0 -29 -11.5t-33 -32t-35 -49t-35 -62.5v-439q0 -41 5 -74t21.5 -56t48.5 -35.5t85 -12.5v-36h-469v36q44 0 72 6t44 24
t22 51.5t6 88.5v355q0 162 -7 190q-13 59 -67 59q-31 0 -70 -15l-10 36l277 112h42z" />
    <glyph glyph-name="s" unicode="s" horiz-adv-x="797" 
d="M656 943v-312h-33q-19 74 -43 122.5t-54.5 77.5t-68 41t-83.5 12q-35 0 -63.5 -10.5t-49 -27t-32 -38t-11.5 -43.5q0 -28 8 -52t33.5 -49.5t73 -54.5t127.5 -68q74 -36 124.5 -71t82 -70t45 -72.5t13.5 -77.5q0 -63 -26.5 -114.5t-69.5 -87.5t-98 -56t-112 -20
q-42 0 -90 7t-102 23q-17 5 -30 7.5t-24 2.5q-22 0 -36 -26h-33v327h33q14 -70 42 -123t65.5 -88t83 -53t93.5 -18q34 0 62.5 11t49.5 29.5t32.5 43.5t11.5 54q0 34 -10 61.5t-37 53.5t-74 54.5t-121 65.5q-74 36 -119.5 67t-71.5 62.5t-35 66t-9 78.5q0 56 20.5 104.5
t57.5 84t88 56t112 20.5q19 0 49 -6t60.5 -13t55.5 -13t34 -6q16 0 25 7t21 31h33z" />
    <glyph glyph-name="t" unicode="t" horiz-adv-x="569" 
d="M330 1217v-301h214v-70h-214v-594q0 -45 7 -74.5t19 -46.5t28.5 -23.5t36.5 -6.5q33 0 64 20.5t48 60.5h39q-18 -49 -43.5 -86t-55.5 -61.5t-64 -37t-68 -12.5q-23 0 -46.5 6.5t-44 19t-37.5 30.5t-27 42q-21 48 -21 147v616h-145v33q55 22 112.5 74.5t102.5 124.5
q11 19 27.5 53.5t36.5 85.5h31z" />
    <glyph glyph-name="u" unicode="u" 
d="M867 916v-555q0 -161 7 -195q8 -35 24.5 -49t38.5 -14q30 0 70 17l14 -35l-274 -113h-45v194q-119 -128 -180 -161q-62 -33 -131 -33q-77 0 -133 43.5t-79 115.5q-22 69 -22 198v409q0 45 -7.5 73t-24.5 43t-44.5 20t-66.5 5h-12v37h321v-613q0 -66 12.5 -107t33.5 -63.5
t48.5 -30t57.5 -7.5q21 0 45.5 6t52 21t59.5 40t70 63v519q0 39 -6 64.5t-22.5 41t-45 22t-73.5 7.5v37h312z" />
    <glyph glyph-name="v" unicode="v" 
d="M17 916h431v-37h-28q-39 0 -59.5 -19t-20.5 -51q0 -35 21 -83l213 -506l214 525q23 57 23 85q0 29 -24.5 39t-80.5 10v37h299v-37q-32 -3 -52.5 -11t-34.5 -23t-25 -36.5t-23 -50.5l-325 -786h-41l-327 773q-15 36 -28.5 59.5t-31 38.5t-41 23t-59.5 13v37z" />
    <glyph glyph-name="w" unicode="w" horiz-adv-x="1479" 
d="M13 916h384v-37q-53 -4 -69.5 -19t-16.5 -43q0 -30 17 -75l196 -527l197 429l-52 135q-10 25 -20.5 43.5t-26.5 30.5t-39.5 18t-58.5 8v37h436v-37q-61 -3 -91.5 -19t-30.5 -58q0 -22 8 -41l208 -526l193 507q20 54 20 86q0 19 -19.5 34t-76.5 17v37h289v-37
q-88 -14 -128 -118l-306 -789h-41l-229 585l-267 -585h-37l-294 770q-14 37 -27.5 60.5t-29.5 38t-37 23t-51 15.5v37z" />
    <glyph glyph-name="x" unicode="x" 
d="M27 916h431v-37q-42 0 -58 -14t-16 -37q0 -10 4 -20.5t12.5 -24.5t21.5 -33t30 -46l65 -104l75 104q72 99 72 125q0 21 -17 35.5t-55 14.5v37h310v-37q-29 -2 -52.5 -10.5t-48 -28t-52.5 -52.5t-66 -84l-125 -167l228 -328q43 -62 70.5 -96.5t49 -51t42.5 -20.5t51 -5
v-36h-432v36q38 0 63.5 15t25.5 42q0 22 -64 116l-134 196l-147 -196q-68 -90 -68 -108q0 -24 22.5 -43.5t67.5 -21.5v-36h-299v36q21 3 38.5 10t38 25.5t47 51t67.5 86.5l192 255l-174 252q-38 55 -65 87.5t-50 49t-46.5 21.5t-54.5 5v37z" />
    <glyph glyph-name="y" unicode="y" 
d="M12 916h427v-37h-21q-45 0 -67.5 -19.5t-22.5 -48.5q0 -39 33 -108l223 -462l205 506q17 42 17 81q0 12 -3 21t-12.5 16t-28 10.5t-48.5 3.5v37h298v-37q-26 -3 -43 -7.5t-31.5 -18t-28 -40t-32.5 -72.5l-373 -914q-27 -66 -64 -116.5t-78 -84t-84.5 -51t-83.5 -17.5
q-30 0 -54.5 9.5t-42.5 25t-28 35.5t-10 42q0 42 27.5 67.5t75.5 25.5q11 0 32.5 -6t44 -12.5t40.5 -12.5t23 -6q15 0 31.5 7t34 24t35.5 46.5t36 73.5l65 159l-329 691q-5 11 -16.5 29.5t-24.5 37.5t-26 35t-22 22q-21 16 -74 28v37z" />
    <glyph glyph-name="z" unicode="z" horiz-adv-x="909" 
d="M860 281v-281h-819v36l608 810h-300q-50 0 -79.5 -3t-47.5 -9.5t-28.5 -18t-20.5 -29.5q-26 -48 -31 -124h-40v254h774v-37l-614 -812h334q54 0 88 4t56 13.5t34.5 24.5t24.5 37q16 31 27 135h34z" />
    <glyph glyph-name="braceleft" unicode="{" horiz-adv-x="983" 
d="M841 -407v-35q-83 11 -152 47t-118.5 88.5t-77.5 117t-28 132.5q0 33 7 78t16 90t16 85t7 63q0 35 -16 70t-45.5 64t-71.5 49.5t-95 27.5v41q53 7 95.5 27t72 49t45 64t15.5 71q0 24 -7 63.5t-16 84t-16 89.5t-7 79q0 68 28 132.5t77.5 116.5t118.5 88t152 47v-35
q-59 -14 -101.5 -37.5t-70 -54t-41 -66t-13.5 -73.5q0 -26 7 -68t15.5 -87.5t15.5 -89.5t7 -75q0 -50 -18.5 -100t-55.5 -95.5t-92.5 -83.5t-128.5 -64q72 -26 127 -65.5t92.5 -86t56.5 -97t19 -99.5q0 -31 -7 -75t-15.5 -89.5t-15.5 -87.5t-7 -68q0 -38 13.5 -73.5t41 -66
t70 -54t101.5 -38.5z" />
    <glyph glyph-name="bar" unicode="|" horiz-adv-x="410" 
d="M244 1422v-1864h-83v1864h83z" />
    <glyph glyph-name="braceright" unicode="}" horiz-adv-x="983" 
d="M177 1387v35q83 -11 152 -47t119 -88.5t77.5 -117t27.5 -132.5q0 -33 -7 -77.5t-16 -89.5t-16 -84.5t-7 -63.5q0 -36 15.5 -71t45 -64t72 -49t95.5 -27v-41q-53 -7 -95 -27t-71.5 -49t-45.5 -64t-16 -71q0 -23 7 -63t16 -85t16 -90t7 -78q0 -67 -27.5 -131.5t-77.5 -117
t-119 -89t-152 -47.5v35q117 29 171.5 92t54.5 140q0 26 -7 67.5t-16 87t-16 89.5t-7 75q0 51 18.5 101.5t56 95.5t92.5 83t129 64q-72 26 -127 65t-92.5 85.5t-57 97t-19.5 100.5q0 31 7 75t16 89.5t16 87.5t7 68q0 38 -13.5 73.5t-41 66t-70.5 54t-101 37.5z" />
    <glyph glyph-name="asciitilde" unicode="~" horiz-adv-x="1108" 
d="M1042 675h45q-2 -66 -22 -117.5t-53 -87t-76.5 -54t-93.5 -18.5q-23 0 -48 3.5t-51 11.5t-94.5 34.5t-179.5 71.5q-157 64 -219 64q-70 0 -118 -43t-68 -140h-44q3 68 23 120t52 87t73 53t86 18q42 0 90 -14q52 -15 120 -40.5t153 -62.5t144.5 -54.5t94.5 -17.5
q75 0 126 47.5t60 138.5z" />
    <glyph glyph-name="Euro" unicode="&#x20ac;" 
d="M847 737h-574q-3 -42 -3 -83h552l-23 -78h-527q4 -114 29 -208.5t67 -163t100 -106.5t128 -38q134 0 224 69q55 41 137 156l31 -20q-43 -69 -82 -117t-74 -77q-116 -95 -276 -95q-104 0 -188 41t-144.5 118t-97.5 188.5t-48 252.5h-101l23 78h74v16q0 15 0.5 31.5
t1.5 35.5h-99l23 78h84q34 236 162 391q147 178 376 178q171 0 340 -88v-299h-39q-26 321 -301 321q-71 0 -128.5 -34.5t-101 -99.5t-72 -158t-41.5 -211h591z" />
    <glyph glyph-name="quotesinglbase" unicode="&#x201a;" horiz-adv-x="682" 
d="M203 -341v44q51 17 91 44.5t68 61.5t42.5 73t14.5 78q0 15 -7 28t-16 13q-3 0 -12 -4.5t-20.5 -10t-25.5 -10t-28 -4.5q-49 0 -78 29t-29 80q0 25 10 46.5t27.5 37.5t41 25.5t50.5 9.5q32 0 62.5 -15t54 -42.5t38 -66.5t14.5 -86q0 -51 -17.5 -100t-54 -91.5t-92.5 -78.5
t-134 -61z" />
    <glyph glyph-name="florin" unicode="&#x192;" 
d="M687 875h178l-17 -66h-174q-26 -135 -69 -311t-103 -397q-94 -340 -205 -449q-85 -83 -173 -83q-57 0 -89.5 30t-32.5 75q0 39 23.5 64t53.5 25q26 0 45.5 -18t19.5 -38q0 -10 -4 -18.5t-8.5 -15.5t-8 -13t-3.5 -10q0 -8 7 -14.5t18 -6.5q21 0 41 10t39.5 38t38 77
t37.5 126q3 11 24.5 114t61.5 301q4 17 34.5 145t88.5 369h-177l15 66q52 4 81.5 7t45.5 8t23.5 12.5t16.5 19.5q26 35 60 134q74 214 140 272q67 59 147 59q31 0 56.5 -9t43.5 -24t27.5 -35.5t9.5 -43.5q0 -35 -20 -56t-48 -21q-26 0 -44.5 17.5t-18.5 38.5q0 7 3.5 16.5
t7.5 18t7.5 16t3.5 10.5q0 11 -9 18.5t-26 7.5q-20 0 -37 -9t-30.5 -24t-23 -34.5t-13.5 -40.5q-14 -61 -30 -150t-34 -208z" />
    <glyph glyph-name="quotedblbase" unicode="&#x201e;" horiz-adv-x="909" 
d="M74 -341v44q51 17 91 44.5t68 61.5t42.5 73t14.5 78q0 15 -7 28t-16 13q-3 0 -12 -4.5t-20.5 -10t-25.5 -10t-28 -4.5q-49 0 -78 29t-29 80q0 25 10 46.5t27.5 37.5t41 25.5t50.5 9.5q32 0 62.5 -15t54 -42.5t38 -66.5t14.5 -86q0 -51 -17.5 -100t-54 -91.5t-92.5 -78.5
t-134 -61zM543 -341v44q51 17 91 44.5t68 61.5t42.5 73t14.5 78q0 15 -7 28t-16 13q-3 0 -12 -4.5t-20.5 -10t-25.5 -10t-28 -4.5q-49 0 -78 29t-29 80q0 25 10 46.5t27.5 37.5t41 25.5t50.5 9.5q32 0 62.5 -15t54 -42.5t38 -66.5t14.5 -86q0 -51 -17.5 -100t-54 -91.5
t-92.5 -78.5t-134 -61z" />
    <glyph glyph-name="ellipsis" unicode="&#x2026;" horiz-adv-x="2048" 
d="M341 194q23 0 43 -8.5t35 -23.5t24 -35.5t9 -43.5t-9 -43t-24 -35t-35 -24t-43 -9t-43 9t-35 24t-24 35t-9 43q0 24 9 44t24 35t35 23.5t43 8.5zM1024 194q23 0 43 -9t35 -24t24 -35t9 -43t-9 -43t-24 -35t-35 -24t-43 -9t-43 9t-35 24t-24 35t-9 43q0 24 9 44t24 35
t35 23.5t43 8.5zM1707 194q23 0 43 -9t35 -24t24 -35t9 -43t-9 -43t-24 -35t-35 -24t-43 -9t-43 9t-35 24t-24 35t-9 43q0 48 31.5 79.5t79.5 31.5z" />
    <glyph glyph-name="dagger" unicode="&#x2020;" 
d="M524 -421h-37q-2 220 -10 394t-22 308q-21 199 -69 378q26 22 44 44t29.5 49t18 61.5t9.5 82.5q-32 -4 -65 -12.5t-67 -22.5q-106 -44 -153 -44q-45 0 -73 26.5t-28 68.5q0 21 8 39t21.5 31.5t32.5 21t41 7.5q25 0 46 -6q5 -2 31 -13t74 -31q60 -26 132 -30
q-1 25 -3 41.5t-6.5 31.5t-11 32t-16.5 43q-27 64 -41 112.5t-13 81.5q0 29 9 53t24 41t35.5 26.5t43.5 9.5q21 0 40.5 -10.5t34.5 -28t24.5 -41t9.5 -50.5q0 -18 -2.5 -34t-8.5 -36.5t-16.5 -48t-26.5 -67.5q-35 -86 -39 -156q70 6 132 30q50 20 78.5 30.5t36.5 12.5
q22 6 45 6q48 0 77.5 -28t29.5 -70q0 -40 -29 -68t-74 -28q-29 0 -69 12t-96 35q-26 10 -41 16t-27.5 9t-26.5 4.5t-36 3.5q2 -48 8.5 -83.5t18.5 -62.5t29.5 -48.5t43.5 -42.5q-24 -92 -40.5 -182.5t-26.5 -181.5q-19 -180 -33 -716z" />
    <glyph glyph-name="daggerdbl" unicode="&#x2021;" 
d="M530 976q4 -34 9.5 -57t15.5 -41t26.5 -34.5t42.5 -37.5q-50 -74 -72 -144q-22 -69 -22 -178q0 -100 21 -169q11 -34 29 -70.5t44 -74.5q-24 -21 -40 -37.5t-26.5 -34.5t-17 -41t-10.5 -57q22 3 34.5 5t24 5.5t26.5 9.5t43 18q87 35 134 35q42 0 67.5 -25t25.5 -63
q0 -40 -26 -66t-66 -26q-43 0 -127 37q-22 9 -37 15t-29 9.5t-30 5.5t-40 3q4 -33 6.5 -50.5t5.5 -30t8 -24t14 -31.5q50 -111 50 -164q0 -45 -29 -75t-72 -30q-21 0 -39.5 8.5t-32 23t-21 34t-7.5 42.5q0 14 0.5 23.5t5 25.5t13.5 42t27 73q12 32 19.5 65.5t11.5 67.5
q-24 -1 -40 -2t-30.5 -5t-31.5 -10.5t-43 -18.5q-75 -34 -113 -34q-42 0 -66.5 24.5t-24.5 63.5q0 42 26.5 67t69.5 25q14 0 39 -8t52.5 -18t54 -19.5t43.5 -13.5q11 -2 26.5 -4t37.5 -3q-5 31 -11 53t-16.5 40t-27 34t-41.5 36q46 61 66 120q31 90 31 206q0 97 -20.5 172.5
t-76.5 137.5q25 19 41 35t26.5 34.5t17 42t11.5 58.5q-23 -2 -34.5 -2.5t-23.5 -3.5t-30.5 -10.5t-56.5 -23.5q-35 -14 -64.5 -20.5t-53.5 -6.5q-38 0 -63 25t-25 63q0 37 24.5 61.5t62.5 24.5q47 0 131 -34q24 -10 39 -16t28 -10t27.5 -6t38.5 -3q-1 27 -4 46.5t-9 39.5
t-15.5 44t-24.5 62q-13 33 -19 48t-7.5 22.5t-1 13.5t0.5 21q0 51 29 81t72 30t70 -29t27 -86q0 -18 -0.5 -28.5t-4 -23t-12.5 -33t-25 -57.5q-16 -35 -24.5 -72.5t-11.5 -78.5q24 1 37.5 2t25.5 4t28.5 10t47.5 20q76 33 126 33q40 0 65 -24.5t25 -62.5q0 -39 -26 -64
t-68 -25q-23 0 -55 8t-71 25q-28 12 -43.5 18.5t-27.5 10t-26 4.5t-38 3z" />
    <glyph glyph-name="perthousand" unicode="&#x2030;" horiz-adv-x="2048" 
d="M1220 1387l-972 -1442h-89l972 1442h89zM353 1387q63 0 116.5 -28t92 -77.5t60 -116t21.5 -144.5q0 -84 -23 -151.5t-62.5 -114t-91.5 -71.5t-109 -25q-62 0 -115 27t-92.5 75t-62 114.5t-22.5 146.5q0 88 24.5 156t65 114.5t92 70.5t106.5 24zM349 1334q-35 0 -58.5 -22
t-37.5 -63t-20.5 -100t-6.5 -132q0 -157 33.5 -232.5t95.5 -75.5q60 0 94 81t34 240q0 153 -35.5 228.5t-98.5 75.5zM1028 673q63 0 116.5 -28t92 -77.5t60 -116t21.5 -144.5q0 -84 -23 -151.5t-62.5 -114t-91.5 -71.5t-109 -25q-62 0 -115 27t-92.5 75t-62 114.5
t-22.5 146.5q0 88 24.5 156t65 114.5t92 70.5t106.5 24zM1024 620q-35 0 -58.5 -22t-37.5 -63t-20.5 -100t-6.5 -132q0 -157 33.5 -232.5t95.5 -75.5q60 0 94 81t34 240q0 153 -35.5 228.5t-98.5 75.5zM1690 673q63 0 116.5 -28t92 -77.5t60 -116t21.5 -144.5
q0 -84 -23 -151.5t-62.5 -114t-91.5 -71.5t-109 -25q-62 0 -115 27t-92.5 75t-62 114.5t-22.5 146.5q0 88 24.5 156t65 114.5t92 70.5t106.5 24zM1686 620q-35 0 -58.5 -22t-37.5 -63t-20.5 -100t-6.5 -132q0 -157 33.5 -232.5t95.5 -75.5q60 0 94 81t34 240
q0 153 -35.5 228.5t-98.5 75.5z" />
    <glyph glyph-name="Scaron" unicode="&#x160;" horiz-adv-x="1139" 
d="M939 1387v-469h-37q-18 135 -65 215q-23 40 -57.5 72t-75 54.5t-86 35t-91.5 12.5q-51 0 -95 -17.5t-76.5 -46.5t-50.5 -66.5t-18 -77.5q0 -56 26 -97.5t71.5 -76.5t107 -68t133.5 -71q81 -43 154 -84t128.5 -90.5t88.5 -113t33 -152.5q0 -76 -31.5 -144.5t-88 -120
t-135 -82t-172.5 -30.5q-35 0 -60 1t-48 4.5t-47.5 11t-58.5 20.5q-24 9 -49 16.5t-46 12.5t-35.5 8t-18.5 3q-25 0 -39.5 -15t-21.5 -62h-37v465h37q13 -73 30.5 -127.5t39.5 -91.5q22 -36 57 -67t78.5 -53.5t94 -35t103.5 -12.5q63 0 113 18t85 48.5t53.5 71t18.5 84.5
q0 65 -27 109.5t-72.5 79.5t-106 67t-127.5 72q-76 45 -146.5 85.5t-124.5 89t-86.5 110.5t-32.5 148q0 72 30 137t83 114t125.5 77.5t158.5 28.5q106 0 229 -53q54 -25 79 -25q26 0 42.5 15.5t26.5 62.5h37zM657 1462h-184l-190 263h31l273 -144l229 144h30z" />
    <glyph glyph-name="guilsinglleft" unicode="&#x2039;" horiz-adv-x="682" 
d="M563 -8h-57l-387 472l387 470h57l-244 -470z" />
    <glyph glyph-name="OE" unicode="&#x152;" horiz-adv-x="1821" 
d="M1104 1282v-535h183q58 0 98 11.5t65 35.5t36 61t11 88h39v-472h-39q-5 62 -16.5 101.5t-35 62t-62 30.5t-96.5 8h-183v-448q0 -41 2.5 -65.5t7.5 -39t13 -22t20 -14.5q16 -8 77 -8h104q63 0 102.5 2t67 9.5t49 22t47.5 38.5q75 67 129 192h40l-108 -340h-485
q-45 0 -95.5 -1t-101 -3t-98 -4t-86.5 -4t-66 -3t-36 -1q-170 0 -309 85q-70 43 -124.5 105.5t-96.5 144.5q-82 164 -82 357q0 258 141 455q169 237 493 237q2 0 24.5 -1t59.5 -2t83.5 -3t97.5 -3t101.5 -2t94.5 -1h473v-298h-20q-24 118 -43 149q-25 40 -77 62
q-32 13 -143 13h-256zM912 1042q0 67 -5 108t-14 65.5t-22.5 37t-30.5 22.5q-50 29 -127 29q-92 0 -167 -40.5t-128.5 -120t-83 -199t-29.5 -276.5q0 -131 26 -243.5t77 -194.5t126.5 -128.5t174.5 -46.5q77 0 122.5 25t62.5 72q18 46 18 188v702z" />
    <glyph glyph-name="Zcaron" unicode="&#x17d;" horiz-adv-x="1251" 
d="M1178 1356l-891 -1274h556q128 0 196 56q69 56 122 227l33 -6l-64 -359h-1104v37l870 1238h-434q-108 0 -157 -24q-48 -23 -74 -68q-25 -42 -46 -166h-38l28 339h1003zM734 1462h-184l-190 263h31l273 -144l229 144h30z" />
    <glyph glyph-name="quoteleft" unicode="&#x2018;" horiz-adv-x="682" 
d="M444 1387v-43q-45 -27 -77 -51.5t-51.5 -49t-28.5 -50.5t-9 -56q0 -31 11.5 -46.5t26.5 -15.5q6 0 15.5 2.5t20 5.5t20.5 5.5t16 2.5q20 0 38.5 -8t32.5 -22.5t22.5 -33.5t8.5 -41q0 -30 -12 -52t-30.5 -36.5t-42 -21.5t-46.5 -7q-34 0 -65.5 15.5t-55.5 42t-38.5 62.5
t-14.5 78q0 48 14.5 94.5t46 88.5t80.5 77t118 60z" />
    <glyph glyph-name="quoteright" unicode="&#x2019;" horiz-adv-x="682" 
d="M238 869v47q45 27 76.5 50.5t51.5 47.5t29 50t9 57q0 32 -11.5 46.5t-25.5 14.5q-6 0 -15.5 -2.5t-20 -5.5t-20.5 -5.5t-16 -2.5q-20 0 -38.5 8t-32.5 22t-22.5 33t-8.5 42q0 29 11.5 50.5t30 36t42 22t47.5 7.5q33 0 64.5 -15.5t55.5 -42t39 -62.5t15 -77
q0 -48 -15 -94.5t-46.5 -88.5t-80.5 -77.5t-118 -60.5z" />
    <glyph glyph-name="quotedblleft" unicode="&#x201c;" horiz-adv-x="909" 
d="M326 1387v-41q-88 -46 -126 -95.5t-38 -109.5q0 -34 9.5 -48t22.5 -14t35 7.5t40 7.5q21 0 39.5 -8t32.5 -22.5t22 -33.5t8 -41q0 -24 -10 -45.5t-27 -37t-41 -25t-51 -9.5q-33 0 -64.5 15.5t-56 42.5t-39.5 64t-15 79q0 50 17.5 98t50.5 89.5t81 74t110 52.5zM803 1384
v-38q-51 -30 -83.5 -55t-50.5 -49.5t-24.5 -50.5t-6.5 -57q0 -29 11 -42.5t23 -13.5q11 0 33 8t44 8q20 0 38.5 -8t32.5 -21.5t22.5 -32.5t8.5 -40q0 -24 -10.5 -46t-28.5 -38.5t-42 -26.5t-52 -10q-33 0 -64 15t-55 42t-38.5 63.5t-14.5 78.5q0 52 17.5 101.5t50.5 90.5
t80.5 72.5t108.5 49.5z" />
    <glyph glyph-name="quotedblright" unicode="&#x201d;" horiz-adv-x="909" 
d="M108 869v47q45 27 76.5 50.5t51.5 47.5t29 50t9 57q0 32 -11.5 46.5t-25.5 14.5q-6 0 -15.5 -2.5t-20 -5.5t-20.5 -5.5t-16 -2.5q-20 0 -38.5 8t-32.5 22t-22.5 33t-8.5 42q0 29 11.5 50.5t30 36t42 22t47.5 7.5q33 0 64.5 -15.5t55.5 -42t39 -62.5t15 -77
q0 -48 -15 -94.5t-46.5 -88.5t-80.5 -77.5t-118 -60.5zM591 869v47q45 27 76.5 50.5t51.5 47.5t29 50t9 57q0 32 -11.5 46.5t-25.5 14.5q-6 0 -15.5 -2.5t-20 -5.5t-20.5 -5.5t-16 -2.5q-20 0 -38.5 8t-32.5 22t-22.5 33t-8.5 42q0 29 11.5 50.5t30 36t42 22t47.5 7.5
q33 0 64.5 -15.5t55.5 -42t39 -62.5t15 -77q0 -48 -15 -94.5t-46.5 -88.5t-80.5 -77.5t-118 -60.5z" />
    <glyph glyph-name="periodcentered" unicode="&#xb7;" horiz-adv-x="717" 
d="M363 928q51 0 96.5 -20t80 -54.5t54.5 -80t20 -96.5q0 -52 -20 -97.5t-54 -79.5t-80 -54t-97 -20q-52 0 -98 19.5t-80 53.5t-53.5 80t-19.5 98q0 51 20 97t54 80t79.5 54t97.5 20z" />
    <glyph glyph-name="periodcentered" unicode="&#x2022;" horiz-adv-x="717" 
d="M363 928q51 0 96.5 -20t80 -54.5t54.5 -80t20 -96.5q0 -52 -20 -97.5t-54 -79.5t-80 -54t-97 -20q-52 0 -98 19.5t-80 53.5t-53.5 80t-19.5 98q0 51 20 97t54 80t79.5 54t97.5 20z" />
    <glyph glyph-name="endash" unicode="&#x2013;" 
d="M1041 453h-1059v73h1059v-73z" />
    <glyph glyph-name="emdash" unicode="&#x2014;" horiz-adv-x="2048" 
d="M2066 453h-2085v74h2085v-74z" />
    <glyph glyph-name="trademark" unicode="&#x2122;" horiz-adv-x="2007" 
d="M51 1356h728l22 -201h-34q-5 36 -17.5 62.5t-35 44t-57.5 26t-84 8.5h-75v-579q0 -43 4 -68.5t15.5 -39t32.5 -18.5t54 -6v-36h-374v36q33 3 53 8.5t30.5 19.5t13.5 38t3 65v580h-76q-47 0 -80 -7.5t-55 -24t-35 -43.5t-20 -66h-34zM1156 1356l273 -572l265 572h279v-37
q-40 -1 -62 -6t-33 -19t-13.5 -40.5t-2.5 -69.5v-468q0 -43 3.5 -68t15 -38.5t33.5 -18t59 -6.5v-36h-398v36q45 1 69 7.5t35 21.5t13 39.5t2 61.5v492l-307 -658h-32l-308 649v-482q0 -41 3 -66.5t13 -39.5t28.5 -19.5t48.5 -5.5h36v-36h-306v36q41 0 64 5.5t34 19.5
t13 39.5t2 66.5v466q0 43 -2 70t-13 42t-33.5 20t-64.5 5v37h286z" />
    <glyph glyph-name="scaron" unicode="&#x161;" horiz-adv-x="797" 
d="M656 943v-312h-33q-19 74 -43 122.5t-54.5 77.5t-68 41t-83.5 12q-35 0 -63.5 -10.5t-49 -27t-32 -38t-11.5 -43.5q0 -28 8 -52t33.5 -49.5t73 -54.5t127.5 -68q74 -36 124.5 -71t82 -70t45 -72.5t13.5 -77.5q0 -63 -26.5 -114.5t-69.5 -87.5t-98 -56t-112 -20
q-42 0 -90 7t-102 23q-17 5 -30 7.5t-24 2.5q-22 0 -36 -26h-33v327h33q14 -70 42 -123t65.5 -88t83 -53t93.5 -18q34 0 62.5 11t49.5 29.5t32.5 43.5t11.5 54q0 34 -10 61.5t-37 53.5t-74 54.5t-121 65.5q-74 36 -119.5 67t-71.5 62.5t-35 66t-9 78.5q0 56 20.5 104.5
t57.5 84t88 56t112 20.5q19 0 49 -6t60.5 -13t55.5 -13t34 -6q16 0 25 7t21 31h33zM491 1054h-184l-190 291h31l273 -172l229 172h30z" />
    <glyph glyph-name="guilsinglright" unicode="&#x203a;" horiz-adv-x="682" 
d="M115 934h58l394 -472l-394 -470h-58l243 470z" />
    <glyph glyph-name="oe" unicode="&#x153;" horiz-adv-x="1479" 
d="M863 573q-1 -13 -1.5 -22t-0.5 -16q0 -93 22 -166.5t60 -125t88.5 -79t107.5 -27.5q80 0 141.5 51t97.5 167l33 -17q-18 -96 -50 -165.5t-75.5 -114t-97.5 -65.5t-117 -21q-48 0 -90 12.5t-76 34t-60 51t-43 63.5q-125 -161 -318 -161q-87 0 -163.5 33.5t-132.5 95
t-88.5 148.5t-32.5 194q0 115 33.5 208t91.5 157.5t135 99.5t163 35q108 0 186 -44t126 -114q29 43 59 73t64 49t73 28t87 9q71 0 131 -24.5t103.5 -70t67.5 -111.5t24 -149v-16h-548zM453 888q-35 0 -70 -16.5t-64 -56.5t-47 -107t-18 -169q0 -98 17 -188t49.5 -158.5
t80 -109t108.5 -40.5q43 0 80.5 16.5t65.5 55.5t44 103.5t16 159.5q0 115 -17 209t-50.5 161t-82.5 103.5t-112 36.5zM863 638h351q0 47 -11 90.5t-32.5 76.5t-54.5 52.5t-77 19.5q-33 0 -63.5 -15t-54.5 -44.5t-39.5 -74.5t-18.5 -105z" />
    <glyph glyph-name="zcaron" unicode="&#x17e;" horiz-adv-x="909" 
d="M860 281v-281h-819v36l608 810h-300q-50 0 -79.5 -3t-47.5 -9.5t-28.5 -18t-20.5 -29.5q-26 -48 -31 -124h-40v254h774v-37l-614 -812h334q54 0 88 4t56 13.5t34.5 24.5t24.5 37q16 31 27 135h34zM563 1054h-184l-190 331h31l273 -212l229 212h30z" />
    <glyph glyph-name="Ydieresis" unicode="&#x178;" horiz-adv-x="1479" 
d="M976 1356h473v-37h-26q-12 0 -32.5 -6t-43.5 -17t-47 -28t-44 -38q-21 -22 -45.5 -57t-55.5 -83l-327 -515v-340q0 -125 28 -156q37 -42 120 -42h44v-37h-576v37h48q86 0 122 52q22 31 22 146v321l-372 568q-33 51 -55.5 81.5t-34.5 43.5q-6 6 -20 17.5t-35 23.5
t-46.5 20.5t-53.5 8.5v37h580v-37h-30q-22 0 -44.5 -5t-40.5 -16t-29.5 -27.5t-11.5 -39.5q0 -36 61 -130l283 -437l266 418q60 94 60 140q-2 21 -9 39t-22 31t-41 20t-65 7v37zM940 1707q22 0 42 -8.5t34.5 -23.5t23 -35t8.5 -42q0 -23 -8.5 -42.5t-23 -34t-34.5 -23
t-42 -8.5q-23 0 -42.5 8.5t-34.5 23t-23.5 34t-8.5 42.5q0 22 8.5 42t23.5 35t34.5 23.5t42.5 8.5zM587 1707q23 0 43 -8.5t34.5 -23.5t23 -35t8.5 -42q0 -23 -8.5 -42.5t-23.5 -34t-34.5 -23t-41.5 -8.5q-23 0 -42.5 8.5t-34.5 23t-23.5 34t-8.5 42.5q0 22 8.5 42t23 35
t34 23.5t42.5 8.5z" />
    <glyph glyph-name="uni00A0" unicode="&#xa0;" horiz-adv-x="512" 
 />
    <glyph glyph-name="exclamdown" unicode="&#xa1;" horiz-adv-x="682" 
d="M342 974q23 0 43 -8.5t35 -23.5t24 -35.5t9 -43.5t-9 -43t-24 -35t-35 -23.5t-43 -8.5t-43 8.5t-35 23.5t-23.5 35t-8.5 43t8.5 43t23.5 35t35 24t43 9zM322 587h38l89 -810q0 -3 1 -15t2 -26t1.5 -25.5t0.5 -12.5q0 -32 -9 -57.5t-24.5 -44t-36 -28.5t-43.5 -10
q-48 0 -80.5 38t-32.5 114q0 12 1.5 28.5l3.5 38.5z" />
    <glyph glyph-name="cent" unicode="&#xa2;" 
d="M900 349q-20 -82 -54.5 -150.5t-83 -118t-110 -77t-136.5 -27.5q-80 0 -162 35l-142 -390h-70l155 427q-81 77 -117 154q-51 109 -51 250q0 109 33 200.5t91 156.5t136.5 101.5t169.5 36.5q10 0 25.5 -1t35.5 -3l140 383h72l-145 -402q56 -25 92 -49.5t57 -49.5t29 -50.5
t8 -52.5q0 -39 -24 -62t-70 -23q-23 0 -41.5 5t-32.5 18.5t-24 37t-14 59.5q-2 16 -6 32t-11 33l-228 -631q25 -17 45 -29t38.5 -19t37.5 -10t42 -3q30 0 60 7t57 18.5t49 27t36 32.5q30 36 83 147zM370 250l223 615q-29 12 -60 12q-61 0 -106.5 -27.5t-76 -74t-46 -108.5
t-15.5 -132q0 -39 4 -72t13 -66t24.5 -68.5t39.5 -78.5z" />
    <glyph glyph-name="sterling" unicode="&#xa3;" 
d="M723 659h-258q1 -23 1 -40v-28q0 -92 -14 -174t-48 -184q198 -64 224 -69q52 -12 102 -12q84 0 135.5 38t75.5 122l36 -9q-11 -81 -38.5 -142t-66 -102t-86 -62t-96.5 -21q-69 0 -123 24q-28 12 -78 46t-125 90q-79 -160 -186 -160q-51 0 -84 34.5t-33 94.5
q0 34 12.5 62.5t34.5 49.5t52 32.5t65 11.5q17 0 38 -2t47 -6q2 26 2.5 45t0.5 32q0 87 -21 329h-194v95h194q-7 75 -10 124.5t-3 74.5q0 100 30 179.5t81 135.5t118 86t141 30q64 0 111.5 -20t79 -50t47 -66t15.5 -68q0 -15 -6.5 -30t-17.5 -26.5t-25 -18.5t-29 -7t-28 4
t-23 16.5t-17 35t-10 59.5q-5 61 -35 88.5t-86 27.5q-39 0 -72 -14t-57.5 -46.5t-38.5 -86t-14 -133.5q0 -25 2.5 -67t6.5 -86t7.5 -83t5.5 -59h258v-95zM298 172q-43 28 -85 28q-45 0 -70 -24.5t-25 -63.5q0 -36 19.5 -57t45.5 -21q33 0 64.5 31t50.5 107z" />
    <glyph glyph-name="currency" unicode="&#xa4;" 
d="M794 1019l143 142l58 -57l-144 -141q103 -131 103 -281q0 -154 -103 -284l144 -145l-58 -55l-143 143q-133 -103 -270 -103q-43 0 -87 8t-83.5 22.5t-72 33t-52.5 39.5l-146 -143l-56 55l144 145q-102 117 -102 282q0 157 102 283l-144 141l56 57l146 -142
q25 22 59.5 40.5t73 32t77.5 21.5t75 8q34 0 71.5 -6.5t74 -19.5t71 -32t63.5 -44zM512 1040q-75 0 -140.5 -28.5t-115 -78t-78 -115.5t-28.5 -141q0 -73 28.5 -138.5t78 -114.5t115 -77.5t139.5 -28.5q73 0 139 29t116 78.5t79 115t29 138.5q0 69 -27.5 134.5t-76.5 115.5
t-115 80.5t-143 30.5z" />
    <glyph glyph-name="yen" unicode="&#xa5;" 
d="M597 425h426v-73h-426v-108q0 -51 1.5 -82t6 -50t13.5 -29.5t24 -19.5q37 -22 85 -22h41v-41h-515v41h32q61 0 93.5 19t43.5 64q4 17 4 120v108h-424v73h424v144l-15 36h-409v73h377l-213 496q-19 44 -36 71.5t-36 43.5t-41.5 22t-50.5 7v38h442v-38q-36 -3 -59.5 -9
t-37 -14t-19 -18.5t-5.5 -20.5q0 -16 18 -59l214 -519l213 504q21 49 21 75q0 9 -2.5 18t-11 17t-25.5 14t-46 9q-9 0 -27 3v38h346v-38q-35 0 -59.5 -8.5t-43.5 -27.5t-35.5 -48t-34.5 -71l-214 -485h387v-73h-419l-7 -16v-164z" />
    <glyph glyph-name="brokenbar" unicode="&#xa6;" horiz-adv-x="410" 
d="M244 1422v-742h-83v742h83zM244 300v-742h-83v742h83z" />
    <glyph glyph-name="section" unicode="&#xa7;" 
d="M377 843q-67 74 -95.5 135t-28.5 124q0 58 22 109.5t60.5 89.5t90.5 60.5t111 22.5q55 0 101.5 -18.5t80 -49.5t52.5 -70.5t19 -81.5q0 -16 -5 -32t-14.5 -29t-24.5 -21t-35 -8q-34 0 -56 23t-22 54q0 5 2 16t4.5 24.5t4.5 28.5t2 27q0 42 -29 68.5t-80 26.5
q-36 0 -68 -13.5t-55.5 -37t-37 -55.5t-13.5 -69q0 -39 11.5 -72t34 -63t55.5 -58.5t77 -59.5q101 -73 169.5 -137.5t105.5 -122.5q52 -82 52 -172q0 -45 -13 -91.5t-40 -90.5t-69 -85t-99 -75q36 -39 59.5 -71.5t37.5 -62t20 -58.5t6 -62q0 -60 -22 -112.5t-60.5 -91
t-90 -60.5t-111.5 -22q-53 0 -99 18.5t-79.5 49.5t-53 72t-19.5 85q0 37 23.5 62.5t54.5 25.5t53 -23.5t22 -63.5q0 -13 -2.5 -28.5t-5.5 -31t-5.5 -29t-2.5 -20.5q0 -19 11 -33.5t28 -24.5t38.5 -15t42.5 -5q33 0 65 14.5t56.5 38t39.5 53t15 59.5q0 37 -12 71t-37 67
t-64 68t-92 75q-188 140 -256 247q-51 81 -51 172q0 93 53.5 181.5t167.5 157.5zM409 812q-151 -91 -151 -222q0 -71 37 -129q26 -41 75 -88.5t122 -102.5q35 -26 65.5 -51.5t56.5 -49.5q153 93 153 220q0 64 -44 135t-181 178q-42 32 -74.5 59.5t-58.5 50.5z" />
    <glyph glyph-name="dieresis" unicode="&#xa8;" horiz-adv-x="682" 
d="M518 1337q22 0 42 -8.5t34.5 -23.5t23 -35t8.5 -42q0 -23 -8.5 -42.5t-23 -34t-34.5 -23t-42 -8.5q-23 0 -42.5 8.5t-34.5 23t-23.5 34t-8.5 42.5q0 22 8.5 42t23.5 35t34.5 23.5t42.5 8.5zM165 1337q23 0 43 -8.5t34.5 -23.5t23 -35t8.5 -42q0 -23 -8.5 -42.5t-23.5 -34
t-34.5 -23t-41.5 -8.5q-23 0 -42.5 8.5t-34.5 23t-23.5 34t-8.5 42.5q0 22 8.5 42t23 35t34 23.5t42.5 8.5z" />
    <glyph glyph-name="circumflex" unicode="&#x2c6;" horiz-adv-x="682" 
d="M249 1385h184l190 -331h-31l-273 213l-229 -213h-30z" />
    <glyph glyph-name="tilde" unicode="&#x2dc;" horiz-adv-x="682" 
d="M54 1097h-32q2 69 17.5 118t40.5 80.5t58 46t72 14.5q24 0 44 -3.5t42.5 -13.5t50 -26.5t65.5 -41.5q41 -28 72 -41t51 -13q15 0 29.5 5.5t26.5 21t22 42.5t17 70h31q0 -65 -15 -114.5t-41 -82.5t-60.5 -49.5t-73.5 -16.5q-78 0 -196 80q-33 22 -52.5 34.5t-32.5 18.5
t-22.5 7t-20.5 1q-41 0 -65 -36q-5 -8 -12.5 -33.5t-15.5 -67.5z" />
    <glyph glyph-name="copyright" unicode="&#xa9;" horiz-adv-x="1556" 
d="M778 1387q179 0 349 -92q171 -92 265 -262q48 -85 72 -173.5t24 -181.5q0 -184 -94 -353t-263 -263q-85 -48 -172.5 -70.5t-180.5 -22.5q-184 0 -353 93q-167 92 -262 263q-94 169 -94 353q0 185 95 355t266 262q170 92 348 92zM778 1326q-164 0 -318 -84
q-155 -84 -242 -240q-87 -155 -87 -324q0 -168 85 -322q85 -155 240 -240q155 -86 322 -86t322 86q154 85 240 240t86 322q0 169 -87 324q-87 156 -242 240t-319 84zM1129 1134l20 -280h-39q-36 120 -114 178t-189 58q-73 0 -132.5 -26t-101.5 -76t-64.5 -122t-22.5 -165
q0 -107 24 -185t67.5 -128.5t104.5 -75t135 -24.5q195 0 312 162l37 -19q-140 -203 -383 -203q-100 0 -184.5 35t-146.5 95t-97 141t-35 173q0 95 37.5 179.5t103.5 147.5t157.5 99.5t199.5 36.5q26 0 43 -1t35 -5t42.5 -11.5t64.5 -20.5q23 -8 37 -8q16 0 27 8.5t22 36.5
h40z" />
    <glyph glyph-name="ordfeminine" unicode="&#xaa;" horiz-adv-x="565" 
d="M340 1180q0 56 -7 90.5t-20.5 53.5t-33.5 25.5t-45 6.5q-94 0 -94 -89q0 -45 -16.5 -65.5t-41.5 -20.5q-23 0 -39.5 17t-16.5 43q0 27 14 53t42.5 46t72.5 32t105 12q46 0 81 -9t60 -22.5t40.5 -30.5t22.5 -33q14 -34 14 -109v-218q0 -31 0.5 -46t1.5 -21.5t3.5 -8
t7.5 -5.5q7 -6 13 -6q14 0 58 30v-48q-38 -27 -60.5 -42t-37.5 -22t-25.5 -8.5t-25.5 -1.5q-25 0 -44.5 20.5t-28.5 74.5q-127 -91 -215 -91q-26 0 -49.5 10.5t-41.5 27.5t-29 39.5t-11 46.5q0 51 31 90t98 80q54 32 217 99zM340 1142q-61 -21 -101 -43t-63.5 -45.5
t-33 -47.5t-9.5 -48q0 -17 6.5 -32.5t18.5 -27.5t28.5 -19t35.5 -7q44 0 118 44v226z" />
    <glyph glyph-name="guillemotleft" unicode="&#xab;" 
d="M508 -8h-57l-387 472l387 470h57l-244 -470zM960 -8h-58l-394 472l394 470h58l-243 -470z" />
    <glyph glyph-name="logicalnot" unicode="&#xac;" horiz-adv-x="1155" 
d="M36 878h1080v-406h-79v325h-1001v81z" />
    <glyph glyph-name="registered" unicode="&#xae;" horiz-adv-x="1556" 
d="M778 1387q179 0 349 -92q171 -92 265 -262q48 -85 72 -173.5t24 -181.5q0 -184 -94 -353t-263 -263q-85 -48 -172.5 -70.5t-180.5 -22.5q-184 0 -353 93q-167 92 -262 263q-94 169 -94 353q0 185 95 355t266 262q170 92 348 92zM778 1326q-164 0 -318 -84
q-155 -84 -242 -240q-87 -155 -87 -324q0 -168 85 -322q85 -155 240 -240q155 -86 322 -86t322 86q154 85 240 240t86 322q0 169 -87 324q-87 156 -242 240t-319 84zM386 1114h386q72 0 127.5 -17.5t93 -48t57 -71.5t19.5 -87q0 -76 -51.5 -133.5t-170.5 -88.5l209 -298
q16 -23 29 -39t26.5 -26t29 -15.5t36.5 -7.5v-33h-184l-294 405h-76v-309q3 -17 9 -28.5t18.5 -19.5t34 -11.5t56.5 -3.5v-33h-367v33q48 0 68 11.5t29 33.5q7 15 7 93v523q0 73 -3 87q-7 23 -25.5 35.5t-63.5 12.5v36zM623 697q78 0 132 12.5t88 36.5t49.5 57.5t15.5 75.5
q0 39 -15 74t-41.5 61t-63.5 41t-81 15q-39 0 -84 -16v-357z" />
    <glyph glyph-name="macron" unicode="&#xaf;" 
d="M1042 1462h-1059v84h1059v-84z" />
    <glyph glyph-name="degree" unicode="&#xb0;" horiz-adv-x="819" 
d="M405 1386q64 0 120 -24.5t98 -66.5t66 -98t24 -119t-24.5 -119t-66.5 -98t-98 -66t-119 -24t-119 24.5t-97.5 66t-66 97.5t-24.5 119q0 64 24 120t66 98t98 66t119 24zM405 1302q-46 0 -86.5 -17.5t-71 -48t-48 -71t-17.5 -86.5q0 -45 17.5 -85.5t47.5 -71t70.5 -48.5
t87.5 -18q46 0 86.5 18t71 48.5t48 71t17.5 85.5q0 46 -17.5 86.5t-48 71t-71 48t-86.5 17.5z" />
    <glyph glyph-name="plusminus" unicode="&#xb1;" horiz-adv-x="1124" 
d="M8 141v81h498v418h-498v82h498v497h80v-497h500v-82h-500v-418h501v-81h-1079z" />
    <glyph glyph-name="uni00B2" unicode="&#xb2;" horiz-adv-x="614" 
d="M575 816l-61 -152h-494v29q247 192 328 313q50 74 50 143q0 30 -11 56.5t-30.5 46t-46.5 30.5t-58 11q-57 0 -100 -29t-65 -89h-45q14 99 77 154t165 55q53 0 97 -16.5t75.5 -43t49 -60t17.5 -68.5q0 -66 -48 -141q-75 -117 -295 -295h186q45 0 72 2.5t44.5 9t27.5 17.5
t20 27h45z" />
    <glyph glyph-name="uni00B3" unicode="&#xb3;" horiz-adv-x="614" 
d="M55 1229q42 86 99 120.5t131 34.5q46 0 83 -13t62.5 -33.5t39 -47t13.5 -53.5q0 -68 -105 -155q72 -26 108.5 -74t36.5 -108q0 -51 -22 -96.5t-64 -80t-104 -54.5t-142 -20q-70 0 -108.5 17t-38.5 46q0 17 16.5 31t42.5 14q12 0 34 -7.5t47 -16.5t49.5 -16.5t41.5 -7.5
q28 0 53 11t43.5 29t29 42t10.5 50q0 43 -19.5 74.5t-49.5 51.5t-65.5 30t-67.5 10h-30v28q37 0 70.5 13t58 34.5t39 49.5t14.5 58q0 49 -33 80t-88 31q-86 0 -147 -88z" />
    <glyph glyph-name="acute" unicode="&#xb4;" horiz-adv-x="682" 
d="M565 1390l-295 -345h-34l105 345h224z" />
    <glyph glyph-name="uni00B5" unicode="&#xb5;" horiz-adv-x="1180" 
d="M196 916h164v-533q0 -146 18 -198q13 -40 47.5 -65t76.5 -25q117 0 236 134v687h165v-654q0 -51 1.5 -83t6.5 -48q6 -24 23.5 -37.5t36.5 -13.5q31 0 51.5 32t29.5 92h42q-9 -121 -63 -176.5t-135 -55.5q-34 0 -61 10.5t-47 33t-33 58.5t-17 88q-87 -102 -162 -146
t-152 -44q-24 0 -44 3t-38 12t-36 26t-37 44q-1 -16 -1 -27v-19q0 -81 34 -239q13 -59 13 -104q0 -24 -7.5 -44t-20.5 -35t-30 -23t-36 -8q-37 0 -62 29t-25 80q0 44 29 165q14 57 21 97t10 71t3 57v58v21t-1 54v726z" />
    <glyph glyph-name="uni00B5" unicode="&#x3bc;" horiz-adv-x="1180" 
d="M196 916h164v-533q0 -146 18 -198q13 -40 47.5 -65t76.5 -25q117 0 236 134v687h165v-654q0 -51 1.5 -83t6.5 -48q6 -24 23.5 -37.5t36.5 -13.5q31 0 51.5 32t29.5 92h42q-9 -121 -63 -176.5t-135 -55.5q-34 0 -61 10.5t-47 33t-33 58.5t-17 88q-87 -102 -162 -146
t-152 -44q-24 0 -44 3t-38 12t-36 26t-37 44q-1 -16 -1 -27v-19q0 -81 34 -239q13 -59 13 -104q0 -24 -7.5 -44t-20.5 -35t-30 -23t-36 -8q-37 0 -62 29t-25 80q0 44 29 165q14 57 21 97t10 71t3 57v58v21t-1 54v726z" />
    <glyph glyph-name="paragraph" unicode="&#xb6;" horiz-adv-x="928" 
d="M798 1301v-1743h-72v1743h-187v-1743h-73v1043q-190 7 -286 50q-48 21 -84 55t-60.5 77t-37 93.5t-12.5 104.5q0 110 43 180q29 48 67 84.5t87.5 61t112 37t140.5 12.5h495v-55h-133z" />
    <glyph glyph-name="uni2219" unicode="&#x2219;" horiz-adv-x="682" 
d="M341 808q45 0 75 -30t30 -75q0 -21 -8.5 -40.5t-22.5 -33.5t-33.5 -22.5t-40.5 -8.5t-40.5 8.5t-33.5 22.5t-22.5 33.5t-8.5 40.5q0 45 30 75t75 30z" />
    <glyph glyph-name="cedilla" unicode="&#xb8;" horiz-adv-x="682" 
d="M361 16h60l-50 -79q63 -16 94 -54t31 -92q0 -36 -16 -69t-45 -57.5t-68.5 -39.5t-85.5 -15q-19 0 -42 1.5t-52 5.5v43q14 -2 26 -3t22 -1q25 0 47 9t38.5 24t26 35t9.5 42q0 30 -23 52t-57 22q-5 0 -11.5 -0.5t-14.5 -1.5z" />
    <glyph glyph-name="uni00B9" unicode="&#xb9;" horiz-adv-x="614" 
d="M136 1297l205 87h35v-592q0 -27 1 -43t3 -25t6.5 -13t11.5 -7q18 -8 79 -8v-32h-325v32q29 0 47 1t28 4t14.5 7.5t7.5 10.5q5 12 5 73v374q0 41 -1.5 65.5t-5.5 37t-11 16.5t-17 4q-19 0 -67 -20z" />
    <glyph glyph-name="ordmasculine" unicode="&#xba;" horiz-adv-x="635" 
d="M324 1384q61 0 114 -23t91 -62.5t60 -93t22 -114.5q0 -62 -24 -117t-65.5 -96.5t-96 -66t-114.5 -24.5q-59 0 -110.5 22t-89.5 60.5t-60 91t-22 114.5q0 69 22 125.5t61 97.5t93 63.5t119 22.5zM296 1341q-26 0 -49 -11t-40 -34t-27 -58.5t-10 -84.5q0 -59 11 -115.5
t32.5 -100.5t53.5 -71.5t74 -27.5q57 0 94.5 44.5t37.5 140.5q0 60 -12.5 117t-35.5 102t-55.5 72t-73.5 27z" />
    <glyph glyph-name="guillemotright" unicode="&#xbb;" 
d="M516 934h57l387 -472l-387 -470h-57l244 470zM64 934h58l394 -472l-394 -470h-58l243 470z" />
    <glyph glyph-name="onequarter" unicode="&#xbc;" horiz-adv-x="1536" 
d="M134 1297l205 87h35v-592q0 -27 1 -43t3 -25t6.5 -13t11.5 -7q18 -8 79 -8v-32h-325v32q29 0 47 1t28 4t14.5 7.5t7.5 10.5q5 12 5 73v374q0 41 -1.5 65.5t-5.5 37t-11 16.5t-17 4q-19 0 -67 -20zM1292 1384l-934 -1438h-90l935 1438h89zM1501 224v-81h-108v-183h-117
v183h-343v73l376 465h84v-457h108zM1276 224v316l-260 -316h260z" />
    <glyph glyph-name="onehalf" unicode="&#xbd;" horiz-adv-x="1536" 
d="M134 1297l205 87h35v-592q0 -27 1 -43t3 -25t6.5 -13t11.5 -7q18 -8 79 -8v-32h-325v32q29 0 47 1t28 4t14.5 7.5t7.5 10.5q5 12 5 73v374q0 41 -1.5 65.5t-5.5 37t-11 16.5t-17 4q-19 0 -67 -20zM1268 1384l-935 -1438h-89l935 1438h89zM1494 113l-61 -153h-494v30
q247 192 328 313q50 74 50 143q0 30 -11 56.5t-30.5 46t-46.5 30.5t-58 11q-57 0 -100 -29t-65 -89h-45q14 97 77 153t165 56q53 0 97 -16.5t75.5 -43.5t49 -60.5t17.5 -67.5q0 -67 -48 -142q-74 -114 -295 -294h187q44 0 71.5 2.5t44.5 8.5t27 17t20 28h45z" />
    <glyph glyph-name="threequarters" unicode="&#xbe;" horiz-adv-x="1536" 
d="M1277 1384l-931 -1438h-90l935 1438h86zM53 1229q42 86 99 120.5t131 34.5q46 0 83 -13t62.5 -33.5t39 -47t13.5 -53.5q0 -68 -105 -155q72 -26 108.5 -74t36.5 -108q0 -51 -22 -96.5t-64 -80t-104 -54.5t-142 -20q-70 0 -108.5 17t-38.5 46q0 17 16.5 31t42.5 14
q12 0 34 -7.5t47 -16.5t49.5 -16.5t41.5 -7.5q28 0 53 11t43.5 29t29 42t10.5 50q0 36 -13.5 66t-42 52.5t-72.5 35t-104 12.5v28q37 0 70.5 13t58 34.5t39 49.5t14.5 58q0 49 -33 80t-88 31q-86 0 -147 -88zM1501 224v-81h-108v-183h-116v183h-344v73l376 465h84v-457h108z
M1277 224v316l-260 -316h260z" />
    <glyph glyph-name="questiondown" unicode="&#xbf;" horiz-adv-x="909" 
d="M452 975q23 0 43 -9t35 -24t24 -35t9 -43t-9 -43t-24 -35t-35 -24t-43 -9t-43 9t-35 24t-24 35t-9 43t9 43t24 35t35 24t43 9zM441 626h39q-2 -63 -8.5 -111.5t-16.5 -85.5q-20 -72 -102 -246q-82 -173 -82 -289q0 -66 17.5 -117.5t49 -86.5t75 -53.5t94.5 -18.5
q43 0 78 11.5t59 30t37 42t13 47.5q0 13 -9.5 36t-21.5 48t-21.5 48.5t-9.5 37.5q0 34 24 57.5t57 23.5q21 0 40.5 -11t35.5 -31t25.5 -48t9.5 -62q0 -57 -25.5 -109t-72.5 -92.5t-114.5 -64.5t-151.5 -24t-152.5 25t-117 68.5t-75 101t-26.5 122.5q0 82 29 152
q21 49 58.5 104t91.5 117q108 126 137 192q30 67 36 186z" />
    <glyph glyph-name="Agrave" unicode="&#xc0;" horiz-adv-x="1479" 
d="M937 454h-525l-92 -214q-34 -78 -34 -118q0 -16 5.5 -29.5t22.5 -25t48 -19t81 -11.5v-37h-427v37q84 15 110 39t53.5 72.5t59.5 122.5l477 1116h35l472 -1128q29 -70 53.5 -112.5t50.5 -66t56.5 -32.5t72.5 -11v-37h-535v37q40 2 67 9t42.5 18t22 25t6.5 31
q1 22 -9.5 56.5t-30.5 82.5zM909 528l-230 548l-236 -548h466zM515 1725h223l106 -275h-35z" />
    <glyph glyph-name="Aacute" unicode="&#xc1;" horiz-adv-x="1479" 
d="M937 454h-525l-92 -214q-34 -78 -34 -118q0 -16 5.5 -29.5t22.5 -25t48 -19t81 -11.5v-37h-427v37q84 15 110 39t53.5 72.5t59.5 122.5l477 1116h35l472 -1128q29 -70 53.5 -112.5t50.5 -66t56.5 -32.5t72.5 -11v-37h-535v37q40 2 67 9t42.5 18t22 25t6.5 31
q1 22 -9.5 56.5t-30.5 82.5zM909 528l-230 548l-236 -548h466zM953 1725l-294 -275h-35l106 275h223z" />
    <glyph glyph-name="Acircumflex" unicode="&#xc2;" horiz-adv-x="1479" 
d="M937 454h-525l-92 -214q-34 -78 -34 -118q0 -16 5.5 -29.5t22.5 -25t48 -19t81 -11.5v-37h-427v37q84 15 110 39t53.5 72.5t59.5 122.5l477 1116h35l472 -1128q29 -70 53.5 -112.5t50.5 -66t56.5 -32.5t72.5 -11v-37h-535v37q40 2 67 9t42.5 18t22 25t6.5 31
q1 22 -9.5 56.5t-30.5 82.5zM909 528l-230 548l-236 -548h466zM647 1725h184l170 -291h-31l-248 173l-214 -173h-30z" />
    <glyph glyph-name="Atilde" unicode="&#xc3;" horiz-adv-x="1479" 
d="M937 454h-525l-92 -214q-34 -78 -34 -118q0 -16 5.5 -29.5t22.5 -25t48 -19t81 -11.5v-37h-427v37q84 15 110 39t53.5 72.5t59.5 122.5l477 1116h35l472 -1128q29 -70 53.5 -112.5t50.5 -66t56.5 -32.5t72.5 -11v-37h-535v37q40 2 67 9t42.5 18t22 25t6.5 31
q1 22 -9.5 56.5t-30.5 82.5zM909 528l-230 548l-236 -548h466zM452 1467h-32q2 69 17.5 118t40.5 80.5t58 46t72 14.5q24 0 44 -3.5t42.5 -13.5t50 -26.5t65.5 -41.5q41 -28 72 -41t51 -13q15 0 29.5 5.5t26.5 21t22 42.5t17 70h31q0 -65 -15 -114.5t-41 -82.5t-60.5 -49.5
t-73.5 -16.5q-78 0 -196 80q-33 22 -52.5 34.5t-32.5 18.5t-22.5 7t-20.5 1q-41 0 -65 -36q-5 -8 -12.5 -33.5t-15.5 -67.5z" />
    <glyph glyph-name="Adieresis" unicode="&#xc4;" horiz-adv-x="1479" 
d="M937 454h-525l-92 -214q-34 -78 -34 -118q0 -16 5.5 -29.5t22.5 -25t48 -19t81 -11.5v-37h-427v37q84 15 110 39t53.5 72.5t59.5 122.5l477 1116h35l472 -1128q29 -70 53.5 -112.5t50.5 -66t56.5 -32.5t72.5 -11v-37h-535v37q40 2 67 9t42.5 18t22 25t6.5 31
q1 22 -9.5 56.5t-30.5 82.5zM909 528l-230 548l-236 -548h466zM916 1707q22 0 42 -8.5t34.5 -23.5t23 -35t8.5 -42q0 -23 -8.5 -42.5t-23 -34t-34.5 -23t-42 -8.5q-23 0 -42.5 8.5t-34.5 23t-23.5 34t-8.5 42.5q0 22 8.5 42t23.5 35t34.5 23.5t42.5 8.5zM563 1707
q23 0 43 -8.5t34.5 -23.5t23 -35t8.5 -42q0 -23 -8.5 -42.5t-23.5 -34t-34.5 -23t-41.5 -8.5q-23 0 -42.5 8.5t-34.5 23t-23.5 34t-8.5 42.5q0 22 8.5 42t23 35t34 23.5t42.5 8.5z" />
    <glyph glyph-name="Aring" unicode="&#xc5;" horiz-adv-x="1479" 
d="M937 454h-525l-92 -214q-34 -78 -34 -118q0 -16 5.5 -29.5t22.5 -25t48 -19t81 -11.5v-37h-427v37q84 15 110 39t53.5 72.5t59.5 122.5l477 1116h35l472 -1128q29 -70 53.5 -112.5t50.5 -66t56.5 -32.5t72.5 -11v-37h-535v37q40 2 67 9t42.5 18t22 25t6.5 31
q1 22 -9.5 56.5t-30.5 82.5zM909 528l-230 548l-236 -548h466zM733 1773q39 0 74 -15t61.5 -41t41.5 -61t15 -74q0 -40 -15 -75t-41 -61t-61 -41t-75 -15q-39 0 -74 15t-61 41.5t-41 61.5t-15 74q0 40 15 74.5t41 60.5t60.5 41t74.5 15zM733 1704q-25 0 -47.5 -9.5t-39 -26
t-26 -39t-9.5 -47.5t9.5 -47.5t26 -39t39 -26t47.5 -9.5t47.5 10t39 26.5t26 38.5t9.5 47t-9.5 47.5t-26 39t-39 26t-47.5 9.5z" />
    <glyph glyph-name="AE" unicode="&#xc6;" horiz-adv-x="1821" 
d="M1027 1282v-536h257q58 0 98 10t65 33t37.5 60.5t16.5 93.5h36v-471h-36q-6 51 -13.5 83t-19 52t-28 32t-40.5 23t-116 11h-257v-449q0 -92 7 -109q3 -9 10 -16.5t19 -13t31 -8.5t48 -3h182q55 0 95.5 3.5t72.5 13.5t58.5 27t55.5 44q74 69 120 179h38l-108 -341h-1018
v37h51q83 0 122 49q24 31 24 153v286h-396l-124 -233q-70 -131 -70 -173q0 -14 6 -27.5t23.5 -24t48 -18.5t79.5 -12v-37h-426v37q32 1 58.5 10.5t53 35t56.5 71.5t70 120l412 771q77 143 77 193q0 18 -8 31.5t-28 24t-53 16.5t-84 9v37h1111v-298h-19q-12 89 -40 140.5
t-88 73.5q-27 10 -136 10h-331zM835 1282l-357 -684h357v684z" />
    <glyph glyph-name="Ccedilla" unicode="&#xc7;" horiz-adv-x="1366" 
d="M1233 1387l31 -461h-31q-31 103 -75.5 177t-101.5 121t-126 69t-150 22q-136 0 -241 -66.5t-167 -204.5q-34 -76 -52 -172.5t-18 -216.5q0 -183 59 -319q30 -69 75.5 -121t103.5 -87t126.5 -53t142.5 -18q84 0 145 17t111 52t96.5 88t102.5 124l31 -20q-51 -90 -110 -156
t-128 -109t-149.5 -63.5t-173.5 -20.5q-338 0 -522 250q-138 186 -138 438q0 121 33 234.5t102 209.5q48 68 109.5 121.5t133 90t150.5 55.5t162 19q147 0 290 -72q44 -23 60 -22q32 0 53.5 26.5t30.5 67.5h35zM702 16h60l-50 -79q63 -16 94 -54t31 -92q0 -36 -16 -69
t-45 -57.5t-68.5 -39.5t-85.5 -15q-19 0 -42 1.5t-52 5.5v43q14 -2 26 -3t22 -1q25 0 47 9t38.5 24t26 35t9.5 42q0 30 -23 52t-57 22q-5 0 -11.5 -0.5t-14.5 -1.5z" />
    <glyph glyph-name="Egrave" unicode="&#xc8;" horiz-adv-x="1251" 
d="M428 1282v-536h298q65 0 105.5 11.5t63.5 36t32 61.5t12 88h37v-472h-37q-7 50 -14 81.5t-14 45.5q-9 18 -23 31.5t-36 23.5t-53 15t-73 5h-298v-447q0 -89 8 -110q4 -9 10 -17t17.5 -13.5t30 -8.5t46.5 -3h230q59 0 98.5 3.5t69 12t52 24t47.5 39.5q31 30 63 77t64 110
h40l-117 -340h-1045v37h48q19 0 40 4t39.5 13t33.5 22.5t21 31.5q12 31 12 131v881q0 128 -26 159q-36 40 -120 40h-48v37h1045v-297h-24q-11 54 -22 89t-25 58t-32 36.5t-43 24.5q-41 15 -141 15h-372zM485 1725h223l106 -275h-35z" />
    <glyph glyph-name="Eacute" unicode="&#xc9;" horiz-adv-x="1251" 
d="M428 1282v-536h298q65 0 105.5 11.5t63.5 36t32 61.5t12 88h37v-472h-37q-7 50 -14 81.5t-14 45.5q-9 18 -23 31.5t-36 23.5t-53 15t-73 5h-298v-447q0 -89 8 -110q4 -9 10 -17t17.5 -13.5t30 -8.5t46.5 -3h230q59 0 98.5 3.5t69 12t52 24t47.5 39.5q31 30 63 77t64 110
h40l-117 -340h-1045v37h48q19 0 40 4t39.5 13t33.5 22.5t21 31.5q12 31 12 131v881q0 128 -26 159q-36 40 -120 40h-48v37h1045v-297h-24q-11 54 -22 89t-25 58t-32 36.5t-43 24.5q-41 15 -141 15h-372zM773 1725l-294 -275h-35l106 275h223z" />
    <glyph glyph-name="Ecircumflex" unicode="&#xca;" horiz-adv-x="1251" 
d="M428 1282v-536h298q65 0 105.5 11.5t63.5 36t32 61.5t12 88h37v-472h-37q-7 50 -14 81.5t-14 45.5q-9 18 -23 31.5t-36 23.5t-53 15t-73 5h-298v-447q0 -89 8 -110q4 -9 10 -17t17.5 -13.5t30 -8.5t46.5 -3h230q59 0 98.5 3.5t69 12t52 24t47.5 39.5q31 30 63 77t64 110
h40l-117 -340h-1045v37h48q19 0 40 4t39.5 13t33.5 22.5t21 31.5q12 31 12 131v881q0 128 -26 159q-36 40 -120 40h-48v37h1045v-297h-24q-11 54 -22 89t-25 58t-32 36.5t-43 24.5q-41 15 -141 15h-372zM527 1725h184l170 -291h-31l-248 173l-214 -173h-30z" />
    <glyph glyph-name="Edieresis" unicode="&#xcb;" horiz-adv-x="1251" 
d="M428 1282v-536h298q65 0 105.5 11.5t63.5 36t32 61.5t12 88h37v-472h-37q-7 50 -14 81.5t-14 45.5q-9 18 -23 31.5t-36 23.5t-53 15t-73 5h-298v-447q0 -89 8 -110q4 -9 10 -17t17.5 -13.5t30 -8.5t46.5 -3h230q59 0 98.5 3.5t69 12t52 24t47.5 39.5q31 30 63 77t64 110
h40l-117 -340h-1045v37h48q19 0 40 4t39.5 13t33.5 22.5t21 31.5q12 31 12 131v881q0 128 -26 159q-36 40 -120 40h-48v37h1045v-297h-24q-11 54 -22 89t-25 58t-32 36.5t-43 24.5q-41 15 -141 15h-372zM802 1707q22 0 42 -8.5t34.5 -23.5t23 -35t8.5 -42q0 -23 -8.5 -42.5
t-23 -34t-34.5 -23t-42 -8.5q-23 0 -42.5 8.5t-34.5 23t-23.5 34t-8.5 42.5q0 22 8.5 42t23.5 35t34.5 23.5t42.5 8.5zM449 1707q23 0 43 -8.5t34.5 -23.5t23 -35t8.5 -42q0 -23 -8.5 -42.5t-23.5 -34t-34.5 -23t-41.5 -8.5q-23 0 -42.5 8.5t-34.5 23t-23.5 34t-8.5 42.5
q0 22 8.5 42t23 35t34 23.5t42.5 8.5z" />
    <glyph glyph-name="Igrave" unicode="&#xcc;" horiz-adv-x="682" 
d="M632 37v-37h-581v37h48q85 0 122 49q24 31 24 154v876q0 48 -2 78t-7.5 49.5t-16 30.5t-28.5 21q-44 24 -92 24h-48v37h581v-37h-49q-84 0 -121 -49q-25 -31 -25 -154v-876q0 -48 2 -78t7.5 -49t16.5 -30.5t29 -21.5q43 -24 91 -24h49zM189 1725h223l106 -275h-35z" />
    <glyph glyph-name="Iacute" unicode="&#xcd;" horiz-adv-x="682" 
d="M632 37v-37h-581v37h48q85 0 122 49q24 31 24 154v876q0 48 -2 78t-7.5 49.5t-16 30.5t-28.5 21q-44 24 -92 24h-48v37h581v-37h-49q-84 0 -121 -49q-25 -31 -25 -154v-876q0 -48 2 -78t7.5 -49t16.5 -30.5t29 -21.5q43 -24 91 -24h49zM545 1725l-294 -275h-35l106 275
h223z" />
    <glyph glyph-name="Icircumflex" unicode="&#xce;" horiz-adv-x="682" 
d="M632 37v-37h-581v37h48q85 0 122 49q24 31 24 154v876q0 48 -2 78t-7.5 49.5t-16 30.5t-28.5 21q-44 24 -92 24h-48v37h581v-37h-49q-84 0 -121 -49q-25 -31 -25 -154v-876q0 -48 2 -78t7.5 -49t16.5 -30.5t29 -21.5q43 -24 91 -24h49zM248 1725h184l170 -291h-31
l-248 173l-214 -173h-30z" />
    <glyph glyph-name="Idieresis" unicode="&#xcf;" horiz-adv-x="682" 
d="M632 37v-37h-581v37h48q85 0 122 49q24 31 24 154v876q0 48 -2 78t-7.5 49.5t-16 30.5t-28.5 21q-44 24 -92 24h-48v37h581v-37h-49q-84 0 -121 -49q-25 -31 -25 -154v-876q0 -48 2 -78t7.5 -49t16.5 -30.5t29 -21.5q43 -24 91 -24h49zM518 1707q22 0 42 -8.5t34.5 -23.5
t23 -35t8.5 -42q0 -23 -8.5 -42.5t-23 -34t-34.5 -23t-42 -8.5q-23 0 -42.5 8.5t-34.5 23t-23.5 34t-8.5 42.5q0 22 8.5 42t23.5 35t34.5 23.5t42.5 8.5zM165 1707q23 0 43 -8.5t34.5 -23.5t23 -35t8.5 -42q0 -23 -8.5 -42.5t-23.5 -34t-34.5 -23t-41.5 -8.5
q-23 0 -42.5 8.5t-34.5 23t-23.5 34t-8.5 42.5q0 22 8.5 42t23 35t34 23.5t42.5 8.5z" />
    <glyph glyph-name="Eth" unicode="&#xd0;" horiz-adv-x="1479" 
d="M35 0v37h51q85 0 123 56q21 31 21 147v438h-195v74h195v364q0 128 -28 159q-39 44 -116 44h-51v37h552q314 0 466 -72t249 -229q98 -158 98 -368q0 -288 -184 -487q-183 -200 -576 -200h-605zM423 100q125 -28 213 -28q115 0 213 42.5t170 121t113 190.5t41 251
q0 140 -40.5 252t-113.5 190.5t-173 120.5t-218 42q-45 0 -96 -7.5t-109 -21.5v-501h393v-74h-393v-578z" />
    <glyph glyph-name="Ntilde" unicode="&#xd1;" horiz-adv-x="1479" 
d="M-27 1356h368l829 -1017v782q0 125 -28 156q-38 42 -117 42h-47v37h472v-37h-48q-86 0 -122 -52q-22 -31 -22 -146v-1143h-36l-894 1092v-835q0 -125 27 -156q37 -42 117 -42h48v-37h-472v37h47q87 0 123 52q22 31 22 146v943q-30 35 -50 56t-38 34.5t-39 22t-52 19.5
q-29 9 -88 9v37zM452 1467h-32q2 69 17.5 118t40.5 80.5t58 46t72 14.5q24 0 44 -3.5t42.5 -13.5t50 -26.5t65.5 -41.5q41 -28 72 -41t51 -13q15 0 29.5 5.5t26.5 21t22 42.5t17 70h31q0 -65 -15 -114.5t-41 -82.5t-60.5 -49.5t-73.5 -16.5q-78 0 -196 80q-33 22 -52.5 34.5
t-32.5 18.5t-22.5 7t-20.5 1q-41 0 -65 -36q-5 -8 -12.5 -33.5t-15.5 -67.5z" />
    <glyph glyph-name="Ograve" unicode="&#xd2;" horiz-adv-x="1479" 
d="M749 1387q263 0 457 -201q194 -200 194 -500q0 -309 -195 -513t-472 -204q-281 0 -471 199t-190 515q0 323 220 527q191 177 457 177zM730 1314q-103 0 -183 -44t-134.5 -125.5t-83 -197.5t-28.5 -260q0 -143 28 -262t82.5 -204.5t134.5 -133t185 -47.5q94 0 174.5 36
t139.5 111.5t92.5 192.5t33.5 279q0 155 -27.5 276.5t-83 205.5t-138 128.5t-192.5 44.5zM555 1725h223l106 -275h-35z" />
    <glyph glyph-name="Oacute" unicode="&#xd3;" horiz-adv-x="1479" 
d="M749 1387q263 0 457 -201q194 -200 194 -500q0 -309 -195 -513t-472 -204q-281 0 -471 199t-190 515q0 323 220 527q191 177 457 177zM730 1314q-103 0 -183 -44t-134.5 -125.5t-83 -197.5t-28.5 -260q0 -143 28 -262t82.5 -204.5t134.5 -133t185 -47.5q94 0 174.5 36
t139.5 111.5t92.5 192.5t33.5 279q0 155 -27.5 276.5t-83 205.5t-138 128.5t-192.5 44.5zM953 1725l-294 -275h-35l106 275h223z" />
    <glyph glyph-name="Ocircumflex" unicode="&#xd4;" horiz-adv-x="1479" 
d="M749 1387q263 0 457 -201q194 -200 194 -500q0 -309 -195 -513t-472 -204q-281 0 -471 199t-190 515q0 323 220 527q191 177 457 177zM730 1314q-103 0 -183 -44t-134.5 -125.5t-83 -197.5t-28.5 -260q0 -143 28 -262t82.5 -204.5t134.5 -133t185 -47.5q94 0 174.5 36
t139.5 111.5t92.5 192.5t33.5 279q0 155 -27.5 276.5t-83 205.5t-138 128.5t-192.5 44.5zM647 1725h184l170 -291h-31l-248 173l-214 -173h-30z" />
    <glyph glyph-name="Otilde" unicode="&#xd5;" horiz-adv-x="1479" 
d="M749 1387q263 0 457 -201q194 -200 194 -500q0 -309 -195 -513t-472 -204q-281 0 -471 199t-190 515q0 323 220 527q191 177 457 177zM730 1314q-103 0 -183 -44t-134.5 -125.5t-83 -197.5t-28.5 -260q0 -143 28 -262t82.5 -204.5t134.5 -133t185 -47.5q94 0 174.5 36
t139.5 111.5t92.5 192.5t33.5 279q0 155 -27.5 276.5t-83 205.5t-138 128.5t-192.5 44.5zM452 1467h-32q2 69 17.5 118t40.5 80.5t58 46t72 14.5q24 0 44 -3.5t42.5 -13.5t50 -26.5t65.5 -41.5q41 -28 72 -41t51 -13q15 0 29.5 5.5t26.5 21t22 42.5t17 70h31
q0 -65 -15 -114.5t-41 -82.5t-60.5 -49.5t-73.5 -16.5q-78 0 -196 80q-33 22 -52.5 34.5t-32.5 18.5t-22.5 7t-20.5 1q-41 0 -65 -36q-5 -8 -12.5 -33.5t-15.5 -67.5z" />
    <glyph glyph-name="Odieresis" unicode="&#xd6;" horiz-adv-x="1479" 
d="M749 1387q263 0 457 -201q194 -200 194 -500q0 -309 -195 -513t-472 -204q-281 0 -471 199t-190 515q0 323 220 527q191 177 457 177zM730 1314q-103 0 -183 -44t-134.5 -125.5t-83 -197.5t-28.5 -260q0 -143 28 -262t82.5 -204.5t134.5 -133t185 -47.5q94 0 174.5 36
t139.5 111.5t92.5 192.5t33.5 279q0 155 -27.5 276.5t-83 205.5t-138 128.5t-192.5 44.5zM916 1707q22 0 42 -8.5t34.5 -23.5t23 -35t8.5 -42q0 -23 -8.5 -42.5t-23 -34t-34.5 -23t-42 -8.5q-23 0 -42.5 8.5t-34.5 23t-23.5 34t-8.5 42.5q0 22 8.5 42t23.5 35t34.5 23.5
t42.5 8.5zM563 1707q23 0 43 -8.5t34.5 -23.5t23 -35t8.5 -42q0 -23 -8.5 -42.5t-23.5 -34t-34.5 -23t-41.5 -8.5q-23 0 -42.5 8.5t-34.5 23t-23.5 34t-8.5 42.5q0 22 8.5 42t23 35t34 23.5t42.5 8.5z" />
    <glyph glyph-name="multiply" unicode="&#xd7;" horiz-adv-x="1155" 
d="M165 328l353 353l-352 352l58 58l352 -352l352 352l56 -57l-352 -352l354 -354l-57 -58l-354 354l-353 -353z" />
    <glyph glyph-name="Oslash" unicode="&#xd8;" horiz-adv-x="1479" 
d="M1147 1238l131 162l58 -44l-133 -167q52 -59 89.5 -115t61.5 -115t35.5 -125.5t11.5 -146.5q0 -93 -22.5 -182t-64 -168.5t-100 -147t-131.5 -116.5t-158.5 -76.5t-180.5 -27.5q-51 0 -107.5 9.5t-111.5 28t-105.5 45t-89.5 60.5l-129 -159l-59 47l132 164
q-201 207 -201 528q0 94 23 182t66 165.5t103.5 141t134.5 109.5t160.5 71.5t180.5 25.5q227 0 406 -149zM1063 1135q-115 181 -327 181q-85 0 -150 -25.5t-113 -70t-81 -104.5t-53 -128.5t-28.5 -143t-8.5 -147.5q0 -232 73 -408zM1101 1063l-685 -846q63 -97 142 -136.5
t172 -39.5q84 0 149.5 25t114.5 69t82.5 103t54.5 127.5t30 142.5t9 148q0 59 -3 109t-11 97.5t-21.5 96t-33.5 104.5z" />
    <glyph glyph-name="Ugrave" unicode="&#xd9;" horiz-adv-x="1479" 
d="M977 1319v37h480v-37h-51q-80 0 -123 -67q-21 -32 -21 -144v-550q0 -203 -41 -317q-26 -73 -74 -124.5t-111 -84.5t-138.5 -48.5t-157.5 -15.5q-221 0 -337 77q-73 48 -112.5 101.5t-58 118t-21.5 143t-3 178.5v530q0 63 -8.5 103t-26.5 62t-45.5 30t-65.5 8h-51v37h586
v-37h-52q-48 0 -77 -13.5t-44 -39.5t-19.5 -64t-4.5 -86v-591q0 -50 3 -99t12 -94.5t24.5 -86t40.5 -74.5q39 -54 104.5 -85.5t167.5 -31.5q66 0 126.5 15.5t111 43t87.5 65t56 82.5q39 91 39 307v549q0 128 -28 159q-39 44 -116 44h-51zM555 1725h223l106 -275h-35z" />
    <glyph glyph-name="Uacute" unicode="&#xda;" horiz-adv-x="1479" 
d="M977 1319v37h480v-37h-51q-80 0 -123 -67q-21 -32 -21 -144v-550q0 -203 -41 -317q-26 -73 -74 -124.5t-111 -84.5t-138.5 -48.5t-157.5 -15.5q-221 0 -337 77q-73 48 -112.5 101.5t-58 118t-21.5 143t-3 178.5v530q0 63 -8.5 103t-26.5 62t-45.5 30t-65.5 8h-51v37h586
v-37h-52q-48 0 -77 -13.5t-44 -39.5t-19.5 -64t-4.5 -86v-591q0 -50 3 -99t12 -94.5t24.5 -86t40.5 -74.5q39 -54 104.5 -85.5t167.5 -31.5q66 0 126.5 15.5t111 43t87.5 65t56 82.5q39 91 39 307v549q0 128 -28 159q-39 44 -116 44h-51zM923 1725l-294 -275h-35l106 275
h223z" />
    <glyph glyph-name="Ucircumflex" unicode="&#xdb;" horiz-adv-x="1479" 
d="M977 1319v37h480v-37h-51q-80 0 -123 -67q-21 -32 -21 -144v-550q0 -203 -41 -317q-26 -73 -74 -124.5t-111 -84.5t-138.5 -48.5t-157.5 -15.5q-221 0 -337 77q-73 48 -112.5 101.5t-58 118t-21.5 143t-3 178.5v530q0 63 -8.5 103t-26.5 62t-45.5 30t-65.5 8h-51v37h586
v-37h-52q-48 0 -77 -13.5t-44 -39.5t-19.5 -64t-4.5 -86v-591q0 -50 3 -99t12 -94.5t24.5 -86t40.5 -74.5q39 -54 104.5 -85.5t167.5 -31.5q66 0 126.5 15.5t111 43t87.5 65t56 82.5q39 91 39 307v549q0 128 -28 159q-39 44 -116 44h-51zM647 1725h184l170 -291h-31
l-248 173l-214 -173h-30z" />
    <glyph glyph-name="Udieresis" unicode="&#xdc;" horiz-adv-x="1479" 
d="M977 1319v37h480v-37h-51q-80 0 -123 -67q-21 -32 -21 -144v-550q0 -203 -41 -317q-26 -73 -74 -124.5t-111 -84.5t-138.5 -48.5t-157.5 -15.5q-221 0 -337 77q-73 48 -112.5 101.5t-58 118t-21.5 143t-3 178.5v530q0 63 -8.5 103t-26.5 62t-45.5 30t-65.5 8h-51v37h586
v-37h-52q-48 0 -77 -13.5t-44 -39.5t-19.5 -64t-4.5 -86v-591q0 -50 3 -99t12 -94.5t24.5 -86t40.5 -74.5q39 -54 104.5 -85.5t167.5 -31.5q66 0 126.5 15.5t111 43t87.5 65t56 82.5q39 91 39 307v549q0 128 -28 159q-39 44 -116 44h-51zM916 1707q22 0 42 -8.5t34.5 -23.5
t23 -35t8.5 -42q0 -23 -8.5 -42.5t-23 -34t-34.5 -23t-42 -8.5q-23 0 -42.5 8.5t-34.5 23t-23.5 34t-8.5 42.5q0 22 8.5 42t23.5 35t34.5 23.5t42.5 8.5zM563 1707q23 0 43 -8.5t34.5 -23.5t23 -35t8.5 -42q0 -23 -8.5 -42.5t-23.5 -34t-34.5 -23t-41.5 -8.5
q-23 0 -42.5 8.5t-34.5 23t-23.5 34t-8.5 42.5q0 22 8.5 42t23 35t34 23.5t42.5 8.5z" />
    <glyph glyph-name="Yacute" unicode="&#xdd;" horiz-adv-x="1479" 
d="M976 1356h473v-37h-26q-12 0 -32.5 -6t-43.5 -17t-47 -28t-44 -38q-21 -22 -45.5 -57t-55.5 -83l-327 -515v-340q0 -125 28 -156q37 -42 120 -42h44v-37h-576v37h48q86 0 122 52q22 31 22 146v321l-372 568q-33 51 -55.5 81.5t-34.5 43.5q-6 6 -20 17.5t-35 23.5
t-46.5 20.5t-53.5 8.5v37h580v-37h-30q-22 0 -44.5 -5t-40.5 -16t-29.5 -27.5t-11.5 -39.5q0 -36 61 -130l283 -437l266 418q60 94 60 140q-2 21 -9 39t-22 31t-41 20t-65 7v37zM953 1725l-294 -275h-35l106 275h223z" />
    <glyph glyph-name="Thorn" unicode="&#xde;" horiz-adv-x="1139" 
d="M420 1048h74q150 0 224 -12q75 -13 137.5 -43t108 -75t71 -105t25.5 -133q0 -74 -24 -136.5t-72 -110.5t-119 -80t-164 -44q-18 -2 -65.5 -3.5t-125.5 -1.5h-70v-61q0 -66 8 -106t26 -62.5t47.5 -30t71.5 -7.5h41v-37h-578v37h38q92 0 133 56q20 29 20 147v868
q0 113 -11 140t-48.5 49t-91.5 22h-40v37h578v-37h-40q-16 0 -36.5 -3t-40 -11.5t-36.5 -22.5t-26 -35q-15 -35 -15 -134v-65zM420 375h44q99 0 168.5 22.5t113.5 63t64 96.5t20 122q0 80 -28.5 135.5t-75 90t-107 50t-123.5 15.5h-76v-595z" />
    <glyph glyph-name="germandbls" unicode="&#xdf;" 
d="M35 0v36q46 3 72.5 12.5t40 30.5t16.5 56t3 90v741q0 126 24 213t69.5 141t112 78t151.5 24q81 0 146 -24.5t110.5 -67.5t70.5 -103t25 -130q0 -47 -9 -86.5t-31 -74t-59 -63t-92 -52.5q136 -40 204.5 -138.5t68.5 -260.5q0 -85 -23.5 -163.5t-67 -139t-105.5 -96.5
t-139 -36q-44 0 -79 13t-60.5 35t-39 51.5t-13.5 62.5q0 42 21.5 64.5t57.5 22.5q39 0 60.5 -21.5t21.5 -57.5q0 -20 -5 -40t-5 -28q0 -18 15 -32t41 -14q72 0 111 71t39 198q0 104 -18.5 187.5t-55 142.5t-92 93t-129.5 39v57q106 0 160.5 62.5t54.5 208.5q0 67 -13.5 115
t-39 79t-61 45.5t-78.5 14.5q-39 0 -72.5 -13.5t-58 -49t-38.5 -97.5t-14 -159v-1037h-298z" />
    <glyph glyph-name="agrave" unicode="&#xe0;" horiz-adv-x="909" 
d="M583 132q-141 -110 -177 -126q-53 -25 -115 -25q-47 0 -87 17t-69 48t-45.5 74.5t-16.5 96.5q0 39 10.5 72t31.5 62.5t53.5 56.5t76.5 53q103 61 338 146v36q0 69 -11.5 115t-33 73.5t-53.5 39t-72 11.5q-32 0 -57.5 -9.5t-43.5 -25t-27.5 -36t-9.5 -41.5l2 -58
q0 -46 -23.5 -71t-61.5 -25q-37 0 -60.5 26t-23.5 71q0 42 22.5 83t65 74t105 53t142.5 20q106 0 180 -31t107 -107q18 -44 18 -176v-311q0 -66 1.5 -106t3.5 -55q5 -29 16.5 -39t26.5 -10q10 0 19 3t21 12t28 24.5t41 40.5v-56q-113 -150 -214 -150q-48 0 -78 34t-30 116z
M583 197v349q-76 -30 -124.5 -51t-70.5 -34q-79 -45 -113 -92.5t-34 -104.5q0 -36 11.5 -66.5t31 -53t45.5 -35t54 -12.5q76 0 200 100zM290 1390h223l106 -345h-35z" />
    <glyph glyph-name="aacute" unicode="&#xe1;" horiz-adv-x="909" 
d="M583 132q-141 -110 -177 -126q-53 -25 -115 -25q-47 0 -87 17t-69 48t-45.5 74.5t-16.5 96.5q0 39 10.5 72t31.5 62.5t53.5 56.5t76.5 53q103 61 338 146v36q0 69 -11.5 115t-33 73.5t-53.5 39t-72 11.5q-32 0 -57.5 -9.5t-43.5 -25t-27.5 -36t-9.5 -41.5l2 -58
q0 -46 -23.5 -71t-61.5 -25q-37 0 -60.5 26t-23.5 71q0 42 22.5 83t65 74t105 53t142.5 20q106 0 180 -31t107 -107q18 -44 18 -176v-311q0 -66 1.5 -106t3.5 -55q5 -29 16.5 -39t26.5 -10q10 0 19 3t21 12t28 24.5t41 40.5v-56q-113 -150 -214 -150q-48 0 -78 34t-30 116z
M583 197v349q-76 -30 -124.5 -51t-70.5 -34q-79 -45 -113 -92.5t-34 -104.5q0 -36 11.5 -66.5t31 -53t45.5 -35t54 -12.5q76 0 200 100zM619 1390l-295 -345h-34l105 345h224z" />
    <glyph glyph-name="acircumflex" unicode="&#xe2;" horiz-adv-x="909" 
d="M583 132q-141 -110 -177 -126q-53 -25 -115 -25q-47 0 -87 17t-69 48t-45.5 74.5t-16.5 96.5q0 39 10.5 72t31.5 62.5t53.5 56.5t76.5 53q103 61 338 146v36q0 69 -11.5 115t-33 73.5t-53.5 39t-72 11.5q-32 0 -57.5 -9.5t-43.5 -25t-27.5 -36t-9.5 -41.5l2 -58
q0 -46 -23.5 -71t-61.5 -25q-37 0 -60.5 26t-23.5 71q0 42 22.5 83t65 74t105 53t142.5 20q106 0 180 -31t107 -107q18 -44 18 -176v-311q0 -66 1.5 -106t3.5 -55q5 -29 16.5 -39t26.5 -10q10 0 19 3t21 12t28 24.5t41 40.5v-56q-113 -150 -214 -150q-48 0 -78 34t-30 116z
M583 197v349q-76 -30 -124.5 -51t-70.5 -34q-79 -45 -113 -92.5t-34 -104.5q0 -36 11.5 -66.5t31 -53t45.5 -35t54 -12.5q76 0 200 100zM362 1385h184l190 -331h-31l-273 213l-229 -213h-30z" />
    <glyph glyph-name="atilde" unicode="&#xe3;" horiz-adv-x="909" 
d="M583 132q-141 -110 -177 -126q-53 -25 -115 -25q-47 0 -87 17t-69 48t-45.5 74.5t-16.5 96.5q0 39 10.5 72t31.5 62.5t53.5 56.5t76.5 53q103 61 338 146v36q0 69 -11.5 115t-33 73.5t-53.5 39t-72 11.5q-32 0 -57.5 -9.5t-43.5 -25t-27.5 -36t-9.5 -41.5l2 -58
q0 -46 -23.5 -71t-61.5 -25q-37 0 -60.5 26t-23.5 71q0 42 22.5 83t65 74t105 53t142.5 20q106 0 180 -31t107 -107q18 -44 18 -176v-311q0 -66 1.5 -106t3.5 -55q5 -29 16.5 -39t26.5 -10q10 0 19 3t21 12t28 24.5t41 40.5v-56q-113 -150 -214 -150q-48 0 -78 34t-30 116z
M583 197v349q-76 -30 -124.5 -51t-70.5 -34q-79 -45 -113 -92.5t-34 -104.5q0 -36 11.5 -66.5t31 -53t45.5 -35t54 -12.5q76 0 200 100zM167 1097h-32q2 69 17.5 118t40.5 80.5t58 46t72 14.5q24 0 44 -3.5t42.5 -13.5t50 -26.5t65.5 -41.5q41 -28 72 -41t51 -13
q15 0 29.5 5.5t26.5 21t22 42.5t17 70h31q0 -65 -15 -114.5t-41 -82.5t-60.5 -49.5t-73.5 -16.5q-78 0 -196 80q-33 22 -52.5 34.5t-32.5 18.5t-22.5 7t-20.5 1q-41 0 -65 -36q-5 -8 -12.5 -33.5t-15.5 -67.5z" />
    <glyph glyph-name="adieresis" unicode="&#xe4;" horiz-adv-x="909" 
d="M583 132q-141 -110 -177 -126q-53 -25 -115 -25q-47 0 -87 17t-69 48t-45.5 74.5t-16.5 96.5q0 39 10.5 72t31.5 62.5t53.5 56.5t76.5 53q103 61 338 146v36q0 69 -11.5 115t-33 73.5t-53.5 39t-72 11.5q-32 0 -57.5 -9.5t-43.5 -25t-27.5 -36t-9.5 -41.5l2 -58
q0 -46 -23.5 -71t-61.5 -25q-37 0 -60.5 26t-23.5 71q0 42 22.5 83t65 74t105 53t142.5 20q106 0 180 -31t107 -107q18 -44 18 -176v-311q0 -66 1.5 -106t3.5 -55q5 -29 16.5 -39t26.5 -10q10 0 19 3t21 12t28 24.5t41 40.5v-56q-113 -150 -214 -150q-48 0 -78 34t-30 116z
M583 197v349q-76 -30 -124.5 -51t-70.5 -34q-79 -45 -113 -92.5t-34 -104.5q0 -36 11.5 -66.5t31 -53t45.5 -35t54 -12.5q76 0 200 100zM631 1337q22 0 42 -8.5t34.5 -23.5t23 -35t8.5 -42q0 -23 -8.5 -42.5t-23 -34t-34.5 -23t-42 -8.5q-23 0 -42.5 8.5t-34.5 23t-23.5 34
t-8.5 42.5q0 22 8.5 42t23.5 35t34.5 23.5t42.5 8.5zM278 1337q23 0 43 -8.5t34.5 -23.5t23 -35t8.5 -42q0 -23 -8.5 -42.5t-23.5 -34t-34.5 -23t-41.5 -8.5q-23 0 -42.5 8.5t-34.5 23t-23.5 34t-8.5 42.5q0 22 8.5 42t23 35t34 23.5t42.5 8.5z" />
    <glyph glyph-name="aring" unicode="&#xe5;" horiz-adv-x="909" 
d="M583 132q-141 -110 -177 -126q-53 -25 -115 -25q-47 0 -87 17t-69 48t-45.5 74.5t-16.5 96.5q0 39 10.5 72t31.5 62.5t53.5 56.5t76.5 53q103 61 338 146v36q0 69 -11.5 115t-33 73.5t-53.5 39t-72 11.5q-32 0 -57.5 -9.5t-43.5 -25t-27.5 -36t-9.5 -41.5l2 -58
q0 -46 -23.5 -71t-61.5 -25q-37 0 -60.5 26t-23.5 71q0 42 22.5 83t65 74t105 53t142.5 20q106 0 180 -31t107 -107q18 -44 18 -176v-311q0 -66 1.5 -106t3.5 -55q5 -29 16.5 -39t26.5 -10q10 0 19 3t21 12t28 24.5t41 40.5v-56q-113 -150 -214 -150q-48 0 -78 34t-30 116z
M583 197v349q-76 -30 -124.5 -51t-70.5 -34q-79 -45 -113 -92.5t-34 -104.5q0 -36 11.5 -66.5t31 -53t45.5 -35t54 -12.5q76 0 200 100zM458 1426q39 0 74 -15t61.5 -41t41.5 -61t15 -74q0 -40 -15 -75t-41 -61t-61 -41t-75 -15q-39 0 -74 15t-61 41.5t-41 61.5t-15 74
q0 40 15 74.5t41 60.5t60.5 41t74.5 15zM458 1357q-25 0 -47.5 -9.5t-39 -26t-26 -39t-9.5 -47.5t9.5 -47.5t26 -39t39 -26t47.5 -9.5t47.5 10t39 26.5t26 38.5t9.5 47t-9.5 47.5t-26 39t-39 26t-47.5 9.5z" />
    <glyph glyph-name="ae" unicode="&#xe6;" horiz-adv-x="1366" 
d="M734 567q-1 -26 -1 -45v-29q0 -102 19.5 -172.5t53.5 -114.5t81 -64t102 -20q97 0 176 61q50 40 107 159l32 -22q-15 -66 -46 -129t-77.5 -111.5t-108.5 -78t-138 -29.5q-108 0 -185 47q-35 22 -111 113q-5 -4 -25 -19.5t-42.5 -33t-42 -32t-23.5 -16.5q-48 -27 -100 -43
t-109 -16q-48 0 -88.5 18t-70.5 49t-47 73t-17 89q0 44 9 80t33 68t65.5 62.5t106.5 63.5q78 40 147 70.5t129 51.5v92q0 54 -10.5 91.5t-29.5 61t-46.5 34t-60.5 10.5t-59.5 -9t-44.5 -24t-27.5 -34t-9.5 -38q0 -50 -4 -81t-13.5 -48.5t-25 -24t-37.5 -6.5q-23 0 -40 9
t-28 22.5t-16.5 30.5t-5.5 33q0 41 22.5 81.5t65.5 73t105 53t142 20.5q62 0 108 -9.5t79 -26.5t53 -39.5t30 -47.5q27 34 56.5 58t62.5 38t70 20.5t80 6.5q72 0 131.5 -24.5t102.5 -72.5t67 -118.5t24 -161.5h-570zM734 632h378q-1 63 -15 108.5t-38.5 75t-58 43.5
t-73.5 14q-39 0 -74 -15.5t-61 -46.5t-41.5 -76t-16.5 -103zM610 184q-10 22 -18.5 52.5t-15 65.5t-10 71.5t-3.5 69.5v89q-135 -42 -248 -128q-74 -57 -74 -146q0 -40 13 -73t35 -56.5t51 -36.5t62 -13q20 0 39.5 4t43 15.5t53.5 32t72 53.5z" />
    <glyph glyph-name="ccedilla" unicode="&#xe7;" horiz-adv-x="909" 
d="M842 348q-19 -91 -57 -161t-89 -118t-112 -72.5t-126 -24.5q-77 0 -147 34t-123.5 97t-85.5 152.5t-32 201.5q0 108 35 197.5t94.5 153.5t139 99.5t168.5 35.5q67 0 123.5 -20t97.5 -52t64.5 -71t23.5 -77t-24 -61.5t-69 -23.5q-23 0 -42.5 5t-34 18t-23.5 36t-12 59
q-5 59 -39.5 89.5t-97.5 30.5q-59 0 -104 -26.5t-76 -72t-46.5 -106t-15.5 -128.5q0 -80 20.5 -154.5t59 -132.5t93.5 -93t125 -35q42 0 80 10.5t73 36.5t67.5 71.5t62.5 115.5zM474 16h60l-50 -79q63 -16 94 -54t31 -92q0 -36 -16 -69t-45 -57.5t-68.5 -39.5t-85.5 -15
q-19 0 -42 1.5t-52 5.5v43q14 -2 26 -3t22 -1q25 0 47 9t38.5 24t26 35t9.5 42q0 30 -23 52t-57 22q-5 0 -11.5 -0.5t-14.5 -1.5z" />
    <glyph glyph-name="egrave" unicode="&#xe8;" horiz-adv-x="909" 
d="M218 571q0 -102 27 -183t73 -137.5t106.5 -86t127.5 -29.5q90 0 156.5 49.5t111.5 169.5l31 -20q-11 -67 -42 -132t-79.5 -116t-113 -82.5t-140.5 -31.5q-82 0 -154.5 33.5t-127 95t-86.5 149t-32 196.5q0 119 32.5 211.5t89.5 156.5t134.5 97t166.5 33q76 0 140.5 -26.5
t111.5 -75.5t73.5 -117.5t26.5 -153.5h-633zM218 629h424q-4 88 -21 124q-25 56 -74.5 88t-103.5 32q-41 0 -79 -16.5t-69 -48t-51.5 -76.5t-25.5 -103zM290 1390h223l106 -345h-35z" />
    <glyph glyph-name="eacute" unicode="&#xe9;" horiz-adv-x="909" 
d="M218 571q0 -102 27 -183t73 -137.5t106.5 -86t127.5 -29.5q90 0 156.5 49.5t111.5 169.5l31 -20q-11 -67 -42 -132t-79.5 -116t-113 -82.5t-140.5 -31.5q-82 0 -154.5 33.5t-127 95t-86.5 149t-32 196.5q0 119 32.5 211.5t89.5 156.5t134.5 97t166.5 33q76 0 140.5 -26.5
t111.5 -75.5t73.5 -117.5t26.5 -153.5h-633zM218 629h424q-4 88 -21 124q-25 56 -74.5 88t-103.5 32q-41 0 -79 -16.5t-69 -48t-51.5 -76.5t-25.5 -103zM619 1390l-295 -345h-34l105 345h224z" />
    <glyph glyph-name="ecircumflex" unicode="&#xea;" horiz-adv-x="909" 
d="M218 571q0 -102 27 -183t73 -137.5t106.5 -86t127.5 -29.5q90 0 156.5 49.5t111.5 169.5l31 -20q-11 -67 -42 -132t-79.5 -116t-113 -82.5t-140.5 -31.5q-82 0 -154.5 33.5t-127 95t-86.5 149t-32 196.5q0 119 32.5 211.5t89.5 156.5t134.5 97t166.5 33q76 0 140.5 -26.5
t111.5 -75.5t73.5 -117.5t26.5 -153.5h-633zM218 629h424q-4 88 -21 124q-25 56 -74.5 88t-103.5 32q-41 0 -79 -16.5t-69 -48t-51.5 -76.5t-25.5 -103zM362 1385h184l190 -331h-31l-273 213l-229 -213h-30z" />
    <glyph glyph-name="edieresis" unicode="&#xeb;" horiz-adv-x="909" 
d="M218 571q0 -102 27 -183t73 -137.5t106.5 -86t127.5 -29.5q90 0 156.5 49.5t111.5 169.5l31 -20q-11 -67 -42 -132t-79.5 -116t-113 -82.5t-140.5 -31.5q-82 0 -154.5 33.5t-127 95t-86.5 149t-32 196.5q0 119 32.5 211.5t89.5 156.5t134.5 97t166.5 33q76 0 140.5 -26.5
t111.5 -75.5t73.5 -117.5t26.5 -153.5h-633zM218 629h424q-4 88 -21 124q-25 56 -74.5 88t-103.5 32q-41 0 -79 -16.5t-69 -48t-51.5 -76.5t-25.5 -103zM631 1337q22 0 42 -8.5t34.5 -23.5t23 -35t8.5 -42q0 -23 -8.5 -42.5t-23 -34t-34.5 -23t-42 -8.5q-23 0 -42.5 8.5
t-34.5 23t-23.5 34t-8.5 42.5q0 22 8.5 42t23.5 35t34.5 23.5t42.5 8.5zM278 1337q23 0 43 -8.5t34.5 -23.5t23 -35t8.5 -42q0 -23 -8.5 -42.5t-23.5 -34t-34.5 -23t-41.5 -8.5q-23 0 -42.5 8.5t-34.5 23t-23.5 34t-8.5 42.5q0 22 8.5 42t23 35t34 23.5t42.5 8.5z" />
    <glyph glyph-name="igrave" unicode="&#xec;" horiz-adv-x="569" 
d="M379 943v-736q0 -44 3 -71.5t9.5 -44t16 -25.5t21.5 -16q26 -14 90 -14v-36h-445v36q34 0 55.5 3t35 10t21 17.5t14.5 25.5q14 31 14 115v353q0 87 -3 137t-10.5 75t-22 31.5t-36.5 6.5q-28 0 -68 -15l-14 36l276 112h43zM77 1390h223l106 -345h-35z" />
    <glyph glyph-name="iacute" unicode="&#xed;" horiz-adv-x="569" 
d="M379 943v-736q0 -44 3 -71.5t9.5 -44t16 -25.5t21.5 -16q26 -14 90 -14v-36h-445v36q34 0 55.5 3t35 10t21 17.5t14.5 25.5q14 31 14 115v353q0 87 -3 137t-10.5 75t-22 31.5t-36.5 6.5q-28 0 -68 -15l-14 36l276 112h43zM498 1390l-295 -345h-34l105 345h224z" />
    <glyph glyph-name="icircumflex" unicode="&#xee;" horiz-adv-x="569" 
d="M379 943v-736q0 -44 3 -71.5t9.5 -44t16 -25.5t21.5 -16q26 -14 90 -14v-36h-445v36q34 0 55.5 3t35 10t21 17.5t14.5 25.5q14 31 14 115v353q0 87 -3 137t-10.5 75t-22 31.5t-36.5 6.5q-28 0 -68 -15l-14 36l276 112h43zM202 1385h184l190 -331h-31l-273 213l-229 -213
h-30z" />
    <glyph glyph-name="idieresis" unicode="&#xef;" horiz-adv-x="569" 
d="M379 943v-736q0 -44 3 -71.5t9.5 -44t16 -25.5t21.5 -16q26 -14 90 -14v-36h-445v36q34 0 55.5 3t35 10t21 17.5t14.5 25.5q14 31 14 115v353q0 87 -3 137t-10.5 75t-22 31.5t-36.5 6.5q-28 0 -68 -15l-14 36l276 112h43zM463 1336q22 0 42 -8.5t34.5 -23.5t23 -35
t8.5 -42q0 -23 -8.5 -42.5t-23 -34t-34.5 -23t-42 -8.5q-23 0 -42.5 8.5t-34.5 23t-23.5 34t-8.5 42.5q0 22 8.5 42t23.5 35t34.5 23.5t42.5 8.5zM110 1336q23 0 43 -8.5t34.5 -23.5t23 -35t8.5 -42q0 -23 -8.5 -42.5t-23.5 -34t-34.5 -23t-41.5 -8.5q-23 0 -42.5 8.5
t-34.5 23t-23.5 34t-8.5 42.5q0 22 8.5 42t23 35t34 23.5t42.5 8.5z" />
    <glyph glyph-name="eth" unicode="&#xf0;" 
d="M469 1169l-247 -135l-30 55l233 132l-57 57t-41.5 38t-39.5 29.5t-50 33.5l27 43q60 -30 121.5 -68.5t125.5 -86.5l249 139l34 -55l-229 -130q189 -164 287 -364q97 -197 97 -383q0 -140 -58 -256q-28 -57 -69 -103t-91.5 -77.5t-109 -48.5t-122.5 -17q-89 0 -167.5 35.5
t-137 98t-92.5 148.5t-34 187q0 93 31.5 182t87 158.5t132.5 111.5t169 42q23 0 42 -2t38 -8t40.5 -17.5t48.5 -31.5q-79 165 -188 293zM479 874q-47 0 -88.5 -19t-72 -61t-48 -110t-17.5 -166q0 -116 25.5 -204.5t67 -149t94 -91.5t107.5 -31q45 0 84.5 19t69 59.5
t46.5 104t17 152.5q0 111 -20.5 202.5t-58 157t-90 101.5t-116.5 36z" />
    <glyph glyph-name="ntilde" unicode="&#xf1;" 
d="M331 749q161 194 307 194q51 0 94 -17t75 -57t50 -106t18 -165v-391q0 -59 6.5 -93t22.5 -51.5t43 -22t68 -4.5v-36h-453v36h19q45 0 70.5 8t38.5 27.5t16.5 52.5t3.5 83v375q0 125 -32.5 181.5t-109.5 56.5q-119 0 -237 -130v-483q0 -91 11 -115q7 -15 15.5 -26
t23 -17.5t38 -9.5t61.5 -3v-36h-453v36h20q36 0 59 8t36.5 28t18.5 52.5t5 82.5v340q0 163 -8 201q-7 36 -22.5 49t-41.5 13q-28 0 -67 -15l-15 36l276 112h43v-194zM224 1097h-32q2 69 17.5 118t40.5 80.5t58 46t72 14.5q24 0 44 -3.5t42.5 -13.5t50 -26.5t65.5 -41.5
q41 -28 72 -41t51 -13q15 0 29.5 5.5t26.5 21t22 42.5t17 70h31q0 -65 -15 -114.5t-41 -82.5t-60.5 -49.5t-73.5 -16.5q-78 0 -196 80q-33 22 -52.5 34.5t-32.5 18.5t-22.5 7t-20.5 1q-41 0 -65 -36q-5 -8 -12.5 -33.5t-15.5 -67.5z" />
    <glyph glyph-name="ograve" unicode="&#xf2;" 
d="M512 943q97 0 178 -38t139.5 -102t91 -149t32.5 -179q0 -99 -33.5 -189.5t-93.5 -160.5t-143 -111.5t-182 -41.5q-97 0 -176.5 40t-136.5 106.5t-88 152.5t-31 178q0 93 32 182t90.5 158.5t140 111.5t180.5 42zM481 878q-44 0 -84.5 -18.5t-72 -60t-50.5 -107t-19 -159.5
q0 -97 20.5 -186t58 -156.5t91 -107.5t119.5 -40q48 0 88.5 18.5t70.5 60t47 109.5t17 167t-19 186t-55.5 152.5t-90 103.5t-121.5 38zM347 1390h223l106 -345h-35z" />
    <glyph glyph-name="oacute" unicode="&#xf3;" 
d="M512 943q97 0 178 -38t139.5 -102t91 -149t32.5 -179q0 -99 -33.5 -189.5t-93.5 -160.5t-143 -111.5t-182 -41.5q-97 0 -176.5 40t-136.5 106.5t-88 152.5t-31 178q0 93 32 182t90.5 158.5t140 111.5t180.5 42zM481 878q-44 0 -84.5 -18.5t-72 -60t-50.5 -107t-19 -159.5
q0 -97 20.5 -186t58 -156.5t91 -107.5t119.5 -40q48 0 88.5 18.5t70.5 60t47 109.5t17 167t-19 186t-55.5 152.5t-90 103.5t-121.5 38zM676 1390l-295 -345h-34l105 345h224z" />
    <glyph glyph-name="ocircumflex" unicode="&#xf4;" 
d="M512 943q97 0 178 -38t139.5 -102t91 -149t32.5 -179q0 -99 -33.5 -189.5t-93.5 -160.5t-143 -111.5t-182 -41.5q-97 0 -176.5 40t-136.5 106.5t-88 152.5t-31 178q0 93 32 182t90.5 158.5t140 111.5t180.5 42zM481 878q-44 0 -84.5 -18.5t-72 -60t-50.5 -107t-19 -159.5
q0 -97 20.5 -186t58 -156.5t91 -107.5t119.5 -40q48 0 88.5 18.5t70.5 60t47 109.5t17 167t-19 186t-55.5 152.5t-90 103.5t-121.5 38zM419 1385h184l190 -331h-31l-273 213l-229 -213h-30z" />
    <glyph glyph-name="otilde" unicode="&#xf5;" 
d="M512 943q97 0 178 -38t139.5 -102t91 -149t32.5 -179q0 -99 -33.5 -189.5t-93.5 -160.5t-143 -111.5t-182 -41.5q-97 0 -176.5 40t-136.5 106.5t-88 152.5t-31 178q0 93 32 182t90.5 158.5t140 111.5t180.5 42zM481 878q-44 0 -84.5 -18.5t-72 -60t-50.5 -107t-19 -159.5
q0 -97 20.5 -186t58 -156.5t91 -107.5t119.5 -40q48 0 88.5 18.5t70.5 60t47 109.5t17 167t-19 186t-55.5 152.5t-90 103.5t-121.5 38zM224 1097h-32q2 69 17.5 118t40.5 80.5t58 46t72 14.5q24 0 44 -3.5t42.5 -13.5t50 -26.5t65.5 -41.5q41 -28 72 -41t51 -13
q15 0 29.5 5.5t26.5 21t22 42.5t17 70h31q0 -65 -15 -114.5t-41 -82.5t-60.5 -49.5t-73.5 -16.5q-78 0 -196 80q-33 22 -52.5 34.5t-32.5 18.5t-22.5 7t-20.5 1q-41 0 -65 -36q-5 -8 -12.5 -33.5t-15.5 -67.5z" />
    <glyph glyph-name="odieresis" unicode="&#xf6;" 
d="M512 943q97 0 178 -38t139.5 -102t91 -149t32.5 -179q0 -99 -33.5 -189.5t-93.5 -160.5t-143 -111.5t-182 -41.5q-97 0 -176.5 40t-136.5 106.5t-88 152.5t-31 178q0 93 32 182t90.5 158.5t140 111.5t180.5 42zM481 878q-44 0 -84.5 -18.5t-72 -60t-50.5 -107t-19 -159.5
q0 -97 20.5 -186t58 -156.5t91 -107.5t119.5 -40q48 0 88.5 18.5t70.5 60t47 109.5t17 167t-19 186t-55.5 152.5t-90 103.5t-121.5 38zM688 1337q22 0 42 -8.5t34.5 -23.5t23 -35t8.5 -42q0 -23 -8.5 -42.5t-23 -34t-34.5 -23t-42 -8.5q-23 0 -42.5 8.5t-34.5 23t-23.5 34
t-8.5 42.5q0 22 8.5 42t23.5 35t34.5 23.5t42.5 8.5zM335 1337q23 0 43 -8.5t34.5 -23.5t23 -35t8.5 -42q0 -23 -8.5 -42.5t-23.5 -34t-34.5 -23t-41.5 -8.5q-23 0 -42.5 8.5t-34.5 23t-23.5 34t-8.5 42.5q0 22 8.5 42t23 35t34 23.5t42.5 8.5z" />
    <glyph glyph-name="divide" unicode="&#xf7;" horiz-adv-x="1124" 
d="M562 1075q36 0 61.5 -25.5t25.5 -61.5t-25.5 -61.5t-62.5 -25.5q-36 0 -61.5 25.5t-25.5 61.5t25.5 61.5t62.5 25.5zM1101 640h-1078v82h1078v-82zM562 455q37 0 62.5 -26t25.5 -62q0 -18 -7 -34t-19 -28t-28 -19t-34 -7t-34 7t-28 19t-19 28t-7 34q0 36 25.5 62t62.5 26
z" />
    <glyph glyph-name="oslash" unicode="&#xf8;" 
d="M806 832l133 147l46 -43l-135 -152q106 -134 106 -312q0 -98 -33 -188.5t-92.5 -159.5t-142 -110.5t-181.5 -41.5q-42 0 -77.5 6t-69.5 19.5t-67.5 35t-71.5 53.5l-135 -153l-47 43l141 159q-24 30 -44 69.5t-33.5 82.5t-21 86.5t-7.5 81.5q0 95 34.5 183.5t95 156
t142 108t175.5 40.5q82 0 148.5 -26t136.5 -85zM704 719q-26 44 -50.5 74.5t-50 49t-54 26.5t-61.5 8q-48 0 -89.5 -19t-72.5 -60t-48.5 -107t-17.5 -159q0 -124 39 -262zM732 654l-403 -450q26 -47 50 -77.5t49.5 -49.5t54.5 -26.5t64 -7.5q48 0 89 18.5t71 60.5t47 110.5
t17 169.5q0 121 -39 252z" />
    <glyph glyph-name="ugrave" unicode="&#xf9;" 
d="M867 916v-555q0 -161 7 -195q8 -35 24.5 -49t38.5 -14q30 0 70 17l14 -35l-274 -113h-45v194q-119 -128 -180 -161q-62 -33 -131 -33q-77 0 -133 43.5t-79 115.5q-22 69 -22 198v409q0 45 -7.5 73t-24.5 43t-44.5 20t-66.5 5h-12v37h321v-613q0 -66 12.5 -107t33.5 -63.5
t48.5 -30t57.5 -7.5q21 0 45.5 6t52 21t59.5 40t70 63v519q0 39 -6 64.5t-22.5 41t-45 22t-73.5 7.5v37h312zM347 1390h223l106 -345h-35z" />
    <glyph glyph-name="uacute" unicode="&#xfa;" 
d="M867 916v-555q0 -161 7 -195q8 -35 24.5 -49t38.5 -14q30 0 70 17l14 -35l-274 -113h-45v194q-119 -128 -180 -161q-62 -33 -131 -33q-77 0 -133 43.5t-79 115.5q-22 69 -22 198v409q0 45 -7.5 73t-24.5 43t-44.5 20t-66.5 5h-12v37h321v-613q0 -66 12.5 -107t33.5 -63.5
t48.5 -30t57.5 -7.5q21 0 45.5 6t52 21t59.5 40t70 63v519q0 39 -6 64.5t-22.5 41t-45 22t-73.5 7.5v37h312zM676 1390l-295 -345h-34l105 345h224z" />
    <glyph glyph-name="ucircumflex" unicode="&#xfb;" 
d="M867 916v-555q0 -161 7 -195q8 -35 24.5 -49t38.5 -14q30 0 70 17l14 -35l-274 -113h-45v194q-119 -128 -180 -161q-62 -33 -131 -33q-77 0 -133 43.5t-79 115.5q-22 69 -22 198v409q0 45 -7.5 73t-24.5 43t-44.5 20t-66.5 5h-12v37h321v-613q0 -66 12.5 -107t33.5 -63.5
t48.5 -30t57.5 -7.5q21 0 45.5 6t52 21t59.5 40t70 63v519q0 39 -6 64.5t-22.5 41t-45 22t-73.5 7.5v37h312zM419 1385h184l190 -331h-31l-273 213l-229 -213h-30z" />
    <glyph glyph-name="udieresis" unicode="&#xfc;" 
d="M867 916v-555q0 -161 7 -195q8 -35 24.5 -49t38.5 -14q30 0 70 17l14 -35l-274 -113h-45v194q-119 -128 -180 -161q-62 -33 -131 -33q-77 0 -133 43.5t-79 115.5q-22 69 -22 198v409q0 45 -7.5 73t-24.5 43t-44.5 20t-66.5 5h-12v37h321v-613q0 -66 12.5 -107t33.5 -63.5
t48.5 -30t57.5 -7.5q21 0 45.5 6t52 21t59.5 40t70 63v519q0 39 -6 64.5t-22.5 41t-45 22t-73.5 7.5v37h312zM688 1337q22 0 42 -8.5t34.5 -23.5t23 -35t8.5 -42q0 -23 -8.5 -42.5t-23 -34t-34.5 -23t-42 -8.5q-23 0 -42.5 8.5t-34.5 23t-23.5 34t-8.5 42.5q0 22 8.5 42
t23.5 35t34.5 23.5t42.5 8.5zM335 1337q23 0 43 -8.5t34.5 -23.5t23 -35t8.5 -42q0 -23 -8.5 -42.5t-23.5 -34t-34.5 -23t-41.5 -8.5q-23 0 -42.5 8.5t-34.5 23t-23.5 34t-8.5 42.5q0 22 8.5 42t23 35t34 23.5t42.5 8.5z" />
    <glyph glyph-name="yacute" unicode="&#xfd;" 
d="M12 916h427v-37h-21q-45 0 -67.5 -19.5t-22.5 -48.5q0 -39 33 -108l223 -462l205 506q17 42 17 81q0 12 -3 21t-12.5 16t-28 10.5t-48.5 3.5v37h298v-37q-26 -3 -43 -7.5t-31.5 -18t-28 -40t-32.5 -72.5l-373 -914q-27 -66 -64 -116.5t-78 -84t-84.5 -51t-83.5 -17.5
q-30 0 -54.5 9.5t-42.5 25t-28 35.5t-10 42q0 42 27.5 67.5t75.5 25.5q11 0 32.5 -6t44 -12.5t40.5 -12.5t23 -6q15 0 31.5 7t34 24t35.5 46.5t36 73.5l65 159l-329 691q-5 11 -16.5 29.5t-24.5 37.5t-26 35t-22 22q-21 16 -74 28v37zM676 1390l-295 -345h-34l105 345h224z
" />
    <glyph glyph-name="thorn" unicode="&#xfe;" 
d="M-2 1308l282 114h38v-697q36 60 71.5 102t71.5 67.5t73.5 37t76.5 11.5q78 0 141.5 -36t108 -97.5t69 -143.5t24.5 -175q0 -104 -29.5 -198.5t-84 -165.5t-131.5 -113t-173 -42q-33 0 -61 3t-53.5 12t-50.5 24.5t-53 41.5v-279q0 -48 2.5 -76t8.5 -43.5t15.5 -23.5
t24.5 -15q28 -15 104 -15v-38h-480v38l25 -1q40 -2 74 10t49 47q11 25 11 123v1349q0 53 -3.5 85t-13 49t-25 22.5t-39.5 5.5t-61 -15zM318 666v-342q0 -112 9 -146q7 -29 24.5 -55.5t44.5 -46.5t61.5 -32t75.5 -12q58 0 103.5 27.5t76.5 76t47 115.5t16 146
q0 86 -17.5 159.5t-49.5 127t-77 84t-100 30.5q-49 0 -95 -24q-37 -18 -119 -108z" />
    <glyph glyph-name="ydieresis" unicode="&#xff;" 
d="M12 916h427v-37h-21q-45 0 -67.5 -19.5t-22.5 -48.5q0 -39 33 -108l223 -462l205 506q17 42 17 81q0 12 -3 21t-12.5 16t-28 10.5t-48.5 3.5v37h298v-37q-26 -3 -43 -7.5t-31.5 -18t-28 -40t-32.5 -72.5l-373 -914q-27 -66 -64 -116.5t-78 -84t-84.5 -51t-83.5 -17.5
q-30 0 -54.5 9.5t-42.5 25t-28 35.5t-10 42q0 42 27.5 67.5t75.5 25.5q11 0 32.5 -6t44 -12.5t40.5 -12.5t23 -6q15 0 31.5 7t34 24t35.5 46.5t36 73.5l65 159l-329 691q-5 11 -16.5 29.5t-24.5 37.5t-26 35t-22 22q-21 16 -74 28v37zM688 1337q22 0 42 -8.5t34.5 -23.5
t23 -35t8.5 -42q0 -23 -8.5 -42.5t-23 -34t-34.5 -23t-42 -8.5q-23 0 -42.5 8.5t-34.5 23t-23.5 34t-8.5 42.5q0 22 8.5 42t23.5 35t34.5 23.5t42.5 8.5zM335 1337q23 0 43 -8.5t34.5 -23.5t23 -35t8.5 -42q0 -23 -8.5 -42.5t-23.5 -34t-34.5 -23t-41.5 -8.5
q-23 0 -42.5 8.5t-34.5 23t-23.5 34t-8.5 42.5q0 22 8.5 42t23 35t34 23.5t42.5 8.5z" />
    <glyph glyph-name="afii61664" unicode="&#x200c;" horiz-adv-x="48" 
d="M0 -446v2167h48v-2167h-48z" />
    <glyph glyph-name="afii301" unicode="&#x200d;" horiz-adv-x="46" 
d="M139 1428l-93 92v-1963h-46v1962l-94 -91l-31 33l116 115l-116 115l31 34l118 -116l115 116l35 -34l-119 -115l119 -115z" />
    <glyph glyph-name="uni25CC" unicode="&#x25cc;" horiz-adv-x="1217" 
d="M980 918q0 -50 -48 -50q-52 0 -52 50t52 50q48 0 48 -50zM832 1016q0 -49 -48 -49q-52 0 -52 49q0 51 52 51q48 0 48 -51zM1079 770q0 -51 -51 -51q-49 0 -49 51q0 49 51 49q49 0 49 -49zM1115 596q0 -50 -48 -50q-52 0 -52 50t52 50q48 0 48 -50zM658 1053
q0 -51 -50 -51t-50 51q0 49 50 49t50 -49zM485 1016q0 -49 -51 -49q-49 0 -49 49q0 51 49 51q51 0 51 -51zM1079 422q0 -49 -51 -49q-49 0 -49 49q0 51 49 51q51 0 51 -51zM337 918q0 -50 -50 -50t-50 47q0 53 50 53t50 -50zM980 272q0 -49 -48 -49q-52 0 -52 49q0 51 52 51
q48 0 48 -51zM832 174q0 -48 -48 -48q-52 0 -52 48q0 52 52 52q48 0 48 -52zM238 770q0 -51 -48 -51q-52 0 -52 51q0 49 50 49t50 -49zM202 596q1 -50 -48 -50q-52 0 -52 50t52 50q49 0 48 -50zM658 141q0 -51 -50 -51t-50 51q0 49 50 49t50 -49zM238 422q0 -49 -50 -49
t-50 49q0 51 50 51t50 -51zM485 178q0 -52 -51 -52q-49 0 -49 48q0 52 49 52q51 0 51 -48zM337 272q0 -49 -50 -49t-50 49q0 51 50 51t50 -51z" />
    <glyph glyph-name="uni18AA" unicode="&#x18aa;" horiz-adv-x="757" 
d="M717 909v-182h-335q-3 -75 -13.5 -153t-23.5 -157l-36 -10q-20 43 -34 95t-24 102t-14.5 91.5t-4.5 63.5v150q0 40 -9.5 64.5t-32.5 24.5q-16 0 -28.5 -2.5t-24 -7.5t-23.5 -12t-27 -17q-25 -17 -38.5 -29.5t-20.5 -12.5q-11 10 -19.5 22.5t-8.5 21.5q11 11 25 28t28 33
q64 74 110 108t81 37l20 139l-39 -1q-82 0 -120.5 45t-38.5 118q0 27 6 54t26 53q5 -36 14.5 -60.5t25.5 -39.5t40.5 -21t59.5 -6q32 0 58 -7t36 -17l-43 -269q27 -17 41.5 -56t14.5 -93v-97h372zM687 1154q0 -69 -38.5 -107.5t-107.5 -38.5q-67 0 -106 38.5t-39 107.5
q0 59 38 96t107 37q71 0 108.5 -37t37.5 -96zM636 1152q0 37 -25 62t-70 25q-44 0 -69 -25t-25 -62q0 -44 25.5 -69.5t68.5 -25.5q45 0 70 25.5t25 69.5z" />
    <glyph glyph-name="uni18AA.init" horiz-adv-x="757" 
d="M827 909v-182h-445q-3 -75 -13.5 -153t-23.5 -157l-36 -10q-20 43 -34 95t-24 102t-14.5 91.5t-4.5 63.5v150q0 40 -9.5 64.5t-32.5 24.5q-16 0 -28.5 -2.5t-24 -7.5t-23.5 -12t-27 -17q-25 -17 -38.5 -29.5t-20.5 -12.5q-11 10 -19.5 22.5t-8.5 21.5q11 11 25 28t28 33
q64 74 110 108t81 37l20 139l-39 -1q-82 0 -120.5 45t-38.5 118q0 27 6 54t26 53q5 -36 14.5 -60.5t25.5 -39.5t40.5 -21t59.5 -6q32 0 58 -7t36 -17l-43 -269q27 -17 41.5 -56t14.5 -93v-97h482zM687 1154q0 -69 -38.5 -107.5t-107.5 -38.5q-67 0 -106 38.5t-39 107.5
q0 59 38 96t107 37q71 0 108.5 -37t37.5 -96zM636 1152q0 37 -25 62t-70 25q-44 0 -69 -25t-25 -62q0 -44 25.5 -69.5t68.5 -25.5q45 0 70 25.5t25 69.5z" />
    <glyph glyph-name="uni18AA.fina" horiz-adv-x="626" 
d="M696 909v-182h-485q-2 -24 -6 -67t-9 -89.5t-12 -88.5t-14 -66l-35 -11q-30 75 -48.5 157t-26.5 165h-60v182h173l31 192l-39 -1q-82 0 -120.5 45t-38.5 118q0 27 6 54t26 53q5 -36 14.5 -60.5t25.5 -39.5t40.5 -21t59.5 -6q32 0 58 -7t36 -17l-52 -310h476zM604 1154
q0 -69 -38.5 -107.5t-107.5 -38.5q-67 0 -106 38.5t-39 107.5q0 59 38 96t107 37q71 0 108.5 -37t37.5 -96zM553 1152q0 37 -25 62t-70 25q-44 0 -69 -25t-25 -62q0 -44 25.5 -69.5t68.5 -25.5q45 0 70 25.5t25 69.5z" />
    <glyph glyph-name="uni1800" unicode="&#x1800;" horiz-adv-x="685" 
d="M645 1016q0 -59 -19.5 -120.5t-54 -124t-80.5 -125.5t-99 -126q-57 -67 -97 -131t-66 -117.5t-38.5 -93.5t-12.5 -59q-1 -28 -12 -44t-22 -16q-23 0 -33 14t-10 47t15 78t42 97.5t64.5 111t83.5 118.5q48 63 86 118.5t64.5 113t40 121.5t13.5 144q0 84 -44.5 133
t-127.5 49q-41 0 -77.5 -11t-63.5 -32t-43 -52t-16 -71q0 -22 9 -46.5t24.5 -46t35.5 -39t43 -25.5q11 -5 23 -18t12 -27q0 -13 -6.5 -21t-16 -12.5t-21.5 -6.5t-23 -2q-40 0 -73 24t-56 60t-36 79t-13 82q0 64 23 117.5t63 92.5t95 60.5t118 21.5q70 0 126.5 -20.5
t96.5 -60t61.5 -98.5t21.5 -136z" />
    <glyph glyph-name="uni1800_uni180B.ccmp" horiz-adv-x="940" 
d="M645 1016q0 -59 -19.5 -120.5t-54 -124t-80.5 -125.5t-99 -126q-57 -67 -97 -131t-66 -117.5t-38.5 -93.5t-12.5 -59q-1 -28 -12 -44t-22 -16q-23 0 -33 14t-10 47t15 78t42 97.5t64.5 111t83.5 118.5q48 63 86 118.5t64.5 113t40 121.5t13.5 144q0 84 -44.5 133
t-127.5 49q-41 0 -77.5 -11t-63.5 -32t-43 -52t-16 -71q0 -22 9 -46.5t24.5 -46t35.5 -39t43 -25.5q11 -5 23 -18t12 -27q0 -13 -6.5 -21t-16 -12.5t-21.5 -6.5t-23 -2q-40 0 -73 24t-56 60t-36 79t-13 82q0 64 23 117.5t63 92.5t95 60.5t118 21.5q70 0 126.5 -20.5
t96.5 -60t61.5 -98.5t21.5 -136zM900 1048q0 -60 -14.5 -111t-41.5 -92.5t-65 -74t-84 -56.5q-11 -6 -27.5 -13.5t-24.5 -7.5q-11 0 -11 7q0 3 5.5 9.5t12.5 13.5t13.5 13t8.5 9q49 65 77.5 140t28.5 163q0 72 -34 142.5t-103 136.5q-3 3 -10.5 9t-15.5 13t-14 13.5t-6 8.5
q0 3 2.5 7t7.5 4q10 0 24.5 -5.5t31.5 -13.5q118 -54 178.5 -129t60.5 -186z" />
    <glyph glyph-name="uni1800_uni180C.ccmp" horiz-adv-x="1298" 
d="M1298 794q0 -74 -23 -129.5t-64 -93.5t-98.5 -57t-126.5 -19q-60 0 -114.5 19t-110 47.5t-114.5 61t-126 60.5q-49 20 -94.5 33.5t-98 22t-117.5 14t-152 9.5q-29 0 -41.5 7.5t-17.5 33.5q0 35 59 35q80 0 144 -3.5t122.5 -12.5t118 -25.5t130.5 -42.5q42 -15 93 -37
t105 -41.5t107.5 -33.5t99.5 -14q100 0 146 45.5t46 129.5q0 47 -13.5 83.5t-36 61.5t-52 38t-61.5 13q-43 0 -83.5 -23t-67.5 -77q-19 -46 -54 -46q-11 0 -19.5 6.5t-14 16t-8 19.5t-2.5 18q0 42 24.5 76.5t61 58.5t78 37.5t76.5 13.5q75 0 131 -25.5t93.5 -68t56 -97.5
t18.5 -114z" />
    <glyph glyph-name="uni1800_uni180D.ccmp" horiz-adv-x="940" 
d="M645 1372q0 -92 -45 -187.5t-117 -192.5q77 -33 119.5 -105.5t42.5 -181.5q0 -59 -19.5 -120.5t-54 -124t-80.5 -125.5t-99 -126q-57 -67 -97 -131t-66 -117.5t-38.5 -93.5t-12.5 -59q-1 -28 -12 -44t-22 -16q-23 0 -33 14t-10 47t15 78t42 97.5t64.5 111t83.5 118.5
q48 63 86 118.5t64.5 113t40 121.5t13.5 144q0 84 -44.5 133t-127.5 49q-41 0 -77.5 -11t-63.5 -32t-43 -52t-16 -71q0 -22 9 -46.5t24.5 -46t35.5 -39t43 -25.5q11 -5 23 -18t12 -27q0 -13 -6.5 -21t-16 -12.5t-21.5 -6.5t-23 -2q-40 0 -73 24t-56 60t-36 79t-13 82
q0 64 23 117.5t63 92.5t95 60.5t118 21.5q17 0 32.5 -1.5t31.5 -3.5q26 40 46 80.5t33.5 84t20.5 92.5t7 106q0 84 -44.5 133t-127.5 49q-41 0 -77.5 -11t-63.5 -32t-43 -52t-16 -71q0 -22 9 -46.5t24.5 -46t35.5 -39t43 -25.5q11 -5 23 -18t12 -27q0 -13 -6.5 -21
t-16 -12.5t-21.5 -6.5t-23 -2q-40 0 -73 24t-56 60t-36 79t-13 82q0 64 23 117.5t63 92.5t95 60.5t118 21.5q70 0 126.5 -20.5t96.5 -60t61.5 -98.5t21.5 -136zM900 658q0 -110 -61 -184.5t-178 -127.5q-17 -8 -31.5 -13.5t-24.5 -5.5q-5 0 -7.5 4t-2.5 7q0 2 6 8.5t14 13.5
t15.5 13t10.5 9q67 64 101 134t36 142q-2 102 -36 177.5t-101 140.5q-3 3 -10.5 9t-15.5 13t-14 13.5t-6 8.5q0 4 1 6q-1 2 -1 6q0 2 6 8.5t14 13.5t15.5 13t10.5 9q67 64 101 134t36 142q-2 102 -36 177.5t-101 140.5q-3 3 -10.5 9t-15.5 13t-14 13.5t-6 8.5q0 3 2.5 7
t7.5 4q10 0 25 -5t31 -14q21 -12 46.5 -25t52 -32t52 -44.5t45 -61t31.5 -82.5t12 -109q0 -110 -61 -184.5t-178 -127.5q-9 -4 -16.5 -7.5t-15.5 -6.5q14 -4 32 -14q21 -12 46.5 -25t52 -32t52 -44.5t45 -61t31.5 -82.5t12 -109z" />
    <glyph glyph-name="uni1800_afii301.ccmp" horiz-adv-x="925" 
d="M614 926q0 -69 -39.5 -141.5t-96.5 -145.5q60 -30 98 -84.5t38 -131.5q0 -48 -20 -97t-53 -98.5t-74.5 -99.5t-83.5 -100q-45 -54 -77 -102t-51.5 -87.5t-29 -69t-9.5 -44.5q-1 -23 -12.5 -34t-20.5 -11q-18 0 -34.5 10t-16.5 36t12 62t33.5 78t51.5 89t67 95
q39 50 72 90t57 80t37.5 86.5t13.5 110.5q0 39 -16 65t-41 42t-56.5 22.5t-62.5 6.5q-33 0 -64 -8.5t-55 -24t-38.5 -36t-14.5 -44.5q0 -18 7.5 -36t19.5 -34t28.5 -28.5t34.5 -18.5q9 -4 18.5 -16t9.5 -28q0 -11 -6.5 -17.5t-16.5 -10t-21 -5t-20 -1.5q-32 0 -58.5 19
t-45 48t-28.5 63.5t-10 65.5q0 44 21 86t58 75t88.5 53t111.5 20q20 0 39 -1.5t39 -6.5q36 55 57.5 114t21.5 139q0 39 -16 65t-41 42t-56.5 22.5t-62.5 6.5q-33 0 -64 -8.5t-55 -24t-38.5 -36t-14.5 -44.5q0 -18 7.5 -36t19.5 -34t28.5 -28.5t34.5 -18.5q9 -4 18.5 -16
t9.5 -28q0 -11 -6.5 -17.5t-16.5 -10t-21 -5t-20 -1.5q-32 0 -58.5 19t-45 48t-28.5 63.5t-10 65.5q0 44 21 86t58 75t88.5 53t111.5 20q40 0 74 -7q21 30 38 59.5t29.5 62t19 69.5t6.5 81q0 39 -16 65t-41 42t-56.5 22.5t-62.5 6.5q-33 0 -64 -8.5t-55 -24t-38.5 -36
t-14.5 -44.5q0 -18 7.5 -36t19.5 -34t28.5 -28.5t34.5 -18.5q9 -4 18.5 -16t9.5 -28q0 -11 -6.5 -17.5t-16.5 -10t-21 -5t-20 -1.5q-32 0 -58.5 19t-45 48t-28.5 63.5t-10 65.5q0 44 21 86t58 75t88.5 53t111.5 20q56 0 109 -16t94.5 -48t66.5 -79.5t25 -108.5
q0 -37 -12 -74.5t-32.5 -76t-48 -77t-58.5 -77.5q62 -30 101.5 -85t39.5 -133zM883 882q0 -88 -54 -148t-147 -102q-4 -2 -7.5 -3.5t-7.5 -3.5q4 -2 7.5 -3.5t7.5 -3.5q25 -14 59.5 -35.5t66 -54.5t53.5 -80t22 -113q0 -88 -54 -148t-147 -102q-14 -6 -25.5 -10.5
t-19.5 -4.5q-5 0 -6.5 3.5t-1.5 5.5t3.5 7t8 10.5t9 10.5t6.5 7q107 103 109 221q-1 82 -28 142t-81 112q-5 5 -15.5 17.5t-11.5 17.5q1 7 11.5 20t15.5 17q107 103 109 221q-1 82 -28 142t-81 112q-3 3 -10 11t-12 15q-5 2 -5 9q0 3 1 5t3 3q5 8 12 16t11 11
q107 103 109 221q-1 82 -28 142t-81 112q-2 2 -6.5 7.5l-9 11t-8 10.5t-3.5 7t1.5 5t6.5 3q8 0 20 -3.5t25 -11.5q25 -14 59.5 -35.5t66 -54.5t53.5 -80t22 -113q0 -88 -54 -148t-147 -102q-5 -2 -13 -6q8 -4 13 -6q25 -14 59.5 -35.5t66 -54.5t53.5 -80t22 -113z" />
    <glyph glyph-name="uni1801" unicode="&#x1801;" horiz-adv-x="2048" 
d="M1976 785q0 -54 -34.5 -90.5t-96.5 -36.5t-98.5 36t-38.5 91q-2 54 31.5 89.5t96.5 34.5q66 -1 103 -35.5t37 -88.5zM1419 785q0 -54 -34.5 -90.5t-96.5 -36.5t-98.5 36t-38.5 91q-2 54 31.5 89.5t96.5 34.5q66 -1 103 -35.5t37 -88.5zM865 785q0 -54 -34.5 -90.5
t-96.5 -36.5t-98.5 36t-38.5 91q-2 54 31.5 89.5t96.5 34.5q66 -1 103 -35.5t37 -88.5zM308 785q0 -54 -34.5 -90.5t-96.5 -36.5t-98.5 36t-38.5 91q-2 54 31.5 89.5t96.5 34.5q66 -1 103 -35.5t37 -88.5z" />
    <glyph glyph-name="uni1802" unicode="&#x1802;" horiz-adv-x="785" 
d="M783 822v-28l-113 -232l-113 232v28l113 249z" />
    <glyph glyph-name="uni1803" unicode="&#x1803;" horiz-adv-x="1289" 
d="M1289 822v-28l-113 -232l-113 232v28l113 249zM783 822v-28l-113 -232l-113 232v28l113 249z" />
    <glyph glyph-name="uni1804" unicode="&#x1804;" horiz-adv-x="785" 
d="M785 1071q0 -50 -28 -79.5t-82 -30.5q-56 -1 -89 29t-33 81q0 52 32.5 83.5t89.5 31.5q54 0 82 -31.5t28 -83.5zM785 561q0 -50 -28 -79.5t-82 -30.5q-56 -1 -89 29t-33 81q0 52 32.5 83.5t89.5 31.5q54 0 82 -31.5t28 -83.5z" />
    <glyph glyph-name="uni1805" unicode="&#x1805;" horiz-adv-x="744" 
d="M738 822v-28l-113 -232l-113 232v28l113 249zM237 822v-28l-113 -232l-113 232v28l113 249zM485 1176v-28l-113 -232l-113 232v28l113 249zM485 451v-28l-113 -232l-113 232v28l113 249z" />
    <glyph glyph-name="uni1806" unicode="&#x1806;" horiz-adv-x="553" 
d="M623 909v-182h-623v182h623z" />
    <glyph glyph-name="uni1807" unicode="&#x1807;" horiz-adv-x="571" 
d="M640 909v-182h-213q-2 -24 -6 -67t-9 -89.5t-12 -88.5t-14 -66l-35 -11q-30 75 -48.5 157t-26.5 165h-276v182h640z" />
    <glyph glyph-name="uni1807.medi" horiz-adv-x="350" 
d="M420 909v-182h-198q-13 -84 -30 -162.5t-40 -157.5h-27q-24 79 -42 157.5t-27 162.5h-56v182h420z" />
    <glyph glyph-name="uni1808" unicode="&#x1808;" horiz-adv-x="875" 
d="M875 822q0 -41 -24 -81t-60 -76.5t-77.5 -67t-76.5 -50.5q-26 -15 -47 -15q-14 0 -21.5 12t-7.5 29q0 15 10 32q31 36 54 65.5t38 55t22.5 49t7.5 46.5q0 33 -26 85t-77 115q-21 18 -21 37q0 30 29 30q17 0 42 -17q235 -133 235 -249z" />
    <glyph glyph-name="uni1809" unicode="&#x1809;" horiz-adv-x="1333" 
d="M875 822q0 -41 -24 -81t-60 -76.5t-77.5 -67t-76.5 -50.5q-26 -15 -47 -15q-14 0 -21.5 12t-7.5 29q0 15 10 32q31 36 54 65.5t38 55t22.5 49t7.5 46.5q0 33 -26 85t-77 115q-21 18 -21 37q0 30 29 30q17 0 42 -17q235 -133 235 -249zM1331 822q0 -41 -24 -81t-60 -76.5
t-77.5 -67t-76.5 -50.5q-26 -15 -47 -15q-14 0 -21.5 12t-7.5 29q0 15 10 32q31 36 54 65.5t38 55t22.5 49t7.5 46.5q0 33 -26 85t-77 115q-21 18 -21 37q0 30 29 30q17 0 42 -17q235 -133 235 -249z" />
    <glyph glyph-name="uni180A" unicode="&#x180a;" horiz-adv-x="268" 
d="M337 909v-182h-337v182h337z" />
    <glyph glyph-name="glyph242" horiz-adv-x="267" 
d="M337 909v-182h-337v182h337z" />
    <glyph glyph-name="uni180B" unicode="&#x180b;" horiz-adv-x="2214" 
d="M354 571h-60v198h60v-198zM354 865h-60v206h60v-206zM354 1158h-60v208h60v-208zM354 268h-60v208h60v-208zM537 0v51h207v-51h-207zM1428 1566v51h215v-51h-215zM1428 0v51h215v-51h-215zM537 1566v51h215v-51h-215zM822 0v51h217v-51h-217zM822 1566v51h217v-51h-217z
M1115 0v51h218v-51h-218zM1115 1566v51h218v-51h-218zM1851 571v198h60v-198h-60zM1851 1158v208h60v-208h-60zM1851 865v206h60v-206h-60zM1851 268v208h60v-208h-60zM294 1443v174h165v-51h-105v-123h-60zM294 0v190h60v-139h105v-51h-165zM1729 1617h182v-174h-60v123
h-122v51zM1851 190h60v-190h-182v51h122v139zM1195 605v53q174 0 174 79q0 14 -3 22h71v-656h-80v502h-162zM961 1211v-69h-321v-320h-69v640h433v-69h-364v-182h321zM1619 1462l-191 -640h-104l-200 640h78l173 -563l157 563h87zM926 579q-33 110 -155 121
q-155 -10 -165 -121q5 -27 26 -48.5t61 -38.5q9 -5 29 -10.5t42 -11t42.5 -11t31.5 -9.5q80 -32 118 -72.5t38 -91.5q0 -183 -232 -183q-137 0 -209 113q-16 57 -16 103h69q11 -148 165 -154q146 0 155 121q-9 79 -137 101q-14 5 -38 14t-49 17q-24 9 -44 17.5t-27 14.5
q-94 33 -94 129q15 174 225 180q208 -15 226 -180h-62z" />
    <glyph glyph-name="uni180C" unicode="&#x180c;" horiz-adv-x="2214" 
d="M354 571h-60v198h60v-198zM354 1158h-60v208h60v-208zM354 268h-60v208h60v-208zM354 865h-60v206h60v-206zM537 0v51h207v-51h-207zM1428 1566v51h215v-51h-215zM1428 0v51h215v-51h-215zM822 0v51h217v-51h-217zM1115 0v51h218v-51h-218zM822 1566v51h217v-51h-217z
M1115 1566v51h218v-51h-218zM537 1566v51h215v-51h-215zM1851 571v198h60v-198h-60zM1851 865v206h60v-206h-60zM1851 1158v208h60v-208h-60zM1851 268v208h60v-208h-60zM294 1443v174h165v-51h-105v-123h-60zM294 0v190h60v-139h105v-51h-165zM1729 1617h182v-174h-60v123
h-122v51zM1851 190h60v-190h-182v51h122v139zM961 1211v-69h-321v-320h-69v640h433v-69h-364v-182h321zM1462 387q-51 -35 -88 -59t-58 -42q-69 -85 -77 -112h335v-71h-406q0 67 18 120l44 45q11 20 19.5 32t14.5 19q32 22 66.5 47.5t70.5 57.5q124 68 124 142v13
q-14 102 -141 112q-164 0 -164 -154h-60q-1 5 -1.5 12t-0.5 17q0 82 72 142q64 44 145 44q208 -9 218 -173q0 -100 -131 -192zM1619 1462l-191 -640h-104l-200 640h78l173 -563l157 563h87zM917 579q-24 110 -146 121q-155 -10 -165 -121q5 -27 26 -48.5t61 -38.5
q25 -18 103 -33q13 -5 23.5 -9t18.5 -8q150 -56 156 -166q0 -181 -232 -181q-137 0 -209 110q-16 60 -16 114h69q11 -155 165 -164q146 0 155 121q-9 69 -137 111q-17 11 -78 27q-27 8 -46.5 14.5t-33.5 13.5q-94 47 -94 137q8 174 225 180q211 0 226 -180h-71z" />
    <glyph glyph-name="uni180D" unicode="&#x180d;" horiz-adv-x="2214" 
d="M354 571h-60v198h60v-198zM354 1158h-60v208h60v-208zM354 268h-60v208h60v-208zM354 865h-60v206h60v-206zM537 0v51h207v-51h-207zM1428 1566v51h215v-51h-215zM1428 0v51h215v-51h-215zM822 0v51h217v-51h-217zM1115 0v51h218v-51h-218zM822 1566v51h217v-51h-217z
M1115 1566v51h218v-51h-218zM537 1566v51h215v-51h-215zM1851 571v198h60v-198h-60zM1851 865v206h60v-206h-60zM1851 1158v208h60v-208h-60zM1851 268v208h60v-208h-60zM294 1443v174h165v-51h-105v-123h-60zM294 0v190h60v-139h105v-51h-165zM1729 1617h182v-174h-60v123
h-122v51zM1851 190h60v-190h-182v51h122v139zM961 1211v-69h-321v-320h-69v640h433v-69h-364v-182h321zM1619 1462l-191 -640h-104l-200 640h78l173 -563l157 563h87zM1298 492q197 25 209 113q0 60 -123 77q-11 2 -22 3t-22 1q-85 0 -110 -55l-78 32q23 45 74.5 67
t131.5 22h26q189 -9 199 -147q-9 -113 -172 -137q198 -42 198 -188v-12q-7 -157 -225 -165q-182 0 -241 138l87 19q39 -78 132 -78h22q141 8 148 78q0 126 -234 182v50zM917 579q-24 110 -146 121q-155 -10 -165 -121q5 -27 26 -48.5t61 -38.5q11 -5 31 -10.5t47 -13.5
q41 -10 67 -18q80 -32 118 -72.5t38 -91.5q0 -183 -232 -183q-137 0 -209 113q-16 57 -16 103h69q11 -148 165 -154q146 0 155 121q-9 79 -137 101q-9 5 -22.5 9.5t-30.5 9.5q-39 14 -64 25t-41 19q-94 33 -94 129q8 174 225 180q211 0 226 -180h-71z" />
    <glyph glyph-name="uni180E" unicode="&#x180e;" horiz-adv-x="2214" 
d="M1259 1468h138v-656h-72v600l-188 -600h-109l-180 625v-625h-73v656h140l171 -603zM1583 563h-67q-26 110 -147 116q-147 -6 -150 -126q0 -46 76 -77q58 -23 83 -31t60 -18q153 -54 154 -159q-6 -180 -238 -183q-123 0 -164.5 70.5t-39.5 148.5h68q0 -156 151 -156
q151 4 151 114q0 73 -132 111q-31 11 -58 20t-89 34q-91 45 -91 136q9 167 213 173q220 -9 220 -173zM794 170l160 562h79l-189 -638h-100l-199 638h81zM1743 52h127v132h56v-184h-183v52zM475 52v-52h-181v184h55v-132h126zM1870 1560h-127v53h183v-167h-56v114zM349 1560
v-114h-55v167h181v-53h-126zM1057 1615v-55h-217v55h217zM1353 1615v-55h-219v55h219zM768 1615v-55h-216v55h216zM1658 1615v-55h-215v55h215zM1658 52v-52h-217v52h217zM1348 52v-52h-217v52h217zM1053 52v-52h-214v52h214zM1926 772v-205h-56v205h56zM1926 1363v-206h-56
v206h56zM294 1363h55v-206h-55v206zM294 772h55v-205h-55v205zM294 474h55v-205h-55v205zM294 1069h55v-204h-55v204zM1926 1069v-204h-56v204h56zM1926 474v-205h-56v205h56zM763 52v-52h-211v52h211z" />
    <glyph glyph-name="uni1810" unicode="&#x1810;" horiz-adv-x="675" 
d="M551 1057q0 130 -28 215q-10 31 -23 60t-30.5 51.5t-39 35.5t-48.5 13q-35 0 -63.5 -17t-51.5 -44t-41 -61t-31 -68q-18 -45 -31 -95.5t-22 -103.5t-13.5 -106t-4.5 -101q-2 -97 14.5 -171.5t45.5 -122.5q26 -43 58.5 -65.5t60.5 -22.5q37 0 65.5 18.5t50.5 47t38.5 64
t28.5 69.5q16 45 28.5 95t20.5 102.5t12 105t4 101.5zM635 1049q0 -54 -4.5 -111.5t-14.5 -113.5t-25.5 -110.5t-36.5 -102.5q-19 -43 -44.5 -80.5t-58.5 -65t-73.5 -43.5t-88.5 -16q-118 0 -178 130q-32 65 -51.5 154t-19.5 204q0 116 24 211.5t59 168.5q48 97 117 151.5
t153 54.5q72 0 122 -46.5t79 -119.5q41 -103 41 -265z" />
    <glyph glyph-name="uni1811" unicode="&#x1811;" horiz-adv-x="583" 
d="M543 1035q-4 -77 -9.5 -145.5t-14.5 -133.5t-23 -128.5t-34 -129.5q-21 -71 -52 -140.5t-67 -124.5t-76 -89t-80 -34q-33 0 -66 19t-59 47t-42.5 60.5t-16.5 59.5q0 14 7.5 25.5t17 19.5t19 12t13.5 4q15 0 17.5 -10t7.5 -29q20 -68 46.5 -98.5t64.5 -30.5q34 0 63.5 27
t55 73.5t47 109.5t40.5 135q12 49 24 113.5t21 137t14.5 148.5t5.5 148q-1 24 -2.5 59.5t-5.5 74.5t-11.5 78t-20.5 69.5t-33.5 50t-49.5 19.5q-27 0 -51 -16t-44.5 -42t-38.5 -59t-33 -67q-33 -76 -50.5 -180.5t-17.5 -231.5q0 -73 8.5 -122t19 -84t19.5 -62t9 -56
q0 -21 -15 -31t-37 -10q-20 0 -33.5 15t-22.5 49t-13 89.5t-4 136.5q0 172 25.5 305.5t63.5 218.5q41 92 99.5 143.5t124.5 51.5q43 0 73.5 -23t51.5 -60t34 -84.5t20 -97t9 -96.5t2 -84z" />
    <glyph glyph-name="uni1812" unicode="&#x1812;" horiz-adv-x="784" 
d="M744 1253q0 -44 -9.5 -82t-26 -75t-39 -74.5t-47.5 -79.5q-20 -33 -43 -72t-42 -76.5t-31.5 -71t-12.5 -54.5q0 -32 9 -41t21 -9q25 0 39.5 -7t31.5 -7q23 0 58 36t74 118q8 17 14 26t20 9q10 0 14.5 -7t4.5 -16q0 -20 -18 -56.5t-44 -84.5q-18 -32 -32 -57.5t-29 -43
t-33 -27t-43 -9.5q-26 0 -51.5 7t-45.5 7q-19 0 -34 -5t-27 -11.5t-21 -11.5t-15 -5q-10 0 -23 6.5t-13 19.5q0 3 1 7t3 11q43 90 78 162.5t63 131t50 104.5t38 82q46 103 61.5 166.5t15.5 85.5q0 83 -30.5 133t-84.5 50q-34 0 -79 -28t-92.5 -77.5t-93 -116.5t-82 -146
t-58.5 -165.5t-22 -174.5q0 -59 7.5 -94.5t17 -57.5t17 -34.5t7.5 -24.5q0 -49 -49 -49q-23 0 -38 15t-24 40t-12.5 57.5t-3.5 67.5q0 115 26 222t68.5 200t97.5 169.5t112.5 130.5t113.5 84t101 30q48 0 83 -19t57.5 -51t33.5 -73t11 -84z" />
    <glyph glyph-name="uni1813" unicode="&#x1813;" horiz-adv-x="731" 
d="M692 1333q0 -47 -16 -96.5t-38.5 -96.5t-46.5 -88t-41 -69q-16 -27 -35 -59.5t-34.5 -61.5t-26 -50t-10.5 -27q0 -19 15.5 -29t33.5 -10q19 0 32.5 5t25.5 14.5t23.5 23.5t26.5 33q4 5 10.5 12t10.5 7q11 0 15 -4t4 -16q0 -19 -13.5 -46t-34.5 -52t-47 -43t-50 -18
q-18 0 -41.5 2.5t-42.5 2.5q-14 0 -24 -2t-17.5 -5t-14 -5t-13.5 -2q-20 0 -20 4v12q0 6 12.5 28.5t32 56t44 73.5t48.5 81.5t45 80.5t34 69q14 31 27 65.5t23.5 68.5t16.5 66.5t6 59.5q0 15 -1.5 34.5t-7.5 37t-17 30t-30 12.5q-47 0 -93 -88t-104 -255q-3 -8 -12 -39
t-22.5 -64.5t-31 -60t-36.5 -26.5q-4 0 -8 6t-4 13q0 10 10.5 33.5t24.5 51.5t27.5 55.5t20.5 45.5q27 73 41.5 137t14.5 101q0 86 -83 86q-45 -9 -77.5 -39.5t-54.5 -74.5t-35 -97t-20 -108t-9 -107t-2 -94q0 -57 7.5 -90t16 -52.5t16 -30.5t7.5 -24q0 -17 -14 -32.5
t-35 -15.5q-22 0 -34.5 17t-18.5 42.5t-7 54.5t-1 53q0 46 3.5 112.5t14 138.5t29.5 143.5t48.5 128.5t72 92t100.5 35q28 0 47.5 -11t33.5 -23.5t24 -23.5t18 -11q12 0 27.5 11t35 23.5t43 23.5t49.5 11q25 0 45 -15t33.5 -37t20.5 -47.5t7 -47.5z" />
    <glyph glyph-name="uni1814" unicode="&#x1814;" horiz-adv-x="565" 
d="M525 1158q0 -151 -16.5 -285t-51.5 -268q-15 -61 -38 -121.5t-53.5 -108.5t-69.5 -77.5t-86 -29.5q-38 0 -69.5 31.5t-54 85.5t-34.5 125t-12 149q0 167 51 301q26 67 65.5 129.5t96.5 121.5q6 8 14 11.5t14 3.5q9 0 14 -7t5 -16t-16 -29t-39.5 -51.5t-51 -75
t-50.5 -99.5q-26 -64 -40.5 -142.5t-14.5 -158.5q0 -60 8 -118.5t24 -104t40 -73.5t56 -28q25 0 51.5 21t50.5 60.5t45.5 95.5t38.5 127q39 168 39 418q0 106 -13.5 188t-44.5 142q-17 34 -17 56q0 10 6 19t15 16t19.5 10.5t19.5 3.5q20 0 38 -25t31.5 -68.5t21.5 -102.5
t8 -126z" />
    <glyph glyph-name="uni1815" unicode="&#x1815;" horiz-adv-x="620" 
d="M580 728q0 -18 -13.5 -27.5t-32.5 -9.5q-12 0 -22 27t-19.5 70.5t-18 98.5t-16.5 111q-7 51 -13.5 98.5t-13.5 84t-14.5 59t-16.5 22.5q-8 0 -12.5 -13t-8.5 -42t-8 -75.5t-10 -113.5q-8 -90 -14.5 -157.5t-21.5 -112.5t-43 -67.5t-79 -22.5q-41 0 -70 24t-48.5 71.5
t-30 119t-14.5 166.5q3 28 11.5 41.5t30.5 13.5q13 0 25.5 -8t12.5 -21q0 -20 -3 -36.5l-6 -33t-6 -35.5t-3 -45q0 -105 28.5 -157t73.5 -52q35 0 56 21.5t34 62.5t19 99t11 132q2 36 5 73t7 70.5t9.5 61.5t13.5 46q9 21 14.5 48t5.5 62q0 26 -1 36.5t-2 17.5q0 44 27 44
q13 0 21.5 -16.5t13.5 -38.5t7 -43t2 -31q0 -32 5.5 -71t13.5 -82.5t19.5 -91t23.5 -95.5q14 -56 34 -117.5t34 -131.5q2 -12 2.5 -19.5t0.5 -14.5z" />
    <glyph glyph-name="uni1816" unicode="&#x1816;" horiz-adv-x="705" 
d="M665 728q0 -98 -22.5 -179t-61.5 -139.5t-92 -91t-113 -32.5q-79 0 -141 41.5t-105.5 116.5t-66.5 180.5t-23 233.5q0 144 39 259t99 196t132 124t137 43q25 0 41 -4.5t25.5 -11t13.5 -14.5t4 -15q0 -16 -3 -26t-11 -17t-23.5 -10.5t-40.5 -6.5q-79 -8 -146 -49.5
t-115.5 -109t-76 -159t-27.5 -199.5t19.5 -203.5t56 -166.5t89.5 -112.5t120 -41.5q103 0 155.5 89t52.5 262q0 113 -33.5 168.5t-92.5 55.5q-27 0 -46 -20.5t-32 -46t-20.5 -48.5t-9.5 -28q-5 -11 -11.5 -17t-11.5 -6q-17 0 -17 29q10 54 15.5 112t5.5 115q0 49 -6.5 90
t-6.5 89q0 22 7.5 32.5t30.5 10.5q32 0 32 -35q0 -36 -8.5 -80t-8.5 -106q0 -22 7 -42.5t23 -20.5q7 0 24 7.5t44 7.5q43 0 79.5 -15t63 -43.5t41.5 -70t15 -95.5z" />
    <glyph glyph-name="uni1817" unicode="&#x1817;" horiz-adv-x="645" 
d="M605 877q0 -142 -11 -243t-32 -165t-52.5 -94t-71.5 -30q-72 0 -102 68t-30 202q0 34 3 76t6.5 85.5t6.5 85.5t3 77q0 119 -28.5 176t-86.5 57q-61 0 -91.5 -83t-30.5 -241q0 -85 25 -183.5t73 -214.5q6 -11 8.5 -21t2.5 -18q0 -6 -3 -15t-9.5 -17.5t-16.5 -14.5t-25 -6
q-19 0 -34 27.5t-26.5 71.5t-19.5 99t-13 109t-7.5 103t-2.5 80q0 185 41 278.5t134 93.5q42 0 72 -18t49 -51t28 -80.5t9 -106.5q0 -31 -3 -69t-6.5 -77.5t-6.5 -78.5t-3 -72q0 -112 18.5 -175t57.5 -63q30 0 52.5 33.5t37 93.5t22 142.5t7.5 180.5q0 106 -17 199.5
t-51.5 163.5t-86 110.5t-120.5 40.5q-25 0 -44.5 -7t-37 -15.5t-33.5 -15.5t-34 -7q-22 0 -34 10t-12 40q0 19 15.5 34t41.5 25.5t59.5 16.5t69.5 6q60 0 108.5 -25t86.5 -68t65.5 -101.5t45 -125.5t26 -139.5t8.5 -143.5z" />
    <glyph glyph-name="uni1818" unicode="&#x1818;" horiz-adv-x="651" 
d="M615 905q0 -8 -11 -27t-26.5 -46t-34 -59.5t-33.5 -68.5q-17 -39 -27.5 -69t-17.5 -56.5t-12 -53t-10 -57.5q-6 -29 -18 -45.5t-22 -16.5q-20 0 -41 4t-43 8.5t-44.5 8t-44.5 3.5q-23 0 -44 -4t-40.5 -8.5t-38 -8t-36.5 -3.5q-13 0 -22 9.5t-9 26.5q0 14 8.5 45.5
t22 74.5t31.5 94.5t37 104.5t37.5 106t33.5 98t30.5 93.5t30.5 96.5t29.5 93t26.5 83.5t21.5 67.5t15.5 45q8 20 26.5 28t35.5 8q7 0 16 -1t17 -4.5t14 -11.5t6 -22q0 -6 -20 -41t-51.5 -97.5t-72 -151t-80.5 -199.5q-7 -20 -20 -54.5t-27.5 -75.5t-30 -84t-27.5 -80
t-20 -63.5t-8 -33.5q0 -22 4.5 -36.5t22.5 -15.5q6 0 16 0.5t21 1.5t21.5 2t18.5 1q26 0 51 -6.5t51 -6.5q19 0 37 21t35 53.5t33.5 72.5t33.5 79q18 41 33.5 78.5t28.5 66t24.5 45t21.5 16.5q11 0 25.5 -8.5t14.5 -19.5z" />
    <glyph glyph-name="uni1819" unicode="&#x1819;" horiz-adv-x="525" 
d="M485 1195q0 -42 -7.5 -84.5t-19.5 -84t-26 -80.5t-27 -73q-24 -64 -39.5 -100.5t-15.5 -54.5q0 -15 -0.5 -23.5t13.5 -13.5t30.5 -10t30.5 -10q8 -3 16 -10t8 -20q0 -12 -13 -22.5t-32 -10.5q-9 0 -16 3.5t-17.5 7t-28 7t-46.5 3.5q-24 0 -24 23q0 11 7 31t19 50.5
t28 73.5t33 100q19 61 35 131.5t16 166.5q0 112 -22 174.5t-70 62.5t-83.5 -29t-61 -77t-42 -109.5t-26.5 -126t-14.5 -128t-5.5 -114.5q0 -119 14 -219t39.5 -173.5t62 -114.5t81.5 -41q18 0 32 9t24.5 22.5t18.5 29.5l15 30q5 10 10.5 25t12.5 28.5t16.5 23t22.5 9.5
q8 0 15 -5.5t12 -13.5t7.5 -17.5t2.5 -17.5q0 -27 -17.5 -57t-45 -55.5t-61 -42t-65.5 -16.5q-57 0 -101.5 40t-75.5 116.5t-47.5 187.5t-16.5 252q4 310 75 471t210 161q40 0 70.5 -22t50 -60t29.5 -90t10 -113z" />
    <glyph glyph-name="uni1820" unicode="&#x1820;" horiz-adv-x="1176" 
d="M1171 1358q-69 -106 -133 -211.5t-109 -216.5q-59 -143 -96.5 -296t-50.5 -322q-56 29 -104.5 79.5t-85 109t-59.5 118.5t-27 108h-124q-3 -75 -13.5 -153t-23.5 -157l-36 -10q-20 43 -34 95t-24 102t-14.5 91.5t-4.5 63.5v150q0 40 -9.5 64.5t-32.5 24.5
q-16 0 -28.5 -2.5t-24 -7.5t-23.5 -12t-27 -17q-25 -17 -38.5 -29.5t-20.5 -12.5q-11 10 -19.5 22.5t-8.5 21.5q11 11 25 28t28 33q67 77 114 111t83 34q45 0 70 -44.5t25 -116.5v-97h229v-110q0 -38 13.5 -85.5t33.5 -92.5t42 -82t39 -53q-6 22 -1.5 76t18 124t34 148
t47.5 148q33 85 63 162t53 142t37 117.5t14 89.5q0 16 -4.5 43t-9.5 54t-9.5 49.5t-4.5 30.5q0 26 6.5 38t26.5 12q6 0 17 -12.5t21 -31.5q24 -46 42.5 -84t36.5 -74t37.5 -74.5t44.5 -85.5z" />
    <glyph glyph-name="uni1820_uni180B.isol" horiz-adv-x="925" 
d="M885 544v-330q0 -69 -12.5 -119.5t-36.5 -88t-60 -64.5t-83 -48q-27 -12 -43 -21.5t-27 -20t-19 -25t-20 -36.5h-18l53 227q11 3 21.5 6t23 7.5t27 11.5t34.5 19q12 7 27 18t28.5 28t23 43t9.5 63v330q0 89 -34 136t-94 47h-303q-3 -75 -13.5 -153t-23.5 -157l-36 -10
q-20 43 -34 95t-24 102t-14.5 91.5t-4.5 63.5v150q0 40 -9.5 64.5t-32.5 24.5q-16 0 -28.5 -2.5t-24 -7.5t-23.5 -12t-27 -17q-25 -17 -38.5 -29.5t-20.5 -12.5q-11 10 -19.5 22.5t-8.5 21.5q11 11 25 28t28 33q67 77 114 111t83 34q45 0 70 -44.5t25 -116.5v-97h340
q99 0 149.5 -90.5t50.5 -274.5z" />
    <glyph glyph-name="uni1820.init" horiz-adv-x="805" 
d="M875 909v-182h-213q-2 -24 -6 -67t-9 -89.5t-12 -88.5t-14 -66l-35 -11q-30 75 -48.5 157t-26.5 165h-129q-3 -75 -13.5 -153t-23.5 -157l-36 -10q-20 43 -34 95t-24 102t-14.5 91.5t-4.5 63.5v150q0 40 -9.5 64.5t-32.5 24.5q-16 0 -28.5 -2.5t-24 -7.5t-23.5 -12
t-27 -17q-25 -17 -38.5 -29.5t-20.5 -12.5q-11 10 -19.5 22.5t-8.5 21.5q11 11 25 28t28 33q67 77 114 111t83 34q45 0 70 -44.5t25 -116.5v-97h530z" />
    <glyph glyph-name="uni1820.medi" horiz-adv-x="294" 
d="M364 909v-182h-213q-2 -24 -6 -67t-9 -89.5t-12 -88.5t-14 -66l-35 -11q-30 75 -48.5 157t-26.5 165v182h364z" />
    <glyph glyph-name="uni1820_uni180B.medi" horiz-adv-x="600" 
d="M670 909v-182h-183q-2 -24 -6 -67t-9 -89.5t-12 -88.5t-14 -66l-35 -11q-30 75 -48.5 157t-26.5 165h-165q-2 -24 -6 -67t-9 -89.5t-12 -88.5t-14 -66l-35 -11q-30 75 -48.5 157t-26.5 165h-20v182h670z" />
    <glyph glyph-name="uni1820_uni180C.medi" horiz-adv-x="503" 
d="M574 909v-182h-192q-3 -75 -13.5 -153t-23.5 -157l-36 -10q-20 43 -34 95t-24 102t-14.5 91.5t-4.5 63.5v150q0 40 -9.5 64.5t-32.5 24.5q-16 0 -28.5 -2.5t-24 -7.5t-23.5 -12t-27 -17q-25 -17 -38.5 -29.5t-20.5 -12.5q-11 10 -19.5 22.5t-8.5 21.5q11 11 25 28t28 33
q67 77 114 111t83 34q45 0 70 -44.5t25 -116.5v-97h229z" />
    <glyph glyph-name="uni1820.fina" horiz-adv-x="700" 
d="M693 1358q-69 -106 -133 -211.5t-109 -216.5q-59 -143 -96.5 -296t-50.5 -322q-56 29 -104.5 79.5t-85 109t-59.5 118.5t-27 108h-28v182h96v-110q0 -38 13.5 -85.5t33.5 -92.5t42 -82t39 -53q-6 22 -1.5 76t18 124t34 148t47.5 148q33 85 63 162t53 142t37 117.5
t14 89.5q0 16 -4.5 43t-9.5 54t-9.5 49.5t-4.5 30.5q0 26 6.5 38t26.5 12q6 0 17 -12.5t21 -31.5q24 -46 42.5 -84t36.5 -74t37.5 -74.5t44.5 -85.5z" />
    <glyph glyph-name="uni1820_uni180B.fina" horiz-adv-x="405" 
d="M365 544v-330q0 -69 -12.5 -119.5t-36.5 -88t-60 -64.5t-83 -48q-27 -12 -43 -21.5t-27 -20t-19 -25t-20 -36.5h-18l53 227q11 3 21.5 6t23 7.5t27 11.5t34.5 19q12 7 27 18t28.5 28t23 43t9.5 63v330q0 89 -34 136t-94 47h-165v182h165q99 0 149.5 -90.5t50.5 -274.5z
" />
    <glyph glyph-name="glyph265" horiz-adv-x="1353" 
d="M1313 697v-94q0 -57 -19.5 -92t-48.5 -35v19q0 108 -39.5 168.5t-118.5 63.5h-936q-2 -24 -6 -67t-9 -89.5t-12 -88.5t-14 -66l-35 -11q-30 75 -48.5 157t-26.5 165v182h1156q75 -7 116 -62t41 -150z" />
    <glyph glyph-name="glyph266" horiz-adv-x="503" 
d="M574 909v-182h-192q-3 -75 -13.5 -153t-23.5 -157l-36 -10q-20 43 -34 95t-24 102t-14.5 91.5t-4.5 63.5v150q0 40 -9.5 64.5t-32.5 24.5q-16 0 -28.5 -2.5t-24 -7.5t-23.5 -12t-27 -17q-25 -17 -38.5 -29.5t-20.5 -12.5q-11 10 -19.5 22.5t-8.5 21.5q11 11 25 28t28 33
q67 77 114 111t83 34q45 0 70 -44.5t25 -116.5v-97h229z" />
    <glyph glyph-name="glyph267" horiz-adv-x="561" 
d="M521 544v-330q0 -69 -12.5 -119.5t-36.5 -88t-60 -64.5t-83 -48q-27 -12 -43 -21.5t-27 -20t-19 -25t-20 -36.5h-18l53 227q11 3 21.5 6t23 7.5t27 11.5t34.5 19q12 7 27 18t28.5 28t23 43t9.5 63v330q0 89 -34 136t-94 47h-165v182h165q99 0 149.5 -90.5t50.5 -274.5z
" />
    <glyph glyph-name="glyph268" horiz-adv-x="1216" 
d="M1176 544v-330q0 -69 -12.5 -119.5t-36.5 -88t-60 -64.5t-83 -48q-27 -12 -43 -21.5t-27 -20t-19 -25t-20 -36.5h-18l53 227q11 3 21.5 6t23 7.5t27 11.5t34.5 19q12 7 27 18t28.5 28t23 43t9.5 63v330q0 89 -34 136t-94 47h-610l277 -346v-24l-44 -208h-23l-122 254
l-135 -117l-21 19l89 237l-89 185v182h678q99 0 149.5 -90.5t50.5 -274.5z" />
    <glyph glyph-name="glyph269" horiz-adv-x="405" 
d="M365 544v-330q0 -69 -12.5 -119.5t-36.5 -88t-60 -64.5t-83 -48q-27 -12 -43 -21.5t-27 -20t-19 -25t-20 -36.5h-18l53 227q11 3 21.5 6t23 7.5t27 11.5t34.5 19q12 7 27 18t28.5 28t23 43t9.5 63v330q0 89 -34 136t-94 47h-165v182h165q99 0 149.5 -90.5t50.5 -274.5z
" />
    <glyph glyph-name="uni1820.init_uni1843.fina.rlig" horiz-adv-x="1297" 
d="M1297 1358q-69 -106 -133 -211.5t-109 -216.5q-59 -143 -96.5 -296t-50.5 -322q-56 29 -104.5 79.5t-85 109t-59.5 118.5t-27 108h-250q-3 -75 -13.5 -153t-23.5 -157l-36 -10q-20 43 -34 95t-24 102t-14.5 91.5t-4.5 63.5v150q0 40 -9.5 64.5t-32.5 24.5
q-16 0 -28.5 -2.5t-24 -7.5t-23.5 -12t-27 -17q-25 -17 -38.5 -29.5t-20.5 -12.5q-11 10 -19.5 22.5t-8.5 21.5q11 11 25 28t28 33q67 77 114 111t83 34q45 0 70 -44.5t25 -116.5v-97h274q0 34 -4 67.5t-8.5 64t-8 56.5t-3.5 46q0 26 14 40t43 14q27 0 41 -14t14 -40
q0 -20 -3.5 -46t-8 -56.5t-8 -64t-3.5 -67.5q0 -41 6 -88t20 -96q10 -36 25 -73.5t31.5 -70t32.5 -57.5t29 -38q-6 22 -1.5 76t18 124t34 148t47.5 148q33 85 63 162t53 142t37 117.5t14 89.5q0 16 -4.5 43t-9.5 54t-9.5 49.5t-4.5 30.5q0 26 6.5 38t26.5 12q6 0 17 -12.5
t21 -31.5q24 -46 42.5 -84t36.5 -74t37.5 -74.5t44.5 -85.5z" />
    <glyph glyph-name="uni1820.medi_uni1843.fina.rlig" horiz-adv-x="793" 
d="M793 1358q-69 -106 -133 -211.5t-109 -216.5q-59 -143 -96.5 -296t-50.5 -322q-56 29 -104.5 79.5t-85 109t-59.5 118.5t-27 108h-128v182h44q0 34 -4 67.5t-8.5 64t-8 56.5t-3.5 46q0 26 14 40t43 14q27 0 41 -14t14 -40q0 -20 -3.5 -46t-8 -56.5t-8 -64t-3.5 -67.5h87
v-110q0 -38 13.5 -85.5t33.5 -92.5t42 -82t39 -53q-6 22 -1.5 76t18 124t34 148t47.5 148q33 85 63 162t53 142t37 117.5t14 89.5q0 16 -4.5 43t-9.5 54t-9.5 49.5t-4.5 30.5q0 26 6.5 38t26.5 12q6 0 17 -12.5t21 -31.5q24 -46 42.5 -84t36.5 -74t37.5 -74.5t44.5 -85.5z
" />
    <glyph glyph-name="uni1820.init_uni1843.medi.rlig" horiz-adv-x="834" 
d="M904 909v-182h-213q-2 -24 -6 -67t-9 -89.5t-12 -88.5t-14 -66l-35 -11q-30 75 -48.5 157t-26.5 165h-158q-3 -75 -13.5 -153t-23.5 -157l-36 -10q-20 43 -34 95t-24 102t-14.5 91.5t-4.5 63.5v150q0 40 -9.5 64.5t-32.5 24.5q-16 0 -28.5 -2.5t-24 -7.5t-23.5 -12
t-27 -17q-25 -17 -38.5 -29.5t-20.5 -12.5q-11 10 -19.5 22.5t-8.5 21.5q11 11 25 28t28 33q67 77 114 111t83 34q45 0 70 -44.5t25 -116.5v-97h171q0 34 -4 67.5t-8.5 64t-8 56.5t-3.5 46q0 26 14 40t43 14q27 0 41 -14t14 -40q0 -20 -3.5 -46t-8 -56.5t-8 -64t-3.5 -67.5
h323z" />
    <glyph glyph-name="uni1820.medi_uni1843.medi.rlig" horiz-adv-x="250" 
d="M320 909v-182h-119q-2 -24 -6 -67t-9 -89.5t-12 -88.5t-14 -66l-35 -11q-30 75 -48.5 157t-26.5 165h-50v182h26q0 34 -4 67.5t-8.5 64t-8 56.5t-3.5 46q0 26 14 40t43 14q27 0 41 -14t14 -40q0 -20 -3.5 -46t-8 -56.5t-8 -64t-3.5 -67.5h229z" />
    <glyph glyph-name="uni1821" unicode="&#x1821;" horiz-adv-x="925" 
d="M885 544v-330q0 -69 -12.5 -119.5t-36.5 -88t-60 -64.5t-83 -48q-27 -12 -43 -21.5t-27 -20t-19 -25t-20 -36.5h-18l53 227q11 3 21.5 6t23 7.5t27 11.5t34.5 19q12 7 27 18t28.5 28t23 43t9.5 63v330q0 89 -34 136t-94 47h-303q-3 -75 -13.5 -153t-23.5 -157l-36 -10
q-20 43 -34 95t-24 102t-14.5 91.5t-4.5 63.5v150q0 40 -9.5 64.5t-32.5 24.5q-16 0 -28.5 -2.5t-24 -7.5t-23.5 -12t-27 -17q-25 -17 -38.5 -29.5t-20.5 -12.5q-11 10 -19.5 22.5t-8.5 21.5q11 11 25 28t28 33q67 77 114 111t83 34q45 0 70 -44.5t25 -116.5v-97h340
q99 0 149.5 -90.5t50.5 -274.5z" />
    <glyph glyph-name="uni1821.init" horiz-adv-x="503" 
d="M574 909v-182h-192q-3 -75 -13.5 -153t-23.5 -157l-36 -10q-20 43 -34 95t-24 102t-14.5 91.5t-4.5 63.5v150q0 40 -9.5 64.5t-32.5 24.5q-16 0 -28.5 -2.5t-24 -7.5t-23.5 -12t-27 -17q-25 -17 -38.5 -29.5t-20.5 -12.5q-11 10 -19.5 22.5t-8.5 21.5q11 11 25 28t28 33
q67 77 114 111t83 34q45 0 70 -44.5t25 -116.5v-97h229z" />
    <glyph glyph-name="uni1821_uni180B.init" horiz-adv-x="805" 
d="M875 909v-182h-213q-2 -24 -6 -67t-9 -89.5t-12 -88.5t-14 -66l-35 -11q-30 75 -48.5 157t-26.5 165h-129q-3 -75 -13.5 -153t-23.5 -157l-36 -10q-20 43 -34 95t-24 102t-14.5 91.5t-4.5 63.5v150q0 40 -9.5 64.5t-32.5 24.5q-16 0 -28.5 -2.5t-24 -7.5t-23.5 -12
t-27 -17q-25 -17 -38.5 -29.5t-20.5 -12.5q-11 10 -19.5 22.5t-8.5 21.5q11 11 25 28t28 33q67 77 114 111t83 34q45 0 70 -44.5t25 -116.5v-97h530z" />
    <glyph glyph-name="uni1821.medi" horiz-adv-x="294" 
d="M364 909v-182h-213q-2 -24 -6 -67t-9 -89.5t-12 -88.5t-14 -66l-35 -11q-30 75 -48.5 157t-26.5 165v182h364z" />
    <glyph glyph-name="uni1821.fina" horiz-adv-x="700" 
d="M693 1358q-69 -106 -133 -211.5t-109 -216.5q-59 -143 -96.5 -296t-50.5 -322q-56 29 -104.5 79.5t-85 109t-59.5 118.5t-27 108h-28v182h96v-110q0 -38 13.5 -85.5t33.5 -92.5t42 -82t39 -53q-6 22 -1.5 76t18 124t34 148t47.5 148q33 85 63 162t53 142t37 117.5
t14 89.5q0 16 -4.5 43t-9.5 54t-9.5 49.5t-4.5 30.5q0 26 6.5 38t26.5 12q6 0 17 -12.5t21 -31.5q24 -46 42.5 -84t36.5 -74t37.5 -74.5t44.5 -85.5z" />
    <glyph glyph-name="uni1821_uni180B.fina" horiz-adv-x="405" 
d="M365 544v-330q0 -69 -12.5 -119.5t-36.5 -88t-60 -64.5t-83 -48q-27 -12 -43 -21.5t-27 -20t-19 -25t-20 -36.5h-18l53 227q11 3 21.5 6t23 7.5t27 11.5t34.5 19q12 7 27 18t28.5 28t23 43t9.5 63v330q0 89 -34 136t-94 47h-165v182h165q99 0 149.5 -90.5t50.5 -274.5z
" />
    <glyph glyph-name="glyph280" horiz-adv-x="1353" 
d="M1313 697v-94q0 -57 -19.5 -92t-48.5 -35v19q0 108 -39.5 168.5t-118.5 63.5h-936q-2 -24 -6 -67t-9 -89.5t-12 -88.5t-14 -66l-35 -11q-30 75 -48.5 157t-26.5 165v182h1156q75 -7 116 -62t41 -150z" />
    <glyph glyph-name="glyph281" horiz-adv-x="561" 
d="M521 544v-330q0 -69 -12.5 -119.5t-36.5 -88t-60 -64.5t-83 -48q-27 -12 -43 -21.5t-27 -20t-19 -25t-20 -36.5h-18l53 227q11 3 21.5 6t23 7.5t27 11.5t34.5 19q12 7 27 18t28.5 28t23 43t9.5 63v330q0 89 -34 136t-94 47h-165v182h165q99 0 149.5 -90.5t50.5 -274.5z
" />
    <glyph glyph-name="glyph282" horiz-adv-x="1216" 
d="M1176 544v-330q0 -69 -12.5 -119.5t-36.5 -88t-60 -64.5t-83 -48q-27 -12 -43 -21.5t-27 -20t-19 -25t-20 -36.5h-18l53 227q11 3 21.5 6t23 7.5t27 11.5t34.5 19q12 7 27 18t28.5 28t23 43t9.5 63v330q0 89 -34 136t-94 47h-610l277 -346v-24l-44 -208h-23l-122 254
l-135 -117l-21 19l89 237l-89 185v182h678q99 0 149.5 -90.5t50.5 -274.5z" />
    <glyph glyph-name="glyph283" horiz-adv-x="405" 
d="M365 544v-330q0 -69 -12.5 -119.5t-36.5 -88t-60 -64.5t-83 -48q-27 -12 -43 -21.5t-27 -20t-19 -25t-20 -36.5h-18l53 227q11 3 21.5 6t23 7.5t27 11.5t34.5 19q12 7 27 18t28.5 28t23 43t9.5 63v330q0 89 -34 136t-94 47h-165v182h165q99 0 149.5 -90.5t50.5 -274.5z
" />
    <glyph glyph-name="uni1822" unicode="&#x1822;" horiz-adv-x="990" 
d="M950 864q0 -30 -3.5 -43.5t-16.5 -13.5q-11 0 -17 12.5t-10 28.5q-9 41 -19.5 88.5t-26.5 88.5t-41 68t-63 27q-44 0 -77 -23.5t-55.5 -64t-34 -95t-11.5 -115.5q0 -30 12.5 -63.5t32 -67t43.5 -66t47.5 -60t44 -49t31.5 -33.5l-47 -158h-18q-34 39 -68 91.5t-61 108
t-44 108.5t-17 94h-149q-3 -75 -13.5 -153t-23.5 -157l-36 -10q-20 43 -34 95t-24 102t-14.5 91.5t-4.5 63.5v150q0 40 -9.5 64.5t-32.5 24.5q-16 0 -28.5 -2.5t-24 -7.5t-23.5 -12t-27 -17q-25 -17 -38.5 -29.5t-20.5 -12.5q-11 10 -19.5 22.5t-8.5 21.5q11 11 25 28t28 33
q67 77 114 111t83 34q45 0 70 -44.5t25 -116.5v-97h186q14 177 70 274t153 97q58 0 96 -37t60 -96.5t31 -133.5t9 -149z" />
    <glyph glyph-name="uni1822.init" horiz-adv-x="917" 
d="M986 909v-182h-416l208 -296v-24l-44 -208h-23l-209 528h-120q-3 -75 -13.5 -153t-23.5 -157l-36 -10q-20 43 -34 95t-24 102t-14.5 91.5t-4.5 63.5v150q0 40 -9.5 64.5t-32.5 24.5q-16 0 -28.5 -2.5t-24 -7.5t-23.5 -12t-27 -17q-25 -17 -38.5 -29.5t-20.5 -12.5
q-11 10 -19.5 22.5t-8.5 21.5q11 11 25 28t28 33q67 77 114 111t83 34q45 0 70 -44.5t25 -116.5v-97h641z" />
    <glyph glyph-name="uni1822.medi" horiz-adv-x="414" 
d="M484 909v-182h-416l208 -296v-24l-44 -208h-23l-209 528v182h484z" />
    <glyph glyph-name="uni1822_uni180B.medi" horiz-adv-x="708" 
d="M778 909v-182h-416l208 -296v-24l-44 -208h-23l-209 528h-143q-2 -24 -6 -67t-9 -89.5t-12 -88.5t-14 -66l-35 -11q-30 75 -48.5 157t-26.5 165v182h778z" />
    <glyph glyph-name="uni1822.fina" horiz-adv-x="486" 
d="M449 864q0 -30 -3.5 -43.5t-16.5 -13.5q-11 0 -17 12.5t-10 28.5q-9 41 -19.5 88.5t-26.5 88.5t-41 68t-63 27q-44 0 -77 -23.5t-55.5 -64t-34 -95t-11.5 -115.5q0 -30 12.5 -63.5t32 -67t43.5 -66t47.5 -60t44 -49t31.5 -33.5l-47 -158h-18q-34 39 -68 91.5t-61 108
t-44 108.5t-17 94h-30v182h30q14 177 70 274t153 97q58 0 96 -37t60 -96.5t31 -133.5t9 -149z" />
    <glyph glyph-name="glyph289" horiz-adv-x="830" 
d="M900 909v-182h-416l208 -296v-24l-44 -208h-23l-209 528h-348l208 -296v-24l-44 -208h-23l-209 528v182h900z" />
    <glyph glyph-name="glyph290" horiz-adv-x="414" 
d="M484 909v-182h-416l208 -296v-24l-44 -208h-23l-209 528v182h484z" />
    <glyph glyph-name="glyph291" horiz-adv-x="486" 
d="M449 864q0 -30 -3.5 -43.5t-16.5 -13.5q-11 0 -17 12.5t-10 28.5q-9 41 -19.5 88.5t-26.5 88.5t-41 68t-63 27q-44 0 -77 -23.5t-55.5 -64t-34 -95t-11.5 -115.5q0 -30 12.5 -63.5t32 -67t43.5 -66t47.5 -60t44 -49t31.5 -33.5l-47 -158h-18q-34 39 -68 91.5t-61 108
t-44 108.5t-17 94h-30v182h30q14 177 70 274t153 97q58 0 96 -37t60 -96.5t31 -133.5t9 -149z" />
    <glyph glyph-name="uni1823" unicode="&#x1823;" horiz-adv-x="897" 
d="M857 909v-319q0 -121 -42 -187.5t-133 -66.5t-137 66.5t-46 187.5v137h-117q-3 -75 -13.5 -153t-23.5 -157l-36 -10q-20 43 -34 95t-24 102t-14.5 91.5t-4.5 63.5v150q0 40 -9.5 64.5t-32.5 24.5q-16 0 -28.5 -2.5t-24 -7.5t-23.5 -12t-27 -17q-25 -17 -38.5 -29.5
t-20.5 -12.5q-11 10 -19.5 22.5t-8.5 21.5q11 11 25 28t28 33q67 77 114 111t83 34q45 0 70 -44.5t25 -116.5v-97h512zM803 727h-250v-137q0 -57 35 -85.5t96 -28.5q55 0 87 28.5t32 85.5v137z" />
    <glyph glyph-name="uni1823.init" horiz-adv-x="960" 
d="M1030 909v-182h-198v-137q0 -121 -42 -187.5t-133 -66.5t-137 66.5t-46 187.5v137h-92q-3 -75 -13.5 -153t-23.5 -157l-36 -10q-20 43 -34 95t-24 102t-14.5 91.5t-4.5 63.5v150q0 40 -9.5 64.5t-32.5 24.5q-16 0 -28.5 -2.5t-24 -7.5t-23.5 -12t-27 -17
q-25 -17 -38.5 -29.5t-20.5 -12.5q-11 10 -19.5 22.5t-8.5 21.5q11 11 25 28t28 33q67 77 114 111t83 34q45 0 70 -44.5t25 -116.5v-97h685zM778 727h-250v-137q0 -57 35 -85.5t96 -28.5q55 0 87 28.5t32 85.5v137z" />
    <glyph glyph-name="uni1823.medi" horiz-adv-x="486" 
d="M556 909v-182h-198v-137q0 -121 -42 -187.5t-133 -66.5t-137 66.5t-46 187.5v137v182h556zM304 727h-250v-137q0 -57 35 -85.5t96 -28.5q55 0 87 28.5t32 85.5v137z" />
    <glyph glyph-name="uni1823_uni180B.medi" horiz-adv-x="780" 
d="M850 909v-182h-198v-137q0 -121 -42 -187.5t-133 -66.5t-137 66.5t-46 187.5v137h-143q-2 -24 -6 -67t-9 -89.5t-12 -88.5t-14 -66l-35 -11q-30 75 -48.5 157t-26.5 165v182h850zM598 727h-250v-137q0 -57 35 -85.5t96 -28.5q55 0 87 28.5t32 85.5v137z" />
    <glyph glyph-name="uni1823.fina" horiz-adv-x="572" 
d="M325 727h-261q0 -54 2 -100t14 -79.5t38.5 -52.5t75.5 -19t75.5 18.5t39 51.5t14.5 79t2 102zM532 881q0 -36 -8 -55t-14 -19q-14 0 -20.5 15.5t-14.5 61.5q-11 71 -31 123t-46 86t-57 50.5t-65 16.5q-163 0 -208 -251h236q85 0 85 -87v-186q0 -57 -9.5 -111t-32 -96
t-60 -67.5t-93.5 -25.5q-43 0 -73.5 19t-52 51t-35 73t-21 84t-10 86t-2.5 78v182q14 200 82.5 305.5t193.5 105.5q62 0 110 -33t80.5 -91.5t49 -139t16.5 -175.5z" />
    <glyph glyph-name="uni1823_uni180B.fina" horiz-adv-x="398" 
d="M358 909v-319q0 -121 -42 -187.5t-133 -66.5t-137 66.5t-46 187.5v319h358zM304 727h-250v-137q0 -57 35 -85.5t96 -28.5q55 0 87 28.5t32 85.5v137z" />
    <glyph glyph-name="uni1824" unicode="&#x1824;" horiz-adv-x="960" 
d="M910 909v-182h-53v-137q0 -121 -42 -187.5t-133 -66.5t-137 66.5t-46 187.5v137h-117q-3 -75 -13.5 -153t-23.5 -157l-36 -10q-20 43 -34 95t-24 102t-14.5 91.5t-4.5 63.5v150q0 40 -9.5 64.5t-32.5 24.5q-16 0 -28.5 -2.5t-24 -7.5t-23.5 -12t-27 -17
q-25 -17 -38.5 -29.5t-20.5 -12.5q-11 10 -19.5 22.5t-8.5 21.5q11 11 25 28t28 33q67 77 114 111t83 34q45 0 70 -44.5t25 -116.5v-97h565zM803 727h-250v-137q0 -57 35 -85.5t96 -28.5q55 0 87 28.5t32 85.5v137z" />
    <glyph glyph-name="uni1824.init" horiz-adv-x="960" 
d="M1030 909v-182h-198v-137q0 -121 -42 -187.5t-133 -66.5t-137 66.5t-46 187.5v137h-92q-3 -75 -13.5 -153t-23.5 -157l-36 -10q-20 43 -34 95t-24 102t-14.5 91.5t-4.5 63.5v150q0 40 -9.5 64.5t-32.5 24.5q-16 0 -28.5 -2.5t-24 -7.5t-23.5 -12t-27 -17
q-25 -17 -38.5 -29.5t-20.5 -12.5q-11 10 -19.5 22.5t-8.5 21.5q11 11 25 28t28 33q67 77 114 111t83 34q45 0 70 -44.5t25 -116.5v-97h685zM778 727h-250v-137q0 -57 35 -85.5t96 -28.5q55 0 87 28.5t32 85.5v137z" />
    <glyph glyph-name="uni1824.medi" horiz-adv-x="486" 
d="M556 909v-182h-198v-137q0 -121 -42 -187.5t-133 -66.5t-137 66.5t-46 187.5v137v182h556zM304 727h-250v-137q0 -57 35 -85.5t96 -28.5q55 0 87 28.5t32 85.5v137z" />
    <glyph glyph-name="uni1824_uni180B.medi" horiz-adv-x="780" 
d="M850 909v-182h-198v-137q0 -121 -42 -187.5t-133 -66.5t-137 66.5t-46 187.5v137h-143q-2 -24 -6 -67t-9 -89.5t-12 -88.5t-14 -66l-35 -11q-30 75 -48.5 157t-26.5 165v182h850zM598 727h-250v-137q0 -57 35 -85.5t96 -28.5q55 0 87 28.5t32 85.5v137z" />
    <glyph glyph-name="uni1824.fina" horiz-adv-x="572" 
d="M325 727h-261q0 -54 2 -100t14 -79.5t38.5 -52.5t75.5 -19t75.5 18.5t39 51.5t14.5 79t2 102zM532 881q0 -36 -8 -55t-14 -19q-14 0 -20.5 15.5t-14.5 61.5q-11 71 -31 123t-46 86t-57 50.5t-65 16.5q-163 0 -208 -251h236q85 0 85 -87v-186q0 -57 -9.5 -111t-32 -96
t-60 -67.5t-93.5 -25.5q-43 0 -73.5 19t-52 51t-35 73t-21 84t-10 86t-2.5 78v182q14 200 82.5 305.5t193.5 105.5q62 0 110 -33t80.5 -91.5t49 -139t16.5 -175.5z" />
    <glyph glyph-name="uni1824_uni180B.fina" horiz-adv-x="398" 
d="M358 909v-319q0 -121 -42 -187.5t-133 -66.5t-137 66.5t-46 187.5v319h358zM304 727h-250v-137q0 -57 35 -85.5t96 -28.5q55 0 87 28.5t32 85.5v137z" />
    <glyph glyph-name="uni1824.isol" horiz-adv-x="897" 
d="M857 909v-319q0 -121 -42 -187.5t-133 -66.5t-137 66.5t-46 187.5v137h-117q-3 -75 -13.5 -153t-23.5 -157l-36 -10q-20 43 -34 95t-24 102t-14.5 91.5t-4.5 63.5v150q0 40 -9.5 64.5t-32.5 24.5q-16 0 -28.5 -2.5t-24 -7.5t-23.5 -12t-27 -17q-25 -17 -38.5 -29.5
t-20.5 -12.5q-11 10 -19.5 22.5t-8.5 21.5q11 11 25 28t28 33q67 77 114 111t83 34q45 0 70 -44.5t25 -116.5v-97h512zM803 727h-250v-137q0 -57 35 -85.5t96 -28.5q55 0 87 28.5t32 85.5v137z" />
    <glyph glyph-name="glyph305" horiz-adv-x="572" 
d="M325 727h-261q0 -54 2 -100t14 -79.5t38.5 -52.5t75.5 -19t75.5 18.5t39 51.5t14.5 79t2 102zM532 881q0 -36 -8 -55t-14 -19q-14 0 -20.5 15.5t-14.5 61.5q-11 71 -31 123t-46 86t-57 50.5t-65 16.5q-163 0 -208 -251h236q85 0 85 -87v-186q0 -57 -9.5 -111t-32 -96
t-60 -67.5t-93.5 -25.5q-43 0 -73.5 19t-52 51t-35 73t-21 84t-10 86t-2.5 78v182q14 200 82.5 305.5t193.5 105.5q62 0 110 -33t80.5 -91.5t49 -139t16.5 -175.5z" />
    <glyph glyph-name="uni1824.init_uni1824.fina.rlig" horiz-adv-x="1019" 
d="M1019 881q0 -36 -8 -55t-14 -19q-14 0 -20.5 15.5t-14.5 61.5q-11 71 -31 123t-46 86t-57 50.5t-65 16.5q-163 0 -208 -251h236q85 0 85 -87v-186q0 -57 -9.5 -111t-32 -96t-60 -67.5t-93.5 -25.5q-43 0 -73.5 19t-52 51t-35 73t-21 84t-10 86t-2.5 78h-129v-137
q0 -121 -42 -187.5t-133 -66.5t-137 66.5t-46 187.5v319h487q14 200 82.5 305.5t193.5 105.5q62 0 110 -33t80.5 -91.5t49 -139t16.5 -175.5zM812 727h-261q0 -54 2 -100t14 -79.5t38.5 -52.5t75.5 -19t75.5 18.5t39 51.5t14.5 79t2 102zM304 727h-250v-137q0 -57 35 -85.5
t96 -28.5q55 0 87 28.5t32 85.5v137z" />
    <glyph glyph-name="uni1825" unicode="&#x1825;" horiz-adv-x="1260" 
d="M1220 697v-94q0 -57 -19.5 -92t-48.5 -35v19q0 108 -39.5 168.5t-118.5 63.5h-139v-137q0 -121 -42 -187.5t-133 -66.5t-137 66.5t-46 187.5v137h-115q-3 -75 -13.5 -153t-23.5 -157l-36 -10q-20 43 -34 95t-24 102t-14.5 91.5t-4.5 63.5v150q0 40 -9.5 64.5t-32.5 24.5
q-16 0 -28.5 -2.5t-24 -7.5t-23.5 -12t-27 -17q-25 -17 -38.5 -29.5t-20.5 -12.5q-11 10 -19.5 22.5t-8.5 21.5q11 11 25 28t28 33q67 77 114 111t83 34q45 0 70 -44.5t25 -116.5v-97h718q75 -7 116 -62t41 -150zM801 727h-250v-137q0 -57 35 -85.5t96 -28.5q55 0 87 28.5
t32 85.5v137z" />
    <glyph glyph-name="uni1825.init" horiz-adv-x="1400" 
d="M1470 909v-182h-416l208 -296v-24l-44 -208h-23l-209 528h-131v-137q0 -121 -42 -187.5t-133 -66.5t-137 66.5t-46 187.5v137h-115q-3 -75 -13.5 -153t-23.5 -157l-36 -10q-20 43 -34 95t-24 102t-14.5 91.5t-4.5 63.5v150q0 40 -9.5 64.5t-32.5 24.5q-16 0 -28.5 -2.5
t-24 -7.5t-23.5 -12t-27 -17q-25 -17 -38.5 -29.5t-20.5 -12.5q-11 10 -19.5 22.5t-8.5 21.5q11 11 25 28t28 33q67 77 114 111t83 34q45 0 70 -44.5t25 -116.5v-97h1125zM801 727h-250v-137q0 -57 35 -85.5t96 -28.5q55 0 87 28.5t32 85.5v137z" />
    <glyph glyph-name="uni1825_uni180B.medi" horiz-adv-x="900" 
d="M970 909v-182h-416l208 -296v-24l-44 -208h-23l-209 528h-128v-137q0 -121 -42 -187.5t-133 -66.5t-137 66.5t-46 187.5v319h970zM304 727h-250v-137q0 -57 35 -85.5t96 -28.5q55 0 87 28.5t32 85.5v137z" />
    <glyph glyph-name="uni1825.medi" horiz-adv-x="486" 
d="M556 909v-182h-198v-137q0 -121 -42 -187.5t-133 -66.5t-137 66.5t-46 187.5v137v182h556zM304 727h-250v-137q0 -57 35 -85.5t96 -28.5q55 0 87 28.5t32 85.5v137z" />
    <glyph glyph-name="uni1825_uni180C.medi" horiz-adv-x="1200" 
d="M1270 909v-182h-416l208 -296v-24l-44 -208h-23l-209 528h-133v-137q0 -121 -42 -187.5t-133 -66.5t-137 66.5t-46 187.5v137h-144q-2 -24 -6 -67t-9 -89.5t-12 -88.5t-14 -66l-35 -11q-30 75 -48.5 157t-26.5 165v182h1270zM599 727h-250v-137q0 -57 35 -85.5t96 -28.5
q55 0 87 28.5t32 85.5v137z" />
    <glyph glyph-name="uni1825.fina" horiz-adv-x="572" 
d="M325 727h-261q0 -54 2 -100t14 -79.5t38.5 -52.5t75.5 -19t75.5 18.5t39 51.5t14.5 79t2 102zM532 881q0 -36 -8 -55t-14 -19q-14 0 -20.5 15.5t-14.5 61.5q-11 71 -31 123t-46 86t-57 50.5t-65 16.5q-163 0 -208 -251h236q85 0 85 -87v-186q0 -57 -9.5 -111t-32 -96
t-60 -67.5t-93.5 -25.5q-43 0 -73.5 19t-52 51t-35 73t-21 84t-10 86t-2.5 78v182q14 200 82.5 305.5t193.5 105.5q62 0 110 -33t80.5 -91.5t49 -139t16.5 -175.5z" />
    <glyph glyph-name="uni1825_uni180B.fina" horiz-adv-x="761" 
d="M721 697v-94q0 -57 -19.5 -92t-48.5 -35v19q0 108 -39.5 168.5t-118.5 63.5h-137v-137q0 -121 -42 -187.5t-133 -66.5t-137 66.5t-46 187.5v319h564q75 -7 116 -62t41 -150zM304 727h-250v-137q0 -57 35 -85.5t96 -28.5q55 0 87 28.5t32 85.5v137z" />
    <glyph glyph-name="uni1826" unicode="&#x1826;" horiz-adv-x="1420" 
d="M1380 909v-182h-326l208 -296v-24l-44 -208h-23l-209 528h-131v-137q0 -121 -42 -187.5t-133 -66.5t-137 66.5t-46 187.5v137h-115q-3 -75 -13.5 -153t-23.5 -157l-36 -10q-20 43 -34 95t-24 102t-14.5 91.5t-4.5 63.5v150q0 40 -9.5 64.5t-32.5 24.5q-16 0 -28.5 -2.5
t-24 -7.5t-23.5 -12t-27 -17q-25 -17 -38.5 -29.5t-20.5 -12.5q-11 10 -19.5 22.5t-8.5 21.5q11 11 25 28t28 33q67 77 114 111t83 34q45 0 70 -44.5t25 -116.5v-97h1035zM801 727h-250v-137q0 -57 35 -85.5t96 -28.5q55 0 87 28.5t32 85.5v137z" />
    <glyph glyph-name="uni1826_uni180B.isol" horiz-adv-x="1080" 
d="M1040 881q0 -36 -8 -55t-14 -19q-14 0 -20.5 15.5t-14.5 61.5q-11 71 -31 123t-46 86t-57 50.5t-65 16.5q-163 0 -208 -251h236q85 0 85 -87v-186q0 -57 -9.5 -111t-32 -96t-60 -67.5t-93.5 -25.5q-43 0 -73.5 19t-52 51t-35 73t-21 84t-10 86t-2.5 78h-126
q-3 -75 -13.5 -153t-23.5 -157l-36 -10q-20 43 -34 95t-24 102t-14.5 91.5t-4.5 63.5v150q0 40 -9.5 64.5t-32.5 24.5q-16 0 -28.5 -2.5t-24 -7.5t-23.5 -12t-27 -17q-25 -17 -38.5 -29.5t-20.5 -12.5q-11 10 -19.5 22.5t-8.5 21.5q11 11 25 28t28 33q67 77 114 111t83 34
q45 0 70 -44.5t25 -116.5v-97h163q14 200 82.5 305.5t193.5 105.5q62 0 110 -33t80.5 -91.5t49 -139t16.5 -175.5zM833 727h-261q0 -54 2 -100t14 -79.5t38.5 -52.5t75.5 -19t75.5 18.5t39 51.5t14.5 79t2 102z" />
    <glyph glyph-name="uni1826.init" horiz-adv-x="1400" 
d="M1470 909v-182h-416l208 -296v-24l-44 -208h-23l-209 528h-131v-137q0 -121 -42 -187.5t-133 -66.5t-137 66.5t-46 187.5v137h-115q-3 -75 -13.5 -153t-23.5 -157l-36 -10q-20 43 -34 95t-24 102t-14.5 91.5t-4.5 63.5v150q0 40 -9.5 64.5t-32.5 24.5q-16 0 -28.5 -2.5
t-24 -7.5t-23.5 -12t-27 -17q-25 -17 -38.5 -29.5t-20.5 -12.5q-11 10 -19.5 22.5t-8.5 21.5q11 11 25 28t28 33q67 77 114 111t83 34q45 0 70 -44.5t25 -116.5v-97h1125zM801 727h-250v-137q0 -57 35 -85.5t96 -28.5q55 0 87 28.5t32 85.5v137z" />
    <glyph glyph-name="uni1826_uni180B.medi" horiz-adv-x="900" 
d="M970 909v-182h-416l208 -296v-24l-44 -208h-23l-209 528h-128v-137q0 -121 -42 -187.5t-133 -66.5t-137 66.5t-46 187.5v319h970zM304 727h-250v-137q0 -57 35 -85.5t96 -28.5q55 0 87 28.5t32 85.5v137z" />
    <glyph glyph-name="uni1826.medi" horiz-adv-x="486" 
d="M556 909v-182h-198v-137q0 -121 -42 -187.5t-133 -66.5t-137 66.5t-46 187.5v137v182h556zM304 727h-250v-137q0 -57 35 -85.5t96 -28.5q55 0 87 28.5t32 85.5v137z" />
    <glyph glyph-name="uni1826_uni180C.medi" horiz-adv-x="1200" 
d="M1270 909v-182h-416l208 -296v-24l-44 -208h-23l-209 528h-133v-137q0 -121 -42 -187.5t-133 -66.5t-137 66.5t-46 187.5v137h-144q-2 -24 -6 -67t-9 -89.5t-12 -88.5t-14 -66l-35 -11q-30 75 -48.5 157t-26.5 165v182h1270zM599 727h-250v-137q0 -57 35 -85.5t96 -28.5
q55 0 87 28.5t32 85.5v137z" />
    <glyph glyph-name="uni1826.fina" horiz-adv-x="572" 
d="M325 727h-261q0 -54 2 -100t14 -79.5t38.5 -52.5t75.5 -19t75.5 18.5t39 51.5t14.5 79t2 102zM532 881q0 -36 -8 -55t-14 -19q-14 0 -20.5 15.5t-14.5 61.5q-11 71 -31 123t-46 86t-57 50.5t-65 16.5q-163 0 -208 -251h236q85 0 85 -87v-186q0 -57 -9.5 -111t-32 -96
t-60 -67.5t-93.5 -25.5q-43 0 -73.5 19t-52 51t-35 73t-21 84t-10 86t-2.5 78v182q14 200 82.5 305.5t193.5 105.5q62 0 110 -33t80.5 -91.5t49 -139t16.5 -175.5z" />
    <glyph glyph-name="uni1826_uni180B.fina" horiz-adv-x="761" 
d="M721 697v-94q0 -57 -19.5 -92t-48.5 -35v19q0 108 -39.5 168.5t-118.5 63.5h-137v-137q0 -121 -42 -187.5t-133 -66.5t-137 66.5t-46 187.5v319h564q75 -7 116 -62t41 -150zM304 727h-250v-137q0 -57 35 -85.5t96 -28.5q55 0 87 28.5t32 85.5v137z" />
    <glyph glyph-name="glyph322" horiz-adv-x="486" 
d="M556 909v-182h-198v-137q0 -121 -42 -187.5t-133 -66.5t-137 66.5t-46 187.5v137v182h556zM304 727h-250v-137q0 -57 35 -85.5t96 -28.5q55 0 87 28.5t32 85.5v137z" />
    <glyph glyph-name="uni1826.isol" horiz-adv-x="1260" 
d="M1220 697v-94q0 -57 -19.5 -92t-48.5 -35v19q0 108 -39.5 168.5t-118.5 63.5h-139v-137q0 -121 -42 -187.5t-133 -66.5t-137 66.5t-46 187.5v137h-115q-3 -75 -13.5 -153t-23.5 -157l-36 -10q-20 43 -34 95t-24 102t-14.5 91.5t-4.5 63.5v150q0 40 -9.5 64.5t-32.5 24.5
q-16 0 -28.5 -2.5t-24 -7.5t-23.5 -12t-27 -17q-25 -17 -38.5 -29.5t-20.5 -12.5q-11 10 -19.5 22.5t-8.5 21.5q11 11 25 28t28 33q67 77 114 111t83 34q45 0 70 -44.5t25 -116.5v-97h718q75 -7 116 -62t41 -150zM801 727h-250v-137q0 -57 35 -85.5t96 -28.5q55 0 87 28.5
t32 85.5v137z" />
    <glyph glyph-name="glyph324" horiz-adv-x="572" 
d="M325 727h-261q0 -54 2 -100t14 -79.5t38.5 -52.5t75.5 -19t75.5 18.5t39 51.5t14.5 79t2 102zM532 881q0 -36 -8 -55t-14 -19q-14 0 -20.5 15.5t-14.5 61.5q-11 71 -31 123t-46 86t-57 50.5t-65 16.5q-163 0 -208 -251h236q85 0 85 -87v-186q0 -57 -9.5 -111t-32 -96
t-60 -67.5t-93.5 -25.5q-43 0 -73.5 19t-52 51t-35 73t-21 84t-10 86t-2.5 78v182q14 200 82.5 305.5t193.5 105.5q62 0 110 -33t80.5 -91.5t49 -139t16.5 -175.5z" />
    <glyph glyph-name="uni1826.init_uni1826.fina.rlig" horiz-adv-x="1023" 
d="M1023 881q0 -36 -8 -55t-14 -19q-14 0 -20.5 15.5t-14.5 61.5q-11 71 -31 123t-46 86t-57 50.5t-65 16.5q-163 0 -208 -251h236q85 0 85 -87v-186q0 -57 -9.5 -111t-32 -96t-60 -67.5t-93.5 -25.5q-43 0 -73.5 19t-52 51t-35 73t-21 84t-10 86t-2.5 78h-133v-137
q0 -121 -42 -187.5t-133 -66.5t-137 66.5t-46 187.5v319h491q14 200 82.5 305.5t193.5 105.5q62 0 110 -33t80.5 -91.5t49 -139t16.5 -175.5zM816 727h-261q0 -54 2 -100t14 -79.5t38.5 -52.5t75.5 -19t75.5 18.5t39 51.5t14.5 79t2 102zM304 727h-250v-137q0 -57 35 -85.5
t96 -28.5q55 0 87 28.5t32 85.5v137z" />
    <glyph glyph-name="uni1827" unicode="&#x1827;" horiz-adv-x="1420" 
d="M1380 697v-94q0 -57 -19.5 -92t-48.5 -35v19q0 108 -39.5 168.5t-118.5 63.5h-564l54 -239q14 -51 29.5 -89t35 -63t45 -37.5t58.5 -12.5q29 0 47 11t29.5 24.5t19 25t16.5 11.5q17 0 24 -16.5t7 -46.5q0 -31 -11 -58t-30.5 -47.5t-45.5 -32t-56 -11.5q-49 0 -85.5 21.5
t-65 62t-50.5 100t-40 134.5l-61 263h-128q-3 -75 -13.5 -153t-23.5 -157l-36 -10q-20 43 -34 95t-24 102t-14.5 91.5t-4.5 63.5v150q0 40 -9.5 64.5t-32.5 24.5q-16 0 -28.5 -2.5t-24 -7.5t-23.5 -12t-27 -17q-25 -17 -38.5 -29.5t-20.5 -12.5q-11 10 -19.5 22.5t-8.5 21.5
q11 11 25 28t28 33q67 77 114 111t83 34q45 0 70 -44.5t25 -116.5v-97h878q75 -7 116 -62t41 -150z" />
    <glyph glyph-name="uni1827.init" horiz-adv-x="1060" 
d="M1130 909v-182h-540l54 -239q14 -51 29.5 -89t35 -63t45 -37.5t58.5 -12.5q29 0 47 11t29.5 24.5t19 25t16.5 11.5q17 0 24 -16.5t7 -46.5q0 -31 -11 -58t-30.5 -47.5t-45.5 -32t-56 -11.5q-49 0 -85.5 21.5t-65 62t-50.5 100t-40 134.5l-61 263h-128q-3 -75 -13.5 -153
t-23.5 -157l-36 -10q-20 43 -34 95t-24 102t-14.5 91.5t-4.5 63.5v150q0 40 -9.5 64.5t-32.5 24.5q-16 0 -28.5 -2.5t-24 -7.5t-23.5 -12t-27 -17q-25 -17 -38.5 -29.5t-20.5 -12.5q-11 10 -19.5 22.5t-8.5 21.5q11 11 25 28t28 33q67 77 114 111t83 34q45 0 70 -44.5
t25 -116.5v-97h785z" />
    <glyph glyph-name="uni1827.medi" horiz-adv-x="550" 
d="M620 909v-182h-540l54 -239q14 -51 29.5 -89t35 -63t45 -37.5t58.5 -12.5q29 0 47 11t29.5 24.5t19 25t16.5 11.5q17 0 24 -16.5t7 -46.5q0 -31 -11 -58t-30.5 -47.5t-45.5 -32t-56 -11.5q-49 0 -85.5 21.5t-65 62t-50.5 100t-40 134.5l-61 263v182h620z" />
    <glyph glyph-name="uni1827.fina" horiz-adv-x="920" 
d="M880 697v-94q0 -57 -19.5 -92t-48.5 -35v19q0 108 -39.5 168.5t-118.5 63.5h-574l54 -239q14 -51 29.5 -89t35 -63t45 -37.5t58.5 -12.5q29 0 47 11t29.5 24.5t19 25t16.5 11.5q17 0 24 -16.5t7 -46.5q0 -31 -11 -58t-30.5 -47.5t-45.5 -32t-56 -11.5q-49 0 -85.5 21.5
t-65 62t-50.5 100t-40 134.5l-61 263v182h723q75 -7 116 -62t41 -150z" />
    <glyph glyph-name="uni1828" unicode="&#x1828;" horiz-adv-x="545" 
d="M370 178q0 -10 -6 -18t-15.5 -16.5t-21.5 -18t-24 -22.5q-11 -12 -19 -23t-14.5 -19.5t-12.5 -13.5t-13 -5q-17 0 -28.5 8.5t-11.5 26.5q0 23 3.5 41.5t11.5 41.5q5 14 13 30t18.5 29.5t23 22t27.5 8.5q16 0 36 -18q33 -30 33 -54zM505 909v-182h-123q-3 -75 -13.5 -153
t-23.5 -157l-36 -10q-20 43 -34 95t-24 102t-14.5 91.5t-4.5 63.5v150q0 40 -9.5 64.5t-32.5 24.5q-16 0 -28.5 -2.5t-24 -7.5t-23.5 -12t-27 -17q-25 -17 -38.5 -29.5t-20.5 -12.5q-11 10 -19.5 22.5t-8.5 21.5q11 11 25 28t28 33q67 77 114 111t83 34q45 0 70 -44.5
t25 -116.5v-97h160z" />
    <glyph glyph-name="uni1828.init" horiz-adv-x="503" 
d="M574 909v-182h-192q-3 -75 -13.5 -153t-23.5 -157l-36 -10q-20 43 -34 95t-24 102t-14.5 91.5t-4.5 63.5v150q0 40 -9.5 64.5t-32.5 24.5q-16 0 -28.5 -2.5t-24 -7.5t-23.5 -12t-27 -17q-25 -17 -38.5 -29.5t-20.5 -12.5q-11 10 -19.5 22.5t-8.5 21.5q11 11 25 28t28 33
q67 77 114 111t83 34q45 0 70 -44.5t25 -116.5v-97h229zM370 178q0 -10 -6 -18t-15.5 -16.5t-21.5 -18t-24 -22.5q-11 -12 -19 -23t-14.5 -19.5t-12.5 -13.5t-13 -5q-17 0 -28.5 8.5t-11.5 26.5q0 23 3.5 41.5t11.5 41.5q5 14 13 30t18.5 29.5t23 22t27.5 8.5q16 0 36 -18
q33 -30 33 -54z" />
    <glyph glyph-name="uni1828_uni180B.init" horiz-adv-x="503" 
d="M574 909v-182h-192q-3 -75 -13.5 -153t-23.5 -157l-36 -10q-20 43 -34 95t-24 102t-14.5 91.5t-4.5 63.5v150q0 40 -9.5 64.5t-32.5 24.5q-16 0 -28.5 -2.5t-24 -7.5t-23.5 -12t-27 -17q-25 -17 -38.5 -29.5t-20.5 -12.5q-11 10 -19.5 22.5t-8.5 21.5q11 11 25 28t28 33
q67 77 114 111t83 34q45 0 70 -44.5t25 -116.5v-97h229z" />
    <glyph glyph-name="uni1828.medi" horiz-adv-x="294" 
d="M364 909v-182h-213q-2 -24 -6 -67t-9 -89.5t-12 -88.5t-14 -66l-35 -11q-30 75 -48.5 157t-26.5 165v182h364z" />
    <glyph glyph-name="uni1828_uni180B.medi" horiz-adv-x="294" 
d="M364 909v-182h-213q-2 -24 -6 -67t-9 -89.5t-12 -88.5t-14 -66l-35 -11q-30 75 -48.5 157t-26.5 165v182h364zM175 178q0 -10 -6 -18t-15.5 -16.5t-21.5 -18t-24 -22.5q-11 -12 -19 -23t-14.5 -19.5t-12.5 -13.5t-13 -5q-17 0 -28.5 8.5t-11.5 26.5q0 23 3.5 41.5
t11.5 41.5q5 14 13 30t18.5 29.5t23 22t27.5 8.5q16 0 36 -18q33 -30 33 -54z" />
    <glyph glyph-name="uni1828_uni180C.medi" horiz-adv-x="700" 
d="M693 1358q-69 -106 -133 -211.5t-109 -216.5q-59 -143 -96.5 -296t-50.5 -322q-56 29 -104.5 79.5t-85 109t-59.5 118.5t-27 108h-28v182h96v-110q0 -38 13.5 -85.5t33.5 -92.5t42 -82t39 -53q-6 22 -1.5 76t18 124t34 148t47.5 148q33 85 63 162t53 142t37 117.5
t14 89.5q0 16 -4.5 43t-9.5 54t-9.5 49.5t-4.5 30.5q0 26 6.5 38t26.5 12q6 0 17 -12.5t21 -31.5q24 -46 42.5 -84t36.5 -74t37.5 -74.5t44.5 -85.5zM622 259q0 -10 -6 -18t-15.5 -16.5t-21.5 -18t-24 -22.5q-11 -12 -19 -23t-14.5 -19.5t-12.5 -13.5t-13 -5
q-17 0 -28.5 8.5t-11.5 26.5q0 23 3.5 41.5t11.5 41.5q5 14 13 30t18.5 29.5t23 22t27.5 8.5q16 0 36 -18q33 -30 33 -54z" />
    <glyph glyph-name="uni1828_uni180D.medi" horiz-adv-x="571" 
d="M640 909v-182h-213q-2 -24 -6 -67t-9 -89.5t-12 -88.5t-14 -66l-35 -11q-30 75 -48.5 157t-26.5 165h-276v182h640zM423 178q0 -10 -6 -18t-15.5 -16.5t-21.5 -18t-24 -22.5q-11 -12 -19 -23t-14.5 -19.5t-12.5 -13.5t-13 -5q-17 0 -28.5 8.5t-11.5 26.5q0 23 3.5 41.5
t11.5 41.5q5 14 13 30t18.5 29.5t23 22t27.5 8.5q16 0 36 -18q33 -30 33 -54z" />
    <glyph glyph-name="uni1828.fina" horiz-adv-x="700" 
d="M693 1358q-69 -106 -133 -211.5t-109 -216.5q-59 -143 -96.5 -296t-50.5 -322q-56 29 -104.5 79.5t-85 109t-59.5 118.5t-27 108h-28v182h96v-110q0 -38 13.5 -85.5t33.5 -92.5t42 -82t39 -53q-6 22 -1.5 76t18 124t34 148t47.5 148q33 85 63 162t53 142t37 117.5
t14 89.5q0 16 -4.5 43t-9.5 54t-9.5 49.5t-4.5 30.5q0 26 6.5 38t26.5 12q6 0 17 -12.5t21 -31.5q24 -46 42.5 -84t36.5 -74t37.5 -74.5t44.5 -85.5z" />
    <glyph glyph-name="glyph338" horiz-adv-x="1353" 
d="M1313 697v-94q0 -57 -19.5 -92t-48.5 -35v19q0 108 -39.5 168.5t-118.5 63.5h-936q-2 -24 -6 -67t-9 -89.5t-12 -88.5t-14 -66l-35 -11q-30 75 -48.5 157t-26.5 165v182h1156q75 -7 116 -62t41 -150z" />
    <glyph glyph-name="glyph339" horiz-adv-x="700" 
d="M693 1358q-69 -106 -133 -211.5t-109 -216.5q-59 -143 -96.5 -296t-50.5 -322q-56 29 -104.5 79.5t-85 109t-59.5 118.5t-27 108h-28v182h96v-110q0 -38 13.5 -85.5t33.5 -92.5t42 -82t39 -53q-6 22 -1.5 76t18 124t34 148t47.5 148q33 85 63 162t53 142t37 117.5
t14 89.5q0 16 -4.5 43t-9.5 54t-9.5 49.5t-4.5 30.5q0 26 6.5 38t26.5 12q6 0 17 -12.5t21 -31.5q24 -46 42.5 -84t36.5 -74t37.5 -74.5t44.5 -85.5zM622 259q0 -10 -6 -18t-15.5 -16.5t-21.5 -18t-24 -22.5q-11 -12 -19 -23t-14.5 -19.5t-12.5 -13.5t-13 -5
q-17 0 -28.5 8.5t-11.5 26.5q0 23 3.5 41.5t11.5 41.5q5 14 13 30t18.5 29.5t23 22t27.5 8.5q16 0 36 -18q33 -30 33 -54z" />
    <glyph glyph-name="glyph340" horiz-adv-x="700" 
d="M693 1358q-69 -106 -133 -211.5t-109 -216.5q-59 -143 -96.5 -296t-50.5 -322q-56 29 -104.5 79.5t-85 109t-59.5 118.5t-27 108h-28v182h96v-110q0 -38 13.5 -85.5t33.5 -92.5t42 -82t39 -53q-6 22 -1.5 76t18 124t34 148t47.5 148q33 85 63 162t53 142t37 117.5
t14 89.5q0 16 -4.5 43t-9.5 54t-9.5 49.5t-4.5 30.5q0 26 6.5 38t26.5 12q6 0 17 -12.5t21 -31.5q24 -46 42.5 -84t36.5 -74t37.5 -74.5t44.5 -85.5zM622 259q0 -10 -6 -18t-15.5 -16.5t-21.5 -18t-24 -22.5q-11 -12 -19 -23t-14.5 -19.5t-12.5 -13.5t-13 -5
q-17 0 -28.5 8.5t-11.5 26.5q0 23 3.5 41.5t11.5 41.5q5 14 13 30t18.5 29.5t23 22t27.5 8.5q16 0 36 -18q33 -30 33 -54z" />
    <glyph glyph-name="glyph341" horiz-adv-x="700" 
d="M693 1358q-69 -106 -133 -211.5t-109 -216.5q-59 -143 -96.5 -296t-50.5 -322q-56 29 -104.5 79.5t-85 109t-59.5 118.5t-27 108h-28v182h96v-110q0 -38 13.5 -85.5t33.5 -92.5t42 -82t39 -53q-6 22 -1.5 76t18 124t34 148t47.5 148q33 85 63 162t53 142t37 117.5
t14 89.5q0 16 -4.5 43t-9.5 54t-9.5 49.5t-4.5 30.5q0 26 6.5 38t26.5 12q6 0 17 -12.5t21 -31.5q24 -46 42.5 -84t36.5 -74t37.5 -74.5t44.5 -85.5z" />
    <glyph glyph-name="uni1829" unicode="&#x1829;" horiz-adv-x="789" 
d="M757 784q0 -30 -3.5 -43.5t-16.5 -13.5q-11 0 -17 12.5t-10 28.5q-9 41 -18.5 85.5t-26.5 82t-47.5 62t-81.5 24.5q-24 0 -50 -8t-48 -30.5t-36 -61.5t-14 -100q0 -36 14.5 -68t35.5 -61t45 -55t43 -48l-27 -166h-13q-6 12 -16.5 27.5t-22.5 33t-24.5 35.5t-21.5 33
q-10 16 -20 36.5t-18.5 43t-13.5 46.5t-5 48h-153q-2 -24 -6 -67t-9 -89.5t-12 -88.5t-14 -66l-35 -11q-30 75 -48.5 157t-26.5 165v182h304q7 88 30 141.5t52 83t59.5 39t51.5 9.5q58 0 99.5 -34t68.5 -90t39.5 -127.5t12.5 -146.5z" />
    <glyph glyph-name="uni1829.init" horiz-adv-x="710" 
d="M770 909v-182h-60q-11 0 -23.5 12.5t-16.5 28.5q-9 41 -18.5 85.5t-26.5 82t-47.5 62t-81.5 24.5q-24 0 -50 -8t-48 -30.5t-36 -61.5t-14 -100q0 -36 14.5 -68t35.5 -61t45 -55t43 -48l-27 -166h-13q-6 12 -16.5 27.5t-22.5 33t-24.5 35.5t-21.5 33q-10 16 -20 36.5
t-18.5 43t-13.5 46.5t-5 48h-153q-2 -24 -6 -67t-9 -89.5t-12 -88.5t-14 -66l-35 -11q-30 75 -48.5 157t-26.5 165v182h304q7 88 30 141.5t52 83t59.5 39t51.5 9.5q46 0 82 -22t62 -59t43.5 -87t25.5 -105h60z" />
    <glyph glyph-name="uni1829.medi" horiz-adv-x="710" 
d="M770 909v-182h-60q-11 0 -23.5 12.5t-16.5 28.5q-9 41 -18.5 85.5t-26.5 82t-47.5 62t-81.5 24.5q-24 0 -50 -8t-48 -30.5t-36 -61.5t-14 -100q0 -36 14.5 -68t35.5 -61t45 -55t43 -48l-27 -166h-13q-6 12 -16.5 27.5t-22.5 33t-24.5 35.5t-21.5 33q-10 16 -20 36.5
t-18.5 43t-13.5 46.5t-5 48h-153q-2 -24 -6 -67t-9 -89.5t-12 -88.5t-14 -66l-35 -11q-30 75 -48.5 157t-26.5 165v182h304q7 88 30 141.5t52 83t59.5 39t51.5 9.5q46 0 82 -22t62 -59t43.5 -87t25.5 -105h60z" />
    <glyph glyph-name="uni1829.fina" horiz-adv-x="1120" 
d="M1080 544v-330q0 -69 -12.5 -119.5t-36.5 -88t-60 -64.5t-83 -48q-27 -12 -43 -21.5t-27 -20t-19 -25t-20 -36.5h-18l53 227q11 3 21.5 6t23 7.5t27 11.5t34.5 19q12 7 27 18t28.5 28t23 43t9.5 63v330q0 89 -34 136t-94 47h-519l208 -296v-24l-44 -208h-23l-209 528
h-142q-2 -24 -6 -67t-9 -89.5t-12 -88.5t-14 -66l-35 -11q-30 75 -48.5 157t-26.5 165v182h880q99 0 149.5 -90.5t50.5 -274.5z" />
    <glyph glyph-name="glyph346" horiz-adv-x="1167" 
d="M1237 909v-182h-213q-2 -24 -6 -67t-9 -89.5t-12 -88.5t-14 -66l-35 -11q-30 75 -48.5 157t-26.5 165h-97q-2 -24 -6.5 -62t-13 -80.5t-20.5 -87t-30 -81.5l-35 -11q-9 17 -15.5 36t-11 43.5t-6 56t-1.5 73.5q0 24 4.5 50.5t10 55.5t10 62t5.5 70q0 19 -2.5 46t-9.5 57
t-19 59.5t-30 53t-42.5 38t-56.5 14.5q-50 0 -86.5 -31t-60 -76.5t-34.5 -98t-11 -94.5q0 -79 35.5 -165.5t111.5 -169.5l-47 -160h-18q-70 91 -111 193.5t-41 208.5h-95q-2 -24 -6 -67t-9 -89.5t-12 -88.5t-14 -66l-35 -11q-30 75 -48.5 157t-26.5 165v182h246
q7 81 29.5 149.5t57 117.5t80 76.5t98.5 27.5q55 0 95.5 -28t67.5 -77.5t41 -117.5t17 -148h506z" />
    <glyph glyph-name="uni1829.medi_uni1828_uni180B.medi.rlig" horiz-adv-x="868" 
d="M938 909v-182h-162q-2 -24 -6.5 -62t-13 -80.5t-20.5 -87t-30 -81.5l-35 -11q-9 17 -15.5 36t-11 43.5t-6 56t-1.5 73.5q0 24 4.5 50.5t10 55.5t10 62t5.5 70q0 19 -2.5 46t-9.5 57t-19 59.5t-30 53t-42.5 38t-56.5 14.5q-50 0 -86.5 -31t-60 -76.5t-34.5 -98t-11 -94.5
q0 -79 35.5 -165.5t111.5 -169.5l-47 -160h-18q-70 91 -111 193.5t-41 208.5h-95q-2 -24 -6 -67t-9 -89.5t-12 -88.5t-14 -66l-35 -11q-30 75 -48.5 157t-26.5 165v182h246q7 81 29.5 149.5t57 117.5t80 76.5t98.5 27.5q55 0 95.5 -28t67.5 -77.5t41 -117.5t17 -148h207z
M760 201q0 -10 -6 -18t-15.5 -16.5t-21.5 -18t-24 -22.5q-11 -12 -19 -23t-14.5 -19.5t-12.5 -13.5t-13 -5q-17 0 -28.5 8.5t-11.5 26.5q0 23 3.5 41.5t11.5 41.5q5 14 13 30t18.5 29.5t23 22t27.5 8.5q16 0 36 -18q33 -30 33 -54z" />
    <glyph glyph-name="uni1829.medi_uni182C_uni180D.medi.rlig" horiz-adv-x="1368" 
d="M1364 1137q-264 -322 -256 -682q-38 20 -71 54.5t-60 73.5t-48 77.5t-34 66.5h-119q-2 -24 -6.5 -62t-13 -80.5t-20.5 -87t-30 -81.5l-35 -11q-9 17 -15.5 36t-11 43.5t-6 56t-1.5 73.5q0 24 4.5 50.5t10 55.5t10 62t5.5 70q0 19 -2.5 46t-9.5 57t-19 59.5t-30 53
t-42.5 38t-56.5 14.5q-50 0 -86.5 -31t-60 -76.5t-34.5 -98t-11 -94.5q0 -79 35.5 -165.5t111.5 -169.5l-47 -160h-18q-70 91 -111 193.5t-41 208.5h-95q-2 -24 -6 -67t-9 -89.5t-12 -88.5t-14 -66l-35 -11q-30 75 -48.5 157t-26.5 165v182h246q7 81 29.5 149.5t57 117.5
t80 76.5t98.5 27.5q55 0 95.5 -28t67.5 -77.5t41 -117.5t17 -148h207q0 -53 5 -90t15 -66.5t26 -53.5t38 -51q1 30 11.5 84.5t27.5 118.5t39.5 127.5t46.5 111.5q47 100 47 154q0 10 -3.5 27.5t-7.5 37t-7.5 37t-3.5 27.5q0 19 11 30.5t24 11.5q12 0 20.5 -11.5t15.5 -25.5z
" />
    <glyph glyph-name="uni1829.medi_uni182C_uni180C.medi.rlig" horiz-adv-x="1368" 
d="M1364 1137q-264 -322 -256 -682q-38 20 -71 54.5t-60 73.5t-48 77.5t-34 66.5h-119q-2 -24 -6.5 -62t-13 -80.5t-20.5 -87t-30 -81.5l-35 -11q-9 17 -15.5 36t-11 43.5t-6 56t-1.5 73.5q0 24 4.5 50.5t10 55.5t10 62t5.5 70q0 19 -2.5 46t-9.5 57t-19 59.5t-30 53
t-42.5 38t-56.5 14.5q-50 0 -86.5 -31t-60 -76.5t-34.5 -98t-11 -94.5q0 -79 35.5 -165.5t111.5 -169.5l-47 -160h-18q-70 91 -111 193.5t-41 208.5h-95q-2 -24 -6 -67t-9 -89.5t-12 -88.5t-14 -66l-35 -11q-30 75 -48.5 157t-26.5 165v182h246q7 81 29.5 149.5t57 117.5
t80 76.5t98.5 27.5q55 0 95.5 -28t67.5 -77.5t41 -117.5t17 -148h207q0 -53 5 -90t15 -66.5t26 -53.5t38 -51q1 30 11.5 84.5t27.5 118.5t39.5 127.5t46.5 111.5q47 100 47 154q0 10 -3.5 27.5t-7.5 37t-7.5 37t-3.5 27.5q0 19 11 30.5t24 11.5q12 0 20.5 -11.5t15.5 -25.5z
M1287 212q0 -10 -6 -18t-15.5 -16.5t-21.5 -18t-24 -22.5q-11 -12 -19 -23t-14.5 -19.5t-12.5 -13.5t-13 -5q-17 0 -28.5 8.5t-11.5 26.5q0 23 3.5 41.5t11.5 41.5q5 14 13 30t18.5 29.5t23 22t27.5 8.5q16 0 36 -18q33 -30 33 -54zM1063 228q0 -10 -6 -18t-15.5 -16.5
t-21.5 -18t-24 -22.5q-11 -12 -19 -23t-14.5 -19.5t-12.5 -13.5t-13 -5q-17 0 -28.5 8.5t-11.5 26.5q0 23 3.5 41.5t11.5 41.5q5 14 13 30t18.5 29.5t23 22t27.5 8.5q16 0 36 -18q33 -30 33 -54z" />
    <glyph glyph-name="uni1829.medi_uni182C.medi.rlig" horiz-adv-x="1167" 
d="M1237 909v-182h-213q-2 -24 -6 -67t-9 -89.5t-12 -88.5t-14 -66l-35 -11q-30 75 -48.5 157t-26.5 165h-97q-2 -24 -6.5 -62t-13 -80.5t-20.5 -87t-30 -81.5l-35 -11q-9 17 -15.5 36t-11 43.5t-6 56t-1.5 73.5q0 24 4.5 50.5t10 55.5t10 62t5.5 70q0 19 -2.5 46t-9.5 57
t-19 59.5t-30 53t-42.5 38t-56.5 14.5q-50 0 -86.5 -31t-60 -76.5t-34.5 -98t-11 -94.5q0 -79 35.5 -165.5t111.5 -169.5l-47 -160h-18q-70 91 -111 193.5t-41 208.5h-95q-2 -24 -6 -67t-9 -89.5t-12 -88.5t-14 -66l-35 -11q-30 75 -48.5 157t-26.5 165v182h246
q7 81 29.5 149.5t57 117.5t80 76.5t98.5 27.5q55 0 95.5 -28t67.5 -77.5t41 -117.5t17 -148h506z" />
    <glyph glyph-name="uni1829.medi_uni182C_uni180B.medi.rlig" horiz-adv-x="1167" 
d="M1237 909v-182h-213q-2 -24 -6 -67t-9 -89.5t-12 -88.5t-14 -66l-35 -11q-30 75 -48.5 157t-26.5 165h-97q-2 -24 -6.5 -62t-13 -80.5t-20.5 -87t-30 -81.5l-35 -11q-9 17 -15.5 36t-11 43.5t-6 56t-1.5 73.5q0 24 4.5 50.5t10 55.5t10 62t5.5 70q0 19 -2.5 46t-9.5 57
t-19 59.5t-30 53t-42.5 38t-56.5 14.5q-50 0 -86.5 -31t-60 -76.5t-34.5 -98t-11 -94.5q0 -79 35.5 -165.5t111.5 -169.5l-47 -160h-18q-70 91 -111 193.5t-41 208.5h-95q-2 -24 -6 -67t-9 -89.5t-12 -88.5t-14 -66l-35 -11q-30 75 -48.5 157t-26.5 165v182h246
q7 81 29.5 149.5t57 117.5t80 76.5t98.5 27.5q55 0 95.5 -28t67.5 -77.5t41 -117.5t17 -148h506zM831 228q0 -10 -6 -18t-15.5 -16.5t-21.5 -18t-24 -22.5q-11 -12 -19 -23t-14.5 -19.5t-12.5 -13.5t-13 -5q-17 0 -28.5 8.5t-11.5 26.5q0 23 3.5 41.5t11.5 41.5q5 14 13 30
t18.5 29.5t23 22t27.5 8.5q16 0 36 -18q33 -30 33 -54zM1096 183q0 -10 -6 -18t-15.5 -16.5t-21.5 -18t-24 -22.5q-11 -12 -19 -23t-14.5 -19.5t-12.5 -13.5t-13 -5q-17 0 -28.5 8.5t-11.5 26.5q0 23 3.5 41.5t11.5 41.5q5 14 13 30t18.5 29.5t23 22t27.5 8.5q16 0 36 -18
q33 -30 33 -54z" />
    <glyph glyph-name="uni1829.medi_uni182D.fina.rlig" horiz-adv-x="1368" 
d="M1364 1137q-264 -322 -256 -682q-38 20 -71 54.5t-60 73.5t-48 77.5t-34 66.5h-119q-2 -24 -6.5 -62t-13 -80.5t-20.5 -87t-30 -81.5l-35 -11q-9 17 -15.5 36t-11 43.5t-6 56t-1.5 73.5q0 24 4.5 50.5t10 55.5t10 62t5.5 70q0 19 -2.5 46t-9.5 57t-19 59.5t-30 53
t-42.5 38t-56.5 14.5q-50 0 -86.5 -31t-60 -76.5t-34.5 -98t-11 -94.5q0 -79 35.5 -165.5t111.5 -169.5l-47 -160h-18q-70 91 -111 193.5t-41 208.5h-95q-2 -24 -6 -67t-9 -89.5t-12 -88.5t-14 -66l-35 -11q-30 75 -48.5 157t-26.5 165v182h246q7 81 29.5 149.5t57 117.5
t80 76.5t98.5 27.5q55 0 95.5 -28t67.5 -77.5t41 -117.5t17 -148h207q0 -53 5 -90t15 -66.5t26 -53.5t38 -51q1 30 11.5 84.5t27.5 118.5t39.5 127.5t46.5 111.5q47 100 47 154q0 10 -3.5 27.5t-7.5 37t-7.5 37t-3.5 27.5q0 19 11 30.5t24 11.5q12 0 20.5 -11.5t15.5 -25.5z
" />
    <glyph glyph-name="uni1829.medi_uni182D_uni180C.medi.rlig" horiz-adv-x="1368" 
d="M1364 1137q-264 -322 -256 -682q-38 20 -71 54.5t-60 73.5t-48 77.5t-34 66.5h-119q-2 -24 -6.5 -62t-13 -80.5t-20.5 -87t-30 -81.5l-35 -11q-9 17 -15.5 36t-11 43.5t-6 56t-1.5 73.5q0 24 4.5 50.5t10 55.5t10 62t5.5 70q0 19 -2.5 46t-9.5 57t-19 59.5t-30 53
t-42.5 38t-56.5 14.5q-50 0 -86.5 -31t-60 -76.5t-34.5 -98t-11 -94.5q0 -79 35.5 -165.5t111.5 -169.5l-47 -160h-18q-70 91 -111 193.5t-41 208.5h-95q-2 -24 -6 -67t-9 -89.5t-12 -88.5t-14 -66l-35 -11q-30 75 -48.5 157t-26.5 165v182h246q7 81 29.5 149.5t57 117.5
t80 76.5t98.5 27.5q55 0 95.5 -28t67.5 -77.5t41 -117.5t17 -148h207q0 -53 5 -90t15 -66.5t26 -53.5t38 -51q1 30 11.5 84.5t27.5 118.5t39.5 127.5t46.5 111.5q47 100 47 154q0 10 -3.5 27.5t-7.5 37t-7.5 37t-3.5 27.5q0 19 11 30.5t24 11.5q12 0 20.5 -11.5t15.5 -25.5z
M1046 263q0 -10 -6 -18t-15.5 -16.5t-21.5 -18t-24 -22.5q-11 -12 -19 -23t-14.5 -19.5t-12.5 -13.5t-13 -5q-17 0 -28.5 8.5t-11.5 26.5q0 23 3.5 41.5t11.5 41.5q5 14 13 30t18.5 29.5t23 22t27.5 8.5q16 0 36 -18q33 -30 33 -54zM1298 184q0 -10 -6 -18t-15.5 -16.5
t-21.5 -18t-24 -22.5q-11 -12 -19 -23t-14.5 -19.5t-12.5 -13.5t-13 -5q-17 0 -28.5 8.5t-11.5 26.5q0 23 3.5 41.5t11.5 41.5q5 14 13 30t18.5 29.5t23 22t27.5 8.5q16 0 36 -18q33 -30 33 -54z" />
    <glyph glyph-name="uni1829.medi_uni182D.medi.rlig" horiz-adv-x="1167" 
d="M1237 909v-182h-213q-2 -24 -6 -67t-9 -89.5t-12 -88.5t-14 -66l-35 -11q-30 75 -48.5 157t-26.5 165h-97q-2 -24 -6.5 -62t-13 -80.5t-20.5 -87t-30 -81.5l-35 -11q-9 17 -15.5 36t-11 43.5t-6 56t-1.5 73.5q0 24 4.5 50.5t10 55.5t10 62t5.5 70q0 19 -2.5 46t-9.5 57
t-19 59.5t-30 53t-42.5 38t-56.5 14.5q-50 0 -86.5 -31t-60 -76.5t-34.5 -98t-11 -94.5q0 -79 35.5 -165.5t111.5 -169.5l-47 -160h-18q-70 91 -111 193.5t-41 208.5h-95q-2 -24 -6 -67t-9 -89.5t-12 -88.5t-14 -66l-35 -11q-30 75 -48.5 157t-26.5 165v182h246
q7 81 29.5 149.5t57 117.5t80 76.5t98.5 27.5q55 0 95.5 -28t67.5 -77.5t41 -117.5t17 -148h506z" />
    <glyph glyph-name="uni1829.medi_uni182D_uni180B.medi.rlig" horiz-adv-x="1167" 
d="M1237 909v-182h-213q-2 -24 -6 -67t-9 -89.5t-12 -88.5t-14 -66l-35 -11q-30 75 -48.5 157t-26.5 165h-97q-2 -24 -6.5 -62t-13 -80.5t-20.5 -87t-30 -81.5l-35 -11q-9 17 -15.5 36t-11 43.5t-6 56t-1.5 73.5q0 24 4.5 50.5t10 55.5t10 62t5.5 70q0 19 -2.5 46t-9.5 57
t-19 59.5t-30 53t-42.5 38t-56.5 14.5q-50 0 -86.5 -31t-60 -76.5t-34.5 -98t-11 -94.5q0 -79 35.5 -165.5t111.5 -169.5l-47 -160h-18q-70 91 -111 193.5t-41 208.5h-95q-2 -24 -6 -67t-9 -89.5t-12 -88.5t-14 -66l-35 -11q-30 75 -48.5 157t-26.5 165v182h246
q7 81 29.5 149.5t57 117.5t80 76.5t98.5 27.5q55 0 95.5 -28t67.5 -77.5t41 -117.5t17 -148h506zM831 228q0 -10 -6 -18t-15.5 -16.5t-21.5 -18t-24 -22.5q-11 -12 -19 -23t-14.5 -19.5t-12.5 -13.5t-13 -5q-17 0 -28.5 8.5t-11.5 26.5q0 23 3.5 41.5t11.5 41.5q5 14 13 30
t18.5 29.5t23 22t27.5 8.5q16 0 36 -18q33 -30 33 -54zM1096 183q0 -10 -6 -18t-15.5 -16.5t-21.5 -18t-24 -22.5q-11 -12 -19 -23t-14.5 -19.5t-12.5 -13.5t-13 -5q-17 0 -28.5 8.5t-11.5 26.5q0 23 3.5 41.5t11.5 41.5q5 14 13 30t18.5 29.5t23 22t27.5 8.5q16 0 36 -18
q33 -30 33 -54z" />
    <glyph glyph-name="uni1829.medi_uni182F.medi.rlig" horiz-adv-x="869" 
d="M939 909v-182h-162q-2 -24 -6.5 -62t-13 -80.5t-20.5 -87t-30 -81.5l-35 -11q-9 17 -15.5 36t-11 43.5t-6 56t-1.5 73.5q0 24 4.5 50.5t10 55.5t10 62t5.5 70q1 28 -6 67.5t-25 75t-49.5 60.5t-79.5 25q-50 0 -86.5 -24.5t-60 -63t-34.5 -84.5t-11 -88q0 -79 35.5 -165.5
t111.5 -169.5l-47 -160h-18q-70 91 -111 193.5t-41 208.5h-95q-2 -24 -6 -67t-9 -89.5t-12 -88.5t-14 -66l-35 -11q-30 75 -48.5 157t-26.5 165v182h246q7 81 29.5 143t57 104t80 63t98.5 21q52 0 90 -19l17 106l-39 -1q-82 0 -120.5 45t-38.5 118q0 27 6 54t26 53
q5 -36 14.5 -60.5t25.5 -39.5t40.5 -21t59.5 -6q32 0 58 -7t36 -17l-43 -253q43 -40 64 -111t25 -172h207z" />
    <glyph glyph-name="uni1829.medi_uni1864.medi.rlig" horiz-adv-x="1167" 
d="M1237 909v-182h-213q-2 -24 -6 -67t-9 -89.5t-12 -88.5t-14 -66l-35 -11q-30 75 -48.5 157t-26.5 165h-97q-2 -24 -6.5 -62t-13 -80.5t-20.5 -87t-30 -81.5l-35 -11q-9 17 -15.5 36t-11 43.5t-6 56t-1.5 73.5q0 24 4.5 50.5t10 55.5t10 62t5.5 70q0 19 -2.5 46t-9.5 57
t-19 59.5t-30 53t-42.5 38t-56.5 14.5q-50 0 -86.5 -31t-60 -76.5t-34.5 -98t-11 -94.5q0 -79 35.5 -165.5t111.5 -169.5l-47 -160h-18q-70 91 -111 193.5t-41 208.5h-95q-2 -24 -6 -67t-9 -89.5t-12 -88.5t-14 -66l-35 -11q-30 75 -48.5 157t-26.5 165v182h246
q7 81 29.5 149.5t57 117.5t80 76.5t98.5 27.5q55 0 95.5 -28t67.5 -77.5t41 -117.5t17 -148h506zM1111 1174q0 -10 -6 -18t-15.5 -16.5t-21.5 -18t-24 -22.5q-11 -12 -19 -23t-14.5 -19.5t-12.5 -13.5t-13 -5q-17 0 -28.5 8.5t-11.5 26.5q0 23 3.5 41.5t11.5 41.5
q5 14 13 30t18.5 29.5t23 22t27.5 8.5q16 0 36 -18q33 -30 33 -54z" />
    <glyph glyph-name="uni1829.medi_uni1865.medi.rlig" horiz-adv-x="1167" 
d="M1237 909v-182h-213q-2 -24 -6 -67t-9 -89.5t-12 -88.5t-14 -66l-35 -11q-30 75 -48.5 157t-26.5 165h-97q-2 -24 -6.5 -62t-13 -80.5t-20.5 -87t-30 -81.5l-35 -11q-9 17 -15.5 36t-11 43.5t-6 56t-1.5 73.5q0 24 4.5 50.5t10 55.5t10 62t5.5 70q0 19 -2.5 46t-9.5 57
t-19 59.5t-30 53t-42.5 38t-56.5 14.5q-50 0 -86.5 -31t-60 -76.5t-34.5 -98t-11 -94.5q0 -79 35.5 -165.5t111.5 -169.5l-47 -160h-18q-70 91 -111 193.5t-41 208.5h-95q-2 -24 -6 -67t-9 -89.5t-12 -88.5t-14 -66l-35 -11q-30 75 -48.5 157t-26.5 165v182h246
q7 81 29.5 149.5t57 117.5t80 76.5t98.5 27.5q55 0 95.5 -28t67.5 -77.5t41 -117.5t17 -148h506zM1110 1148q0 -69 -38.5 -107.5t-107.5 -38.5q-67 0 -106 38.5t-39 107.5q0 59 38 96t107 37q71 0 108.5 -37t37.5 -96zM1059 1146q0 37 -25 62t-70 25q-44 0 -69 -25t-25 -62
q0 -44 25.5 -69.5t68.5 -25.5q45 0 70 25.5t25 69.5z" />
    <glyph glyph-name="uni1829.medi_uni1874.fina.rlig" horiz-adv-x="1797" 
d="M1364 1137q-264 -322 -256 -682q-38 20 -71 54.5t-60 73.5t-48 77.5t-34 66.5h-119q-2 -24 -6.5 -62t-13 -80.5t-20.5 -87t-30 -81.5l-35 -11q-9 17 -15.5 36t-11 43.5t-6 56t-1.5 73.5q0 24 4.5 50.5t10 55.5t10 62t5.5 70q0 19 -2.5 46t-9.5 57t-19 59.5t-30 53
t-42.5 38t-56.5 14.5q-50 0 -86.5 -31t-60 -76.5t-34.5 -98t-11 -94.5q0 -79 35.5 -165.5t111.5 -169.5l-47 -160h-18q-70 91 -111 193.5t-41 208.5h-95q-2 -24 -6 -67t-9 -89.5t-12 -88.5t-14 -66l-35 -11q-30 75 -48.5 157t-26.5 165v182h246q7 81 29.5 149.5t57 117.5
t80 76.5t98.5 27.5q55 0 95.5 -28t67.5 -77.5t41 -117.5t17 -148h207q0 -53 5 -90t15 -66.5t26 -53.5t38 -51q1 30 11.5 84.5t27.5 118.5t39.5 127.5t46.5 111.5q47 100 47 154q0 10 -3.5 27.5t-7.5 37t-7.5 37t-3.5 27.5q0 19 11 30.5t24 11.5q12 0 20.5 -11.5t15.5 -25.5z
M1481 603q0 -10 -6 -18t-15.5 -16.5t-21.5 -18t-24 -22.5q-11 -12 -19 -23t-14.5 -19.5t-12.5 -13.5t-13 -5q-17 0 -28.5 8.5t-11.5 26.5q0 23 3.5 41.5t11.5 41.5q5 14 13 30t18.5 29.5t23 22t27.5 8.5q16 0 36 -18q33 -30 33 -54zM1738 474q0 -10 -6 -18t-15.5 -16.5
t-21.5 -18t-24 -22.5q-11 -12 -19 -23t-14.5 -19.5t-12.5 -13.5t-13 -5q-17 0 -28.5 8.5t-11.5 26.5q0 23 3.5 41.5t11.5 41.5q5 14 13 30t18.5 29.5t23 22t27.5 8.5q16 0 36 -18q33 -30 33 -54z" />
    <glyph glyph-name="uni1829.medi_uni1874.medi.rlig" horiz-adv-x="1167" 
d="M1237 909v-182h-213q-2 -24 -6 -67t-9 -89.5t-12 -88.5t-14 -66l-35 -11q-30 75 -48.5 157t-26.5 165h-97q-2 -24 -6.5 -62t-13 -80.5t-20.5 -87t-30 -81.5l-35 -11q-9 17 -15.5 36t-11 43.5t-6 56t-1.5 73.5q0 24 4.5 50.5t10 55.5t10 62t5.5 70q0 19 -2.5 46t-9.5 57
t-19 59.5t-30 53t-42.5 38t-56.5 14.5q-50 0 -86.5 -31t-60 -76.5t-34.5 -98t-11 -94.5q0 -79 35.5 -165.5t111.5 -169.5l-47 -160h-18q-70 91 -111 193.5t-41 208.5h-95q-2 -24 -6 -67t-9 -89.5t-12 -88.5t-14 -66l-35 -11q-30 75 -48.5 157t-26.5 165v182h246
q7 81 29.5 149.5t57 117.5t80 76.5t98.5 27.5q55 0 95.5 -28t67.5 -77.5t41 -117.5t17 -148h506z" />
    <glyph glyph-name="uni1829.medi_uni1874_uni180B.medi.rlig" horiz-adv-x="1167" 
d="M1237 909v-182h-213q-2 -24 -6 -67t-9 -89.5t-12 -88.5t-14 -66l-35 -11q-30 75 -48.5 157t-26.5 165h-97q-2 -24 -6.5 -62t-13 -80.5t-20.5 -87t-30 -81.5l-35 -11q-9 17 -15.5 36t-11 43.5t-6 56t-1.5 73.5q0 24 4.5 50.5t10 55.5t10 62t5.5 70q0 19 -2.5 46t-9.5 57
t-19 59.5t-30 53t-42.5 38t-56.5 14.5q-50 0 -86.5 -31t-60 -76.5t-34.5 -98t-11 -94.5q0 -79 35.5 -165.5t111.5 -169.5l-47 -160h-18q-70 91 -111 193.5t-41 208.5h-95q-2 -24 -6 -67t-9 -89.5t-12 -88.5t-14 -66l-35 -11q-30 75 -48.5 157t-26.5 165v182h246
q7 81 29.5 149.5t57 117.5t80 76.5t98.5 27.5q55 0 95.5 -28t67.5 -77.5t41 -117.5t17 -148h506zM831 228q0 -10 -6 -18t-15.5 -16.5t-21.5 -18t-24 -22.5q-11 -12 -19 -23t-14.5 -19.5t-12.5 -13.5t-13 -5q-17 0 -28.5 8.5t-11.5 26.5q0 23 3.5 41.5t11.5 41.5q5 14 13 30
t18.5 29.5t23 22t27.5 8.5q16 0 36 -18q33 -30 33 -54zM1096 183q0 -10 -6 -18t-15.5 -16.5t-21.5 -18t-24 -22.5q-11 -12 -19 -23t-14.5 -19.5t-12.5 -13.5t-13 -5q-17 0 -28.5 8.5t-11.5 26.5q0 23 3.5 41.5t11.5 41.5q5 14 13 30t18.5 29.5t23 22t27.5 8.5q16 0 36 -18
q33 -30 33 -54z" />
    <glyph glyph-name="uni182A" unicode="&#x182a;" horiz-adv-x="612" 
d="M365 727h-261q0 -54 2 -100t14 -79.5t38.5 -52.5t75.5 -19t75.5 18.5t39 51.5t14.5 79t2 102zM572 881q0 -36 -8 -55t-14 -19q-14 0 -20.5 15.5t-14.5 61.5q-11 71 -31 123t-46 86t-57 50.5t-65 16.5q-163 0 -208 -251h236q85 0 85 -87v-186q0 -57 -9.5 -111t-32 -96
t-60 -67.5t-93.5 -25.5q-43 0 -73.5 19t-52 51t-35 73t-21 84t-10 86t-2.5 78v182q14 200 82.5 305.5t193.5 105.5q62 0 110 -33t80.5 -91.5t49 -139t16.5 -175.5z" />
    <glyph glyph-name="uni182A.init" horiz-adv-x="575" 
d="M645 909v-182h-70q-6 0 -12.5 8t-14.5 26t-16 48t-17 75q-28 143 -79 209.5t-120 66.5q-163 0 -208 -251h236q85 0 85 -87v-186q0 -57 -9.5 -111t-32 -96t-60 -67.5t-93.5 -25.5q-43 0 -73.5 19t-52 51t-35 73t-21 84t-10 86t-2.5 78v182q14 200 82.5 305.5t193.5 105.5
q60 0 107 -30t79.5 -84.5t50 -130t19.5 -166.5h73zM365 727h-261q0 -54 2 -100t14 -79.5t38.5 -52.5t75.5 -19t75.5 18.5t39 51.5t14.5 79t2 102z" />
    <glyph glyph-name="uni182A.medi" horiz-adv-x="535" 
d="M610 909v-182h-70q-6 0 -12.5 8t-14.5 26t-16 48t-17 75q-28 143 -79 209.5t-120 66.5q-163 0 -208 -251h236q85 0 85 -87v-186q0 -57 -9.5 -111t-32 -96t-60 -67.5t-93.5 -25.5q-43 0 -73.5 19t-52 51t-35 73t-21 84t-10 86t-2.5 78v182q14 200 82.5 305.5t193.5 105.5
q60 0 107 -30t79.5 -84.5t50 -130t19.5 -166.5h73zM330 727h-261q0 -54 2 -100t14 -79.5t38.5 -52.5t75.5 -19t75.5 18.5t39 51.5t14.5 79t2 102z" />
    <glyph glyph-name="uni182A.fina" horiz-adv-x="686" 
d="M635 303q0 -69 -12.5 -119.5t-36.5 -88t-60 -64.5t-83 -48q-27 -12 -43 -21.5t-27 -20t-19 -25t-20 -36.5h-18l53 227q11 3 21.5 6t23 7.5t27 11.5t34.5 19q12 7 27 18t28.5 28t23 43t9.5 63v543q0 25 -4 60.5t-14 73.5t-27.5 75.5t-44.5 67.5t-64.5 48.5t-87.5 18.5
q-55 0 -97 -20.5t-73 -57.5t-51.5 -89t-31.5 -114h236q85 0 85 -87v-186q0 -57 -9.5 -111t-32 -96t-60 -67.5t-93.5 -25.5q-43 0 -73.5 19t-52 51t-35 73t-21 84t-10 86t-2.5 78v182q7 99 32 180.5t66 139.5t97.5 89.5t125.5 31.5q61 0 108 -22t82 -59.5t58.5 -88t38 -106.5
t21 -114.5t6.5 -113.5v-543zM325 727h-261q0 -54 2 -100t14 -79.5t38.5 -52.5t75.5 -19t75.5 18.5t39 51.5t14.5 79t2 102z" />
    <glyph glyph-name="uni182A_uni180B.fina" horiz-adv-x="895" 
d="M855 544v-330q0 -69 -12.5 -119.5t-36.5 -88t-60 -64.5t-83 -48q-27 -12 -43 -21.5t-27 -20t-19 -25t-20 -36.5h-18l53 227q11 3 21.5 6t23 7.5t27 11.5t34.5 19q12 7 27 18t28.5 28t23 43t9.5 63v330q0 89 -34 136t-94 47h-297v-137q0 -121 -42 -187.5t-133 -66.5
t-137 66.5t-46 187.5v319h655q99 0 149.5 -90.5t50.5 -274.5zM304 727h-250v-137q0 -57 35 -85.5t96 -28.5q55 0 87 28.5t32 85.5v137z" />
    <glyph glyph-name="uni182A.init_uni1820.fina.rlig" horiz-adv-x="1185" 
d="M1145 544v-330q0 -69 -12.5 -119.5t-36.5 -88t-60 -64.5t-83 -48q-27 -12 -43 -21.5t-27 -20t-19 -25t-20 -36.5h-18l53 227q11 3 21.5 6t23 7.5t27 11.5t34.5 19q12 7 27 18t28.5 28t23 43t9.5 63v330q0 89 -34 136t-94 47h-253q-2 -24 -6 -67t-9 -89.5t-12 -88.5
t-14 -66l-35 -11q-21 48 -35 99.5t-24 104.5t-17 106.5t-14 105.5q-9 72 -25.5 134t-42 107.5t-60.5 71.5t-82 26q-163 0 -208 -251h236q85 0 85 -87v-186q0 -57 -9.5 -111t-32 -96t-60 -67.5t-93.5 -25.5q-43 0 -73.5 19t-52 51t-35 73t-21 84t-10 86t-2.5 78v182
q14 200 82.5 305.5t193.5 105.5q60 0 107.5 -30t81 -84.5t54 -130t28.5 -166.5h358q99 0 149.5 -90.5t50.5 -274.5zM365 727h-261q0 -54 2 -100t14 -79.5t38.5 -52.5t75.5 -19t75.5 18.5t39 51.5t14.5 79t2 102z" />
    <glyph glyph-name="uni182A.medi_uni1820.fina.rlig" horiz-adv-x="1145" 
d="M1109 544v-330q0 -69 -12.5 -119.5t-36.5 -88t-60 -64.5t-83 -48q-27 -12 -43 -21.5t-27 -20t-19 -25t-20 -36.5h-18l53 227q11 3 21.5 6t23 7.5t27 11.5t34.5 19q12 7 27 18t28.5 28t23 43t9.5 63v330q0 89 -34 136t-94 47h-253q-2 -24 -6 -67t-9 -89.5t-12 -88.5
t-14 -66l-35 -11q-21 48 -35 99.5t-24 104.5t-17 106.5t-14 105.5q-9 72 -25.5 134t-42 107.5t-60.5 71.5t-82 26q-163 0 -208 -251h236q85 0 85 -87v-186q0 -57 -9.5 -111t-32 -96t-60 -67.5t-93.5 -25.5q-43 0 -73.5 19t-52 51t-35 73t-21 84t-10 86t-2.5 78v182
q14 200 82.5 305.5t193.5 105.5q60 0 107.5 -30t81 -84.5t54 -130t28.5 -166.5h358q99 0 149.5 -90.5t50.5 -274.5zM329 727h-261q0 -54 2 -100t14 -79.5t38.5 -52.5t75.5 -19t75.5 18.5t39 51.5t14.5 79t2 102z" />
    <glyph glyph-name="uni182A.init_uni1820.medi.rlig" horiz-adv-x="805" 
d="M875 909v-182h-183q-2 -24 -6 -67t-9 -89.5t-12 -88.5t-14 -66l-35 -11q-21 48 -35 99.5t-24 104.5t-17 106.5t-14 105.5q-9 72 -25.5 134t-42 107.5t-60.5 71.5t-82 26q-163 0 -208 -251h236q85 0 85 -87v-186q0 -57 -9.5 -111t-32 -96t-60 -67.5t-93.5 -25.5
q-43 0 -73.5 19t-52 51t-35 73t-21 84t-10 86t-2.5 78v182q14 200 82.5 305.5t193.5 105.5q60 0 107.5 -30t81 -84.5t54 -130t28.5 -166.5h288zM365 727h-261q0 -54 2 -100t14 -79.5t38.5 -52.5t75.5 -19t75.5 18.5t39 51.5t14.5 79t2 102z" />
    <glyph glyph-name="uni182A.medi_uni1820.medi.rlig" horiz-adv-x="765" 
d="M839 909v-182h-183q-2 -24 -6 -67t-9 -89.5t-12 -88.5t-14 -66l-35 -11q-21 48 -35 99.5t-24 104.5t-17 106.5t-14 105.5q-9 72 -25.5 134t-42 107.5t-60.5 71.5t-82 26q-163 0 -208 -251h236q85 0 85 -87v-186q0 -57 -9.5 -111t-32 -96t-60 -67.5t-93.5 -25.5
q-43 0 -73.5 19t-52 51t-35 73t-21 84t-10 86t-2.5 78v182q14 200 82.5 305.5t193.5 105.5q60 0 107.5 -30t81 -84.5t54 -130t28.5 -166.5h288zM329 727h-261q0 -54 2 -100t14 -79.5t38.5 -52.5t75.5 -19t75.5 18.5t39 51.5t14.5 79t2 102z" />
    <glyph glyph-name="uni182A.init_uni1821.fina.rlig" horiz-adv-x="1185" 
d="M1145 544v-330q0 -69 -12.5 -119.5t-36.5 -88t-60 -64.5t-83 -48q-27 -12 -43 -21.5t-27 -20t-19 -25t-20 -36.5h-18l53 227q11 3 21.5 6t23 7.5t27 11.5t34.5 19q12 7 27 18t28.5 28t23 43t9.5 63v330q0 89 -34 136t-94 47h-253q-2 -24 -6 -67t-9 -89.5t-12 -88.5
t-14 -66l-35 -11q-21 48 -35 99.5t-24 104.5t-17 106.5t-14 105.5q-9 72 -25.5 134t-42 107.5t-60.5 71.5t-82 26q-163 0 -208 -251h236q85 0 85 -87v-186q0 -57 -9.5 -111t-32 -96t-60 -67.5t-93.5 -25.5q-43 0 -73.5 19t-52 51t-35 73t-21 84t-10 86t-2.5 78v182
q14 200 82.5 305.5t193.5 105.5q60 0 107.5 -30t81 -84.5t54 -130t28.5 -166.5h358q99 0 149.5 -90.5t50.5 -274.5zM365 727h-261q0 -54 2 -100t14 -79.5t38.5 -52.5t75.5 -19t75.5 18.5t39 51.5t14.5 79t2 102z" />
    <glyph glyph-name="uni182A.medi_uni1821.fina.rlig" horiz-adv-x="1145" 
d="M1109 544v-330q0 -69 -12.5 -119.5t-36.5 -88t-60 -64.5t-83 -48q-27 -12 -43 -21.5t-27 -20t-19 -25t-20 -36.5h-18l53 227q11 3 21.5 6t23 7.5t27 11.5t34.5 19q12 7 27 18t28.5 28t23 43t9.5 63v330q0 89 -34 136t-94 47h-253q-2 -24 -6 -67t-9 -89.5t-12 -88.5
t-14 -66l-35 -11q-21 48 -35 99.5t-24 104.5t-17 106.5t-14 105.5q-9 72 -25.5 134t-42 107.5t-60.5 71.5t-82 26q-163 0 -208 -251h236q85 0 85 -87v-186q0 -57 -9.5 -111t-32 -96t-60 -67.5t-93.5 -25.5q-43 0 -73.5 19t-52 51t-35 73t-21 84t-10 86t-2.5 78v182
q14 200 82.5 305.5t193.5 105.5q60 0 107.5 -30t81 -84.5t54 -130t28.5 -166.5h358q99 0 149.5 -90.5t50.5 -274.5zM329 727h-261q0 -54 2 -100t14 -79.5t38.5 -52.5t75.5 -19t75.5 18.5t39 51.5t14.5 79t2 102z" />
    <glyph glyph-name="uni182A.init_uni1821.medi.rlig" horiz-adv-x="805" 
d="M875 909v-182h-183q-2 -24 -6 -67t-9 -89.5t-12 -88.5t-14 -66l-35 -11q-21 48 -35 99.5t-24 104.5t-17 106.5t-14 105.5q-9 72 -25.5 134t-42 107.5t-60.5 71.5t-82 26q-163 0 -208 -251h236q85 0 85 -87v-186q0 -57 -9.5 -111t-32 -96t-60 -67.5t-93.5 -25.5
q-43 0 -73.5 19t-52 51t-35 73t-21 84t-10 86t-2.5 78v182q14 200 82.5 305.5t193.5 105.5q60 0 107.5 -30t81 -84.5t54 -130t28.5 -166.5h288zM365 727h-261q0 -54 2 -100t14 -79.5t38.5 -52.5t75.5 -19t75.5 18.5t39 51.5t14.5 79t2 102z" />
    <glyph glyph-name="uni182A.medi_uni1821.medi.rlig" horiz-adv-x="765" 
d="M839 909v-182h-183q-2 -24 -6 -67t-9 -89.5t-12 -88.5t-14 -66l-35 -11q-21 48 -35 99.5t-24 104.5t-17 106.5t-14 105.5q-9 72 -25.5 134t-42 107.5t-60.5 71.5t-82 26q-163 0 -208 -251h236q85 0 85 -87v-186q0 -57 -9.5 -111t-32 -96t-60 -67.5t-93.5 -25.5
q-43 0 -73.5 19t-52 51t-35 73t-21 84t-10 86t-2.5 78v182q14 200 82.5 305.5t193.5 105.5q60 0 107.5 -30t81 -84.5t54 -130t28.5 -166.5h288zM329 727h-261q0 -54 2 -100t14 -79.5t38.5 -52.5t75.5 -19t75.5 18.5t39 51.5t14.5 79t2 102z" />
    <glyph glyph-name="uni182A.init_uni1822.fina.rlig" horiz-adv-x="1270" 
d="M1230 697v-94q0 -57 -19.5 -92t-48.5 -35v19q0 108 -39.5 168.5t-118.5 63.5h-370q15 -57 35.5 -101t41.5 -77.5t41 -58t34 -42.5l-31 -159h-23q-72 86 -122 233.5t-80 339.5q-11 72 -33 127.5t-51 93.5t-62.5 57.5t-67.5 19.5q-163 0 -208 -251h236q85 0 85 -87v-186
q0 -57 -9.5 -111t-32 -96t-60 -67.5t-93.5 -25.5q-43 0 -73.5 19t-52 51t-35 73t-21 84t-10 86t-2.5 78v182q14 200 82.5 305.5t193.5 105.5q60 0 107 -38t80 -97.5t53 -132.5t27 -143h490q75 -7 116 -62t41 -150zM365 727h-261q0 -54 2 -100t14 -79.5t38.5 -52.5t75.5 -19
t75.5 18.5t39 51.5t14.5 79t2 102z" />
    <glyph glyph-name="uni182A.medi_uni1822.fina.rlig" horiz-adv-x="1230" 
d="M1194 697v-94q0 -57 -19.5 -92t-48.5 -35v19q0 108 -39.5 168.5t-118.5 63.5h-370q15 -57 35.5 -101t41.5 -77.5t41 -58t34 -42.5l-31 -159h-23q-72 86 -122 233.5t-80 339.5q-11 72 -33 127.5t-51 93.5t-62.5 57.5t-67.5 19.5q-163 0 -208 -251h236q85 0 85 -87v-186
q0 -57 -9.5 -111t-32 -96t-60 -67.5t-93.5 -25.5q-43 0 -73.5 19t-52 51t-35 73t-21 84t-10 86t-2.5 78v182q14 200 82.5 305.5t193.5 105.5q60 0 107 -38t80 -97.5t53 -132.5t27 -143h490q75 -7 116 -62t41 -150zM329 727h-261q0 -54 2 -100t14 -79.5t38.5 -52.5t75.5 -19
t75.5 18.5t39 51.5t14.5 79t2 102z" />
    <glyph glyph-name="uni182A.init_uni1822.medi.rlig" horiz-adv-x="925" 
d="M995 909v-182h-361q15 -57 35.5 -101t41.5 -77.5t41 -58t34 -42.5l-31 -159h-23q-72 86 -122 233.5t-80 339.5q-11 72 -33 127.5t-51 93.5t-62.5 57.5t-67.5 19.5q-163 0 -208 -251h236q85 0 85 -87v-186q0 -57 -9.5 -111t-32 -96t-60 -67.5t-93.5 -25.5q-43 0 -73.5 19
t-52 51t-35 73t-21 84t-10 86t-2.5 78v182q14 200 82.5 305.5t193.5 105.5q60 0 107 -38t80 -97.5t53 -132.5t27 -143h412zM365 727h-261q0 -54 2 -100t14 -79.5t38.5 -52.5t75.5 -19t75.5 18.5t39 51.5t14.5 79t2 102z" />
    <glyph glyph-name="uni182A.medi_uni1822.medi.rlig" horiz-adv-x="885" 
d="M959 909v-182h-361q15 -57 35.5 -101t41.5 -77.5t41 -58t34 -42.5l-31 -159h-23q-72 86 -122 233.5t-80 339.5q-11 72 -33 127.5t-51 93.5t-62.5 57.5t-67.5 19.5q-163 0 -208 -251h236q85 0 85 -87v-186q0 -57 -9.5 -111t-32 -96t-60 -67.5t-93.5 -25.5q-43 0 -73.5 19
t-52 51t-35 73t-21 84t-10 86t-2.5 78v182q14 200 82.5 305.5t193.5 105.5q60 0 107 -38t80 -97.5t53 -132.5t27 -143h412zM329 727h-261q0 -54 2 -100t14 -79.5t38.5 -52.5t75.5 -19t75.5 18.5t39 51.5t14.5 79t2 102z" />
    <glyph glyph-name="uni182A.init_uni1823.fina.rlig" horiz-adv-x="718" 
d="M678 909v-182q0 -83 -9 -148t-28.5 -110t-50.5 -69t-76 -24q-74 0 -113.5 55t-41.5 164q-2 -109 -42 -164t-113 -55q-45 0 -76.5 24t-51 69t-28 110t-8.5 148v182q7 99 34.5 176t70.5 129t98.5 79t117.5 27q84 0 142.5 -35.5t96 -93.5t56 -132t22.5 -150zM602 909
q-5 40 -19.5 84t-42.5 81t-71.5 61.5t-107.5 24.5q-41 0 -81.5 -16t-75 -47.5t-60 -78.5t-36.5 -109h166q41 0 62 -24.5t23 -64.5q2 40 23 64.5t62 24.5h158zM295 727h-191q0 -108 20 -159.5t80 -51.5q30 0 48 12t27.5 38t12.5 65.5t3 95.5zM614 727h-191q0 -56 3 -95.5
t12.5 -65.5t27.5 -38t48 -12q60 0 80 51.5t20 159.5z" />
    <glyph glyph-name="uni182A.medi_uni1823.fina.rlig" horiz-adv-x="678" 
d="M642 909v-182q0 -83 -9 -148t-28.5 -110t-50.5 -69t-76 -24q-74 0 -113.5 55t-41.5 164q-2 -109 -42 -164t-113 -55q-45 0 -76.5 24t-51 69t-28 110t-8.5 148v182q7 99 34.5 176t70.5 129t98.5 79t117.5 27q84 0 142.5 -35.5t96 -93.5t56 -132t22.5 -150zM566 909
q-5 40 -19.5 84t-42.5 81t-71.5 61.5t-107.5 24.5q-41 0 -81.5 -16t-75 -47.5t-60 -78.5t-36.5 -109h166q41 0 62 -24.5t23 -64.5q2 40 23 64.5t62 24.5h158zM259 727h-191q0 -108 20 -159.5t80 -51.5q30 0 48 12t27.5 38t12.5 65.5t3 95.5zM578 727h-191q0 -56 3 -95.5
t12.5 -65.5t27.5 -38t48 -12q60 0 80 51.5t20 159.5z" />
    <glyph glyph-name="uni182A.init_uni1823.medi.rlig" horiz-adv-x="810" 
d="M880 909v-182h-202q0 -83 -9 -148t-28.5 -110t-50.5 -69t-76 -24q-74 0 -113.5 55t-41.5 164q-2 -109 -42 -164t-113 -55q-45 0 -76.5 24t-51 69t-28 110t-8.5 148v182q7 99 34.5 176t70.5 129t98.5 79t117.5 27q84 0 142.5 -35.5t96 -93.5t56 -132t22.5 -150h202z
M602 909q-5 40 -19.5 84t-42.5 81t-71.5 61.5t-107.5 24.5q-41 0 -81.5 -16t-75 -47.5t-60 -78.5t-36.5 -109h166q41 0 62 -24.5t23 -64.5q2 40 23 64.5t62 24.5h158zM295 727h-191q0 -108 20 -159.5t80 -51.5q30 0 48 12t27.5 38t12.5 65.5t3 95.5zM614 727h-191
q0 -56 3 -95.5t12.5 -65.5t27.5 -38t48 -12q60 0 80 51.5t20 159.5z" />
    <glyph glyph-name="uni182A.medi_uni1823.medi.rlig" horiz-adv-x="770" 
d="M844 909v-182h-202q0 -83 -9 -148t-28.5 -110t-50.5 -69t-76 -24q-74 0 -113.5 55t-41.5 164q-2 -109 -42 -164t-113 -55q-45 0 -76.5 24t-51 69t-28 110t-8.5 148v182q7 99 34.5 176t70.5 129t98.5 79t117.5 27q84 0 142.5 -35.5t96 -93.5t56 -132t22.5 -150h202z
M566 909q-5 40 -19.5 84t-42.5 81t-71.5 61.5t-107.5 24.5q-41 0 -81.5 -16t-75 -47.5t-60 -78.5t-36.5 -109h166q41 0 62 -24.5t23 -64.5q2 40 23 64.5t62 24.5h158zM259 727h-191q0 -108 20 -159.5t80 -51.5q30 0 48 12t27.5 38t12.5 65.5t3 95.5zM578 727h-191
q0 -56 3 -95.5t12.5 -65.5t27.5 -38t48 -12q60 0 80 51.5t20 159.5z" />
    <glyph glyph-name="uni182A.init_uni1824.fina.rlig" horiz-adv-x="718" 
d="M678 909v-182q0 -83 -9 -148t-28.5 -110t-50.5 -69t-76 -24q-74 0 -113.5 55t-41.5 164q-2 -109 -42 -164t-113 -55q-45 0 -76.5 24t-51 69t-28 110t-8.5 148v182q7 99 34.5 176t70.5 129t98.5 79t117.5 27q84 0 142.5 -35.5t96 -93.5t56 -132t22.5 -150zM602 909
q-5 40 -19.5 84t-42.5 81t-71.5 61.5t-107.5 24.5q-41 0 -81.5 -16t-75 -47.5t-60 -78.5t-36.5 -109h166q41 0 62 -24.5t23 -64.5q2 40 23 64.5t62 24.5h158zM295 727h-191q0 -108 20 -159.5t80 -51.5q30 0 48 12t27.5 38t12.5 65.5t3 95.5zM614 727h-191q0 -56 3 -95.5
t12.5 -65.5t27.5 -38t48 -12q60 0 80 51.5t20 159.5z" />
    <glyph glyph-name="uni182A.medi_uni1824.fina.rlig" horiz-adv-x="678" 
d="M642 909v-182q0 -83 -9 -148t-28.5 -110t-50.5 -69t-76 -24q-74 0 -113.5 55t-41.5 164q-2 -109 -42 -164t-113 -55q-45 0 -76.5 24t-51 69t-28 110t-8.5 148v182q7 99 34.5 176t70.5 129t98.5 79t117.5 27q84 0 142.5 -35.5t96 -93.5t56 -132t22.5 -150zM566 909
q-5 40 -19.5 84t-42.5 81t-71.5 61.5t-107.5 24.5q-41 0 -81.5 -16t-75 -47.5t-60 -78.5t-36.5 -109h166q41 0 62 -24.5t23 -64.5q2 40 23 64.5t62 24.5h158zM259 727h-191q0 -108 20 -159.5t80 -51.5q30 0 48 12t27.5 38t12.5 65.5t3 95.5zM578 727h-191q0 -56 3 -95.5
t12.5 -65.5t27.5 -38t48 -12q60 0 80 51.5t20 159.5z" />
    <glyph glyph-name="uni182A.init_uni1824.medi.rlig" horiz-adv-x="810" 
d="M880 909v-182h-202q0 -83 -9 -148t-28.5 -110t-50.5 -69t-76 -24q-74 0 -113.5 55t-41.5 164q-2 -109 -42 -164t-113 -55q-45 0 -76.5 24t-51 69t-28 110t-8.5 148v182q7 99 34.5 176t70.5 129t98.5 79t117.5 27q84 0 142.5 -35.5t96 -93.5t56 -132t22.5 -150h202z
M602 909q-5 40 -19.5 84t-42.5 81t-71.5 61.5t-107.5 24.5q-41 0 -81.5 -16t-75 -47.5t-60 -78.5t-36.5 -109h166q41 0 62 -24.5t23 -64.5q2 40 23 64.5t62 24.5h158zM295 727h-191q0 -108 20 -159.5t80 -51.5q30 0 48 12t27.5 38t12.5 65.5t3 95.5zM614 727h-191
q0 -56 3 -95.5t12.5 -65.5t27.5 -38t48 -12q60 0 80 51.5t20 159.5z" />
    </font>
</defs>
</svg>
